<svg width="47" height="118" viewBox="0 0 47 118" fill="none" xmlns="http://www.w3.org/2000/svg">
<path d="M23.6214 19.7691C25.5277 19.7701 27.3914 19.2068 28.9769 18.1504C30.5623 17.094 31.7982 15.592 32.5282 13.8343C33.2581 12.0767 33.4494 10.1424 33.0778 8.27624C32.7062 6.41007 31.7883 4.69584 30.4404 3.35044C29.0925 2.00504 27.375 1.08893 25.5054 0.717992C23.6357 0.347059 21.6978 0.537978 19.9369 1.26659C18.1759 1.99521 16.6711 3.22879 15.6127 4.81125C14.5543 6.39372 13.9899 8.25397 13.991 10.1566C13.9924 12.7056 15.0075 15.1497 16.8133 16.9521C18.619 18.7544 21.0677 19.7676 23.6214 19.7691ZM34.2614 22.2314H13.0031C9.7216 22.2228 6.57083 23.5147 4.24285 25.8231C1.91487 28.1316 0.60006 31.2679 0.587197 34.5433V64.3504C0.580778 64.9006 0.683614 65.4465 0.889767 65.9567C1.09592 66.4669 1.4013 66.9314 1.78828 67.3231C2.17526 67.7149 2.63617 68.0262 3.14438 68.2392C3.65259 68.4522 4.19805 68.5626 4.74923 68.5639C5.86789 68.5625 6.94023 68.118 7.73073 67.3279C8.52124 66.5379 8.96525 65.467 8.96525 64.3504V37.4745H11.1245V112.267C11.1245 113.768 11.7217 115.207 12.7847 116.268C13.8477 117.329 15.2894 117.925 16.7927 117.925C18.296 117.925 19.7377 117.329 20.8007 116.268C21.8636 115.207 22.4608 113.768 22.4608 112.267V68.8387H24.7767V112.267C24.7767 113.768 25.3738 115.207 26.4368 116.268C27.4998 117.329 28.9415 117.925 30.4448 117.925C31.9481 117.925 33.3898 117.329 34.4528 116.268C35.5158 115.207 36.1129 113.768 36.1129 112.267V37.4745H38.2722V64.3504C38.2715 64.9035 38.3801 65.4513 38.5916 65.9625C38.8032 66.4736 39.1136 66.9382 39.5052 67.3295C39.8967 67.7208 40.3617 68.0313 40.8736 68.2431C41.3855 68.4549 41.9342 68.5639 42.4883 68.5639C43.0394 68.5626 43.5849 68.4522 44.0931 68.2392C44.6013 68.0262 45.0622 67.7149 45.4492 67.3231C45.8362 66.9314 46.1416 66.4669 46.3477 65.9567C46.5539 65.4465 46.6567 64.9006 46.6503 64.3504V34.5433C46.6289 31.2753 45.3151 28.1479 42.9948 25.842C40.6745 23.5362 37.5356 22.2385 34.2614 22.2314Z" fill="#D9D9DD"/>
</svg>
