<svg width="427" height="118" viewBox="0 0 427 118" fill="none" xmlns="http://www.w3.org/2000/svg">
<g clip-path="url(#clip0_71_1998)">
<path d="M23.2123 19.7691C25.1185 19.7701 26.9822 19.2068 28.5677 18.1504C30.1531 17.094 31.389 15.592 32.119 13.8343C32.849 12.0767 33.0402 10.1424 32.6686 8.27624C32.297 6.41007 31.3792 4.69584 30.0312 3.35044C28.6833 2.00504 26.9659 1.08893 25.0962 0.717992C23.2265 0.347059 21.2886 0.537978 19.5277 1.26659C17.7668 1.99521 16.2619 3.22879 15.2035 4.81125C14.1451 6.39372 13.5808 8.25397 13.5818 10.1566C13.5833 12.7056 14.5983 15.1497 16.4041 16.9521C18.2098 18.7544 20.6586 19.7676 23.2123 19.7691ZM33.8522 22.2314H12.5939C9.31242 22.2228 6.16165 23.5147 3.83367 25.8231C1.50569 28.1316 0.19088 31.2679 0.178017 34.5433V64.3504C0.171598 64.9006 0.274435 65.4465 0.480587 65.9567C0.68674 66.4669 0.992125 66.9314 1.3791 67.3231C1.76608 67.7149 2.22699 68.0262 2.7352 68.2392C3.24341 68.4522 3.78887 68.5626 4.34005 68.5639C5.45871 68.5625 6.53105 68.118 7.32156 67.3279C8.11206 66.5379 8.55607 65.467 8.55607 64.3504V37.4745H10.7154V112.267C10.7154 113.768 11.3125 115.207 12.3755 116.268C13.4385 117.329 14.8802 117.925 16.3835 117.925C17.8868 117.925 19.3285 117.329 20.3915 116.268C21.4545 115.207 22.0516 113.768 22.0516 112.267V68.8387H24.3675V112.267C24.3675 113.768 24.9647 115.207 26.0276 116.268C27.0906 117.329 28.5323 117.925 30.0356 117.925C31.5389 117.925 32.9806 117.329 34.0436 116.268C35.1066 115.207 35.7038 113.768 35.7038 112.267V37.4745H37.8631V64.3504C37.8624 64.9035 37.9709 65.4513 38.1824 65.9625C38.394 66.4736 38.7044 66.9382 39.096 67.3295C39.4876 67.7208 39.9526 68.0313 40.4644 68.2431C40.9763 68.4549 41.525 68.5639 42.0791 68.5639C42.6303 68.5626 43.1757 68.4522 43.6839 68.2392C44.1921 68.0262 44.653 67.7149 45.04 67.3231C45.427 66.9314 45.7324 66.4669 45.9385 65.9567C46.1447 65.4465 46.2475 64.9006 46.2411 64.3504V34.5433C46.2198 31.2753 44.9059 28.1479 42.5856 25.842C40.2653 23.5362 37.1264 22.2385 33.8522 22.2314Z" fill="#7BB1FF"/>
<path d="M77.557 19.7691C79.4632 19.7701 81.327 19.2068 82.9124 18.1504C84.4978 17.094 85.7337 15.592 86.4637 13.8343C87.1937 12.0767 87.385 10.1424 87.0133 8.27624C86.6417 6.41007 85.7239 4.69584 84.376 3.35044C83.028 2.00504 81.3106 1.08893 79.4409 0.717992C77.5713 0.347059 75.6334 0.537978 73.8724 1.26659C72.1115 1.99521 70.6066 3.22879 69.5482 4.81125C68.4898 6.39372 67.9255 8.25397 67.9265 10.1566C67.928 12.7056 68.9431 15.1497 70.7488 16.9521C72.5546 18.7544 75.0033 19.7676 77.557 19.7691ZM88.1969 22.2314H66.9387C63.6571 22.2228 60.5064 23.5147 58.1784 25.8231C55.8504 28.1316 54.5356 31.2679 54.5227 34.5433V64.3504C54.5163 64.9006 54.6192 65.4465 54.8253 65.9567C55.0315 66.4669 55.3369 66.9314 55.7238 67.3231C56.1108 67.7149 56.5717 68.0262 57.0799 68.2392C57.5881 68.4522 58.1336 68.5626 58.6848 68.5639C59.8034 68.5625 60.8758 68.118 61.6663 67.3279C62.4568 66.5379 62.9008 65.467 62.9008 64.3504V37.4745H65.0601V112.267C65.0601 113.768 65.6573 115.207 66.7202 116.268C67.7832 117.329 69.2249 117.925 70.7282 117.925C72.2315 117.925 73.6732 117.329 74.7362 116.268C75.7992 115.207 76.3964 113.768 76.3964 112.267V68.8387H78.7122V112.267C78.7122 113.768 79.3094 115.207 80.3724 116.268C81.4354 117.329 82.8771 117.925 84.3804 117.925C85.8836 117.925 87.3254 117.329 88.3883 116.268C89.4513 115.207 90.0485 113.768 90.0485 112.267V37.4745H92.2078V64.3504C92.2071 64.9035 92.3156 65.4513 92.5272 65.9625C92.7387 66.4736 93.0492 66.9382 93.4407 67.3295C93.8323 67.7208 94.2973 68.0313 94.8092 68.2431C95.321 68.4549 95.8697 68.5639 96.4238 68.5639C96.975 68.5626 97.5204 68.4522 98.0287 68.2392C98.5369 68.0262 98.9978 67.7149 99.3848 67.3231C99.7717 66.9314 100.077 66.4669 100.283 65.9567C100.489 65.4465 100.592 64.9006 100.586 64.3504V34.5433C100.564 31.2753 99.2507 28.1479 96.9304 25.842C94.6101 23.5362 91.4712 22.2385 88.1969 22.2314Z" fill="#7BB1FF"/>
<path d="M131.901 19.7691C133.807 19.7701 135.671 19.2068 137.256 18.1504C138.842 17.094 140.077 15.592 140.807 13.8343C141.537 12.0767 141.729 10.1424 141.357 8.27624C140.985 6.41007 140.068 4.69584 138.72 3.35044C137.372 2.00504 135.654 1.08893 133.785 0.717992C131.915 0.347059 129.977 0.537978 128.216 1.26659C126.455 1.99521 124.95 3.22879 123.892 4.81125C122.834 6.39372 122.269 8.25397 122.27 10.1566C122.272 12.7056 123.287 15.1497 125.093 16.9521C126.898 18.7544 129.347 19.7676 131.901 19.7691ZM142.541 22.2314H121.282C118.001 22.2228 114.85 23.5147 112.522 25.8231C110.194 28.1316 108.879 31.2679 108.866 34.5433V64.3504C108.86 64.9006 108.963 65.4465 109.169 65.9567C109.375 66.4669 109.681 66.9314 110.068 67.3231C110.455 67.7149 110.915 68.0262 111.424 68.2392C111.932 68.4522 112.477 68.5626 113.029 68.5639C114.147 68.5625 115.22 68.118 116.01 67.3279C116.801 66.5379 117.245 65.467 117.245 64.3504V37.4745H119.404V112.267C119.404 113.768 120.001 115.207 121.064 116.268C122.127 117.329 123.569 117.925 125.072 117.925C126.575 117.925 128.017 117.329 129.08 116.268C130.143 115.207 130.74 113.768 130.74 112.267V68.8387H133.056V112.267C133.056 113.768 133.653 115.207 134.716 116.268C135.779 117.329 137.221 117.925 138.724 117.925C140.227 117.925 141.669 117.329 142.732 116.268C143.795 115.207 144.392 113.768 144.392 112.267V37.4745H146.552V64.3504C146.551 64.9035 146.659 65.4513 146.871 65.9625C147.082 66.4736 147.393 66.9382 147.784 67.3295C148.176 67.7208 148.641 68.0313 149.153 68.2431C149.665 68.4549 150.213 68.5639 150.768 68.5639C151.319 68.5626 151.864 68.4522 152.372 68.2392C152.881 68.0262 153.342 67.7149 153.729 67.3231C154.115 66.9314 154.421 66.4669 154.627 65.9567C154.833 65.4465 154.936 64.9006 154.93 64.3504V34.5433C154.908 31.2753 153.594 28.1479 151.274 25.842C148.954 23.5362 145.815 22.2385 142.541 22.2314Z" fill="#7BB1FF"/>
<path d="M186.245 19.7691C188.152 19.7701 190.015 19.2068 191.601 18.1504C193.186 17.094 194.422 15.592 195.152 13.8343C195.882 12.0767 196.073 10.1424 195.702 8.27624C195.33 6.41007 194.412 4.69584 193.064 3.35044C191.717 2.00504 189.999 1.08893 188.129 0.717992C186.26 0.347059 184.322 0.537978 182.561 1.26659C180.8 1.99521 179.295 3.22879 178.237 4.81125C177.178 6.39372 176.614 8.25397 176.615 10.1566C176.616 12.7056 177.632 15.1497 179.437 16.9521C181.243 18.7544 183.692 19.7676 186.245 19.7691V19.7691ZM196.885 22.2314H175.627C172.346 22.2228 169.195 23.5147 166.867 25.8231C164.539 28.1316 163.224 31.2679 163.211 34.5433V64.3504C163.205 64.9006 163.308 65.4465 163.514 65.9567C163.72 66.4669 164.025 66.9314 164.412 67.3231C164.799 67.7149 165.26 68.0262 165.768 68.2392C166.277 68.4522 166.822 68.5626 167.373 68.5639C168.492 68.5625 169.564 68.118 170.355 67.3279C171.145 66.5379 171.589 65.467 171.589 64.3504V37.4745H173.749V112.267C173.749 113.768 174.346 115.207 175.409 116.268C176.472 117.329 177.913 117.925 179.417 117.925C180.92 117.925 182.362 117.329 183.425 116.268C184.488 115.207 185.085 113.768 185.085 112.267V68.8387H187.401V112.267C187.401 113.768 187.998 115.207 189.061 116.268C190.124 117.329 191.566 117.925 193.069 117.925C194.572 117.925 196.014 117.329 197.077 116.268C198.14 115.207 198.737 113.768 198.737 112.267V37.4745H200.896V64.3504C200.896 64.9035 201.004 65.4513 201.216 65.9625C201.427 66.4736 201.738 66.9382 202.129 67.3295C202.521 67.7208 202.986 68.0313 203.498 68.2431C204.009 68.4549 204.558 68.5639 205.112 68.5639C205.663 68.5626 206.209 68.4522 206.717 68.2392C207.225 68.0262 207.686 67.7149 208.073 67.3231C208.46 66.9314 208.766 66.4669 208.972 65.9567C209.178 65.4465 209.281 64.9006 209.274 64.3504V34.5433C209.253 31.2753 207.939 28.1479 205.619 25.842C203.299 23.5362 200.16 22.2385 196.885 22.2314Z" fill="#7BB1FF"/>
<path d="M240.589 19.7691C242.495 19.7701 244.359 19.2068 245.945 18.1504C247.53 17.094 248.766 15.592 249.496 13.8343C250.226 12.0767 250.417 10.1424 250.046 8.27624C249.674 6.41007 248.756 4.69584 247.408 3.35044C246.06 2.00504 244.343 1.08893 242.473 0.717992C240.603 0.347059 238.666 0.537978 236.905 1.26659C235.144 1.99521 233.639 3.22879 232.58 4.81125C231.522 6.39372 230.958 8.25397 230.959 10.1566C230.96 12.7056 231.975 15.1497 233.781 16.9521C235.587 18.7544 238.036 19.7676 240.589 19.7691ZM251.229 22.2314H229.971C226.689 22.2228 223.539 23.5147 221.211 25.8231C218.883 28.1316 217.568 31.2679 217.555 34.5433V64.3504C217.549 64.9006 217.651 65.4465 217.858 65.9567C218.064 66.4669 218.369 66.9314 218.756 67.3231C219.143 67.7149 219.604 68.0262 220.112 68.2392C220.62 68.4522 221.166 68.5626 221.717 68.5639C222.836 68.5625 223.908 68.118 224.699 67.3279C225.489 66.5379 225.933 65.467 225.933 64.3504V37.4745H228.092V112.267C228.092 113.768 228.689 115.207 229.752 116.268C230.815 117.329 232.257 117.925 233.76 117.925C235.264 117.925 236.705 117.329 237.768 116.268C238.831 115.207 239.429 113.768 239.429 112.267V68.8387H241.744V112.267C241.744 113.768 242.342 115.207 243.405 116.268C244.468 117.329 245.909 117.925 247.413 117.925C248.916 117.925 250.358 117.329 251.421 116.268C252.484 115.207 253.081 113.768 253.081 112.267V37.4745H255.24V64.3504C255.239 64.9035 255.348 65.4513 255.559 65.9625C255.771 66.4736 256.081 66.9382 256.473 67.3295C256.865 67.7208 257.33 68.0313 257.841 68.2431C258.353 68.4549 258.902 68.5639 259.456 68.5639C260.007 68.5626 260.553 68.4522 261.061 68.2392C261.569 68.0262 262.03 67.7149 262.417 67.3231C262.804 66.9314 263.109 66.4669 263.315 65.9567C263.522 65.4465 263.624 64.9006 263.618 64.3504V34.5433C263.597 31.2753 262.283 28.1479 259.963 25.842C257.642 23.5362 254.503 22.2385 251.229 22.2314Z" fill="#D9D9DD"/>
<path d="M294.933 19.7691C296.839 19.7701 298.703 19.2068 300.288 18.1504C301.874 17.094 303.11 15.592 303.84 13.8343C304.57 12.0767 304.761 10.1424 304.389 8.27624C304.018 6.41007 303.1 4.69584 301.752 3.35044C300.404 2.00504 298.687 1.08893 296.817 0.717992C294.947 0.347059 293.009 0.537978 291.248 1.26659C289.487 1.99521 287.983 3.22879 286.924 4.81125C285.866 6.39372 285.301 8.25397 285.303 10.1566C285.304 12.7056 286.319 15.1497 288.125 16.9521C289.931 18.7544 292.379 19.7676 294.933 19.7691ZM305.573 22.2314H284.315C281.033 22.2228 277.882 23.5147 275.554 25.8231C273.226 28.1316 271.912 31.2679 271.899 34.5433V64.3504C271.892 64.9006 271.995 65.4465 272.201 65.9567C272.407 66.4669 272.713 66.9314 273.1 67.3231C273.487 67.7149 273.948 68.0262 274.456 68.2392C274.964 68.4522 275.51 68.5626 276.061 68.5639C277.179 68.5625 278.252 68.118 279.042 67.3279C279.833 66.5379 280.277 65.467 280.277 64.3504V37.4745H282.436V112.267C282.436 113.768 283.033 115.207 284.096 116.268C285.159 117.329 286.601 117.925 288.104 117.925C289.607 117.925 291.049 117.329 292.112 116.268C293.175 115.207 293.772 113.768 293.772 112.267V68.8387H296.088V112.267C296.088 113.768 296.685 115.207 297.748 116.268C298.811 117.329 300.253 117.925 301.756 117.925C303.26 117.925 304.701 117.329 305.764 116.268C306.827 115.207 307.424 113.768 307.424 112.267V37.4745H309.584V64.3504C309.583 64.9035 309.692 65.4513 309.903 65.9625C310.115 66.4736 310.425 66.9382 310.817 67.3295C311.208 67.7208 311.673 68.0313 312.185 68.2431C312.697 68.4549 313.246 68.5639 313.8 68.5639C314.351 68.5626 314.896 68.4522 315.405 68.2392C315.913 68.0262 316.374 67.7149 316.761 67.3231C317.148 66.9314 317.453 66.4669 317.659 65.9567C317.865 65.4465 317.968 64.9006 317.962 64.3504V34.5433C317.94 31.2753 316.627 28.1479 314.306 25.842C311.986 23.5362 308.847 22.2385 305.573 22.2314Z" fill="#D9D9DD"/>
<path d="M349.278 19.7691C351.184 19.7701 353.048 19.2068 354.633 18.1504C356.219 17.094 357.454 15.592 358.184 13.8343C358.914 12.0767 359.106 10.1424 358.734 8.27624C358.362 6.41007 357.445 4.69584 356.097 3.35044C354.749 2.00504 353.031 1.08893 351.162 0.717992C349.292 0.347059 347.354 0.537978 345.593 1.26659C343.832 1.99521 342.327 3.22879 341.269 4.81125C340.211 6.39372 339.646 8.25397 339.647 10.1566C339.649 12.7056 340.664 15.1497 342.47 16.9521C344.275 18.7544 346.724 19.7676 349.278 19.7691ZM359.918 22.2314H338.659C335.378 22.2228 332.227 23.5147 329.899 25.8231C327.571 28.1316 326.256 31.2679 326.243 34.5433V64.3504C326.237 64.9006 326.34 65.4465 326.546 65.9567C326.752 66.4669 327.058 66.9314 327.445 67.3231C327.832 67.7149 328.292 68.0262 328.801 68.2392C329.309 68.4522 329.854 68.5626 330.405 68.5639C331.524 68.5625 332.596 68.118 333.387 67.3279C334.177 66.5379 334.622 65.467 334.622 64.3504V37.4745H336.781V112.267C336.781 113.768 337.378 115.207 338.441 116.268C339.504 117.329 340.946 117.925 342.449 117.925C343.952 117.925 345.394 117.329 346.457 116.268C347.52 115.207 348.117 113.768 348.117 112.267V68.8387H350.433V112.267C350.433 113.768 351.03 115.207 352.093 116.268C353.156 117.329 354.598 117.925 356.101 117.925C357.604 117.925 359.046 117.329 360.109 116.268C361.172 115.207 361.769 113.768 361.769 112.267V37.4745H363.928V64.3504C363.928 64.9035 364.036 65.4513 364.248 65.9625C364.459 66.4736 364.77 66.9382 365.161 67.3295C365.553 67.7208 366.018 68.0313 366.53 68.2431C367.042 68.4549 367.59 68.5639 368.145 68.5639C368.696 68.5626 369.241 68.4522 369.749 68.2392C370.258 68.0262 370.718 67.7149 371.105 67.3231C371.492 66.9314 371.798 66.4669 372.004 65.9567C372.21 65.4465 372.313 64.9006 372.307 64.3504V34.5433C372.285 31.2753 370.971 28.1479 368.651 25.842C366.331 23.5362 363.192 22.2385 359.918 22.2314Z" fill="#D9D9DD"/>
<path d="M403.621 19.7691C405.528 19.7701 407.391 19.2068 408.977 18.1504C410.562 17.094 411.798 15.592 412.528 13.8343C413.258 12.0767 413.449 10.1424 413.078 8.27624C412.706 6.41007 411.788 4.69584 410.44 3.35044C409.092 2.00504 407.375 1.08893 405.505 0.717992C403.636 0.347059 401.698 0.537978 399.937 1.26659C398.176 1.99521 396.671 3.22879 395.613 4.81125C394.554 6.39372 393.99 8.25397 393.991 10.1566C393.992 12.7056 395.008 15.1497 396.813 16.9521C398.619 18.7544 401.068 19.7676 403.621 19.7691V19.7691ZM414.261 22.2314H393.003C389.722 22.2228 386.571 23.5147 384.243 25.8231C381.915 28.1316 380.6 31.2679 380.587 34.5433V64.3504C380.581 64.9006 380.684 65.4465 380.89 65.9567C381.096 66.4669 381.401 66.9314 381.788 67.3231C382.175 67.7149 382.636 68.0262 383.144 68.2392C383.653 68.4522 384.198 68.5626 384.749 68.5639C385.868 68.5625 386.94 68.118 387.731 67.3279C388.521 66.5379 388.965 65.467 388.965 64.3504V37.4745H391.125V112.267C391.125 113.768 391.722 115.207 392.785 116.268C393.848 117.329 395.289 117.925 396.793 117.925C398.296 117.925 399.738 117.329 400.801 116.268C401.864 115.207 402.461 113.768 402.461 112.267V68.8387H404.777V112.267C404.777 113.768 405.374 115.207 406.437 116.268C407.5 117.329 408.942 117.925 410.445 117.925C411.948 117.925 413.39 117.329 414.453 116.268C415.516 115.207 416.113 113.768 416.113 112.267V37.4745H418.272V64.3504C418.272 64.9035 418.38 65.4513 418.592 65.9625C418.803 66.4736 419.114 66.9382 419.505 67.3295C419.897 67.7208 420.362 68.0313 420.874 68.2431C421.385 68.4549 421.934 68.5639 422.488 68.5639C423.039 68.5626 423.585 68.4522 424.093 68.2392C424.601 68.0262 425.062 67.7149 425.449 67.3231C425.836 66.9314 426.142 66.4669 426.348 65.9567C426.554 65.4465 426.657 64.9006 426.65 64.3504V34.5433C426.629 31.2753 425.315 28.1479 422.995 25.842C420.675 23.5362 417.536 22.2385 414.261 22.2314Z" fill="#D9D9DD"/>
</g>
<defs>
<clipPath id="clip0_71_1998">
<rect width="427" height="118" fill="white"/>
</clipPath>
</defs>
</svg>
