<svg width="47" height="118" viewBox="0 0 47 118" fill="none" xmlns="http://www.w3.org/2000/svg">
<path d="M23.2455 19.7691C25.1517 19.7701 27.0155 19.2068 28.6009 18.1504C30.1863 17.094 31.4222 15.592 32.1522 13.8343C32.8822 12.0767 33.0734 10.1424 32.7018 8.27624C32.3302 6.41007 31.4124 4.69584 30.0644 3.35044C28.7165 2.00504 26.9991 1.08893 25.1294 0.717992C23.2597 0.347059 21.3218 0.537978 19.5609 1.26659C17.8 1.99521 16.2951 3.22879 15.2367 4.81125C14.1783 6.39372 13.614 8.25397 13.615 10.1566C13.6165 12.7056 14.6315 15.1497 16.4373 16.9521C18.243 18.7544 20.6918 19.7676 23.2455 19.7691ZM33.8854 22.2314H12.6271C9.34562 22.2228 6.19485 23.5147 3.86687 25.8231C1.5389 28.1316 0.224084 31.2679 0.211221 34.5433V64.3504C0.204801 64.9006 0.307638 65.4465 0.51379 65.9567C0.719943 66.4669 1.02533 66.9314 1.41231 67.3231C1.79929 67.7149 2.26019 68.0262 2.7684 68.2392C3.27662 68.4522 3.82207 68.5626 4.37326 68.5639C5.49191 68.5625 6.56426 68.118 7.35476 67.3279C8.14526 66.5379 8.58927 65.467 8.58927 64.3504V37.4745H10.7486V112.267C10.7486 113.768 11.3457 115.207 12.4087 116.268C13.4717 117.329 14.9134 117.925 16.4167 117.925C17.92 117.925 19.3617 117.329 20.4247 116.268C21.4877 115.207 22.0848 113.768 22.0848 112.267V68.8387H24.4007V112.267C24.4007 113.768 24.9979 115.207 26.0608 116.268C27.1238 117.329 28.5655 117.925 30.0688 117.925C31.5721 117.925 33.0138 117.329 34.0768 116.268C35.1398 115.207 35.737 113.768 35.737 112.267V37.4745H37.8963V64.3504C37.8956 64.9035 38.0041 65.4513 38.2156 65.9625C38.4272 66.4736 38.7376 66.9382 39.1292 67.3295C39.5208 67.7208 39.9858 68.0313 40.4976 68.2431C41.0095 68.4549 41.5582 68.5639 42.1123 68.5639C42.6635 68.5626 43.2089 68.4522 43.7171 68.2392C44.2253 68.0262 44.6863 67.7149 45.0732 67.3231C45.4602 66.9314 45.7656 66.4669 45.9717 65.9567C46.1779 65.4465 46.2807 64.9006 46.2743 64.3504V34.5433C46.253 31.2753 44.9391 28.1479 42.6189 25.842C40.2985 23.5362 37.1596 22.2385 33.8854 22.2314Z" fill="#7BB1FF"/>
</svg>
