<svg width="118" height="28" viewBox="0 0 118 28" fill="none" xmlns="http://www.w3.org/2000/svg">
<rect width="33.4766" height="26.9558" rx="3.45603" fill="url(#paint0_linear_93_641)"/>
<path d="M20.2513 18.9748C19.6653 18.0242 19.3833 16.9226 19.442 15.8128C19.3815 14.7111 19.6567 13.6166 20.2325 12.6693C20.5373 12.2315 20.9523 11.8787 21.4372 11.6453C21.9221 11.412 22.4603 11.3061 22.9992 11.338C23.5425 11.3085 24.0844 11.4173 24.5723 11.6537C25.0603 11.8902 25.4779 12.2464 25.7848 12.6878C26.3701 13.6258 26.6584 14.7135 26.6129 15.8128C26.6243 16.5192 26.5292 17.2233 26.3306 17.9023C26.1656 18.4888 25.8401 19.0196 25.3895 19.437H29.8878C30.3148 18.9861 30.6247 18.4406 30.7912 17.8468C30.9849 17.1858 31.08 16.5006 31.0735 15.8128C31.1344 14.6745 30.9607 13.5359 30.5629 12.4651C30.1651 11.3944 29.5514 10.4135 28.7585 9.58134C28.004 8.84541 27.1032 8.27018 26.1122 7.89159C25.1213 7.51299 24.0616 7.33915 22.9992 7.38092C21.9556 7.3544 20.9174 7.53568 19.947 7.91385C18.9766 8.29201 18.0942 8.85923 17.3529 9.58134C16.2877 10.6418 15.5615 11.9851 15.2637 13.446L12.4217 10.9127L20.7595 3.1095H14.6614L7.13295 9.82172V2.72119L2.70996 6.67826V19.6219H7.15177V15.6649L9.16564 13.8158L15.6401 19.4925C16.2037 20.9433 17.2178 22.183 18.5387 23.036C19.8595 23.8889 21.4201 24.3118 22.9992 24.2447H26.6129L31.0735 20.3061H22.9992C22.4631 20.3365 21.9282 20.2299 21.4465 19.9965C20.9649 19.7632 20.5531 19.4111 20.2513 18.9748Z" fill="white"/>
<path d="M51.8469 13.8483H49.2912L45.2396 9.96178H43.9722V8.2241H45.2396L49.2912 4.33754H51.8469L46.7425 9.09294L51.8469 13.8483ZM43.2519 13.8483H41.4512V4.33754H43.2519V13.8483Z" fill="#404B7C"/>
<path d="M61.8843 13.8483H53.6703C53.541 13.8483 53.421 13.8262 53.3102 13.782C53.1993 13.7378 53.1024 13.6781 53.0193 13.6029C52.9408 13.5233 52.8784 13.4305 52.8323 13.3244C52.7861 13.2183 52.763 13.1033 52.763 12.9795V4.33754H54.5637V12.1239H61.8843V13.8483Z" fill="#404B7C"/>
<path d="M72.739 13.8483H70.9383V11.5137H64.6081V13.8483H62.8074V9.09294C62.8074 8.39875 62.9321 7.75984 63.1814 7.17619C63.4307 6.59254 63.777 6.09069 64.2203 5.67064C64.6635 5.2506 65.1876 4.9234 65.7924 4.68906C66.3973 4.45471 67.0575 4.33754 67.7732 4.33754H71.8317C71.9564 4.33754 72.0741 4.35965 72.185 4.40387C72.2958 4.44808 72.3927 4.50998 72.4758 4.58957C72.5589 4.66916 72.6236 4.76201 72.6698 4.86813C72.7159 4.97425 72.739 5.087 72.739 5.20638V13.8483ZM64.6081 9.78934H70.9383V6.06195H67.7732C67.7178 6.06195 67.6001 6.0708 67.42 6.08848C67.2445 6.10175 67.0391 6.13933 66.8036 6.20123C66.5727 6.26313 66.328 6.3582 66.0695 6.48642C65.8109 6.61465 65.5731 6.79151 65.3561 7.01701C65.1391 7.24251 64.959 7.52549 64.8159 7.86595C64.6774 8.20199 64.6081 8.61099 64.6081 9.09294V9.78934Z" fill="#404B7C"/>
<path d="M84.1686 11.0495C84.1686 11.3899 84.1224 11.6972 84.03 11.9714C83.9423 12.2411 83.8246 12.4799 83.6768 12.6877C83.5291 12.8955 83.3559 13.0724 83.1574 13.2183C82.9589 13.3642 82.7534 13.4836 82.541 13.5764C82.3286 13.6693 82.1116 13.7378 81.89 13.782C81.673 13.8262 81.4675 13.8483 81.2736 13.8483H74.327V12.1239H81.2736C81.6199 12.1239 81.8877 12.0266 82.077 11.8321C82.2709 11.6376 82.3678 11.3767 82.3678 11.0495C82.3678 10.8903 82.3425 10.7444 82.2917 10.6117C82.2409 10.4791 82.167 10.3641 82.07 10.2669C81.9777 10.1696 81.8623 10.0944 81.7237 10.0414C81.5898 9.98831 81.4398 9.96178 81.2736 9.96178H77.1319C76.841 9.96178 76.5271 9.91314 76.19 9.81587C75.853 9.71417 75.539 9.55278 75.2481 9.3317C74.9618 9.11063 74.7217 8.82101 74.5278 8.46287C74.3385 8.10472 74.2439 7.66698 74.2439 7.14966C74.2439 6.63234 74.3385 6.19681 74.5278 5.84309C74.7217 5.48494 74.9618 5.19533 75.2481 4.97425C75.539 4.74875 75.853 4.58736 76.19 4.49009C76.5271 4.38839 76.841 4.33754 77.1319 4.33754H83.2613V6.06195H77.1319C76.7903 6.06195 76.5225 6.16144 76.3285 6.36041C76.1392 6.55938 76.0446 6.82246 76.0446 7.14966C76.0446 7.48128 76.1392 7.74436 76.3285 7.93891C76.5225 8.12904 76.7903 8.2241 77.1319 8.2241H81.2736H81.2874C81.4813 8.22852 81.6868 8.25505 81.9038 8.30369C82.1208 8.3479 82.3355 8.41865 82.5479 8.51592C82.7649 8.6132 82.9704 8.737 83.1643 8.88734C83.3582 9.03325 83.5291 9.21011 83.6768 9.41792C83.8292 9.62574 83.9492 9.8645 84.037 10.1342C84.1247 10.4039 84.1686 10.709 84.1686 11.0495Z" fill="#404B7C"/>
<path d="M94.9956 11.0495C94.9956 11.3899 94.9494 11.6972 94.857 11.9714C94.7693 12.2411 94.6516 12.4799 94.5038 12.6877C94.3561 12.8955 94.1829 13.0724 93.9844 13.2183C93.7858 13.3642 93.5804 13.4836 93.368 13.5764C93.1556 13.6693 92.9386 13.7378 92.717 13.782C92.5 13.8262 92.2945 13.8483 92.1006 13.8483H85.154V12.1239H92.1006C92.4469 12.1239 92.7147 12.0266 92.904 11.8321C93.0979 11.6376 93.1948 11.3767 93.1948 11.0495C93.1948 10.8903 93.1694 10.7444 93.1187 10.6117C93.0679 10.4791 92.994 10.3641 92.897 10.2669C92.8047 10.1696 92.6893 10.0944 92.5507 10.0414C92.4168 9.98831 92.2668 9.96178 92.1006 9.96178H87.9589C87.668 9.96178 87.3541 9.91314 87.017 9.81587C86.68 9.71417 86.366 9.55278 86.0751 9.3317C85.7888 9.11063 85.5487 8.82101 85.3548 8.46287C85.1655 8.10472 85.0709 7.66698 85.0709 7.14966C85.0709 6.63234 85.1655 6.19681 85.3548 5.84309C85.5487 5.48494 85.7888 5.19533 86.0751 4.97425C86.366 4.74875 86.68 4.58736 87.017 4.49009C87.3541 4.38839 87.668 4.33754 87.9589 4.33754H94.0883V6.06195H87.9589C87.6172 6.06195 87.3494 6.16144 87.1555 6.36041C86.9662 6.55938 86.8716 6.82246 86.8716 7.14966C86.8716 7.48128 86.9662 7.74436 87.1555 7.93891C87.3494 8.12904 87.6172 8.2241 87.9589 8.2241H92.1006H92.1144C92.3083 8.22852 92.5138 8.25505 92.7308 8.30369C92.9478 8.3479 93.1625 8.41865 93.3749 8.51592C93.5919 8.6132 93.7974 8.737 93.9913 8.88734C94.1852 9.03325 94.3561 9.21011 94.5038 9.41792C94.6562 9.62574 94.7762 9.8645 94.864 10.1342C94.9517 10.4039 94.9956 10.709 94.9956 11.0495Z" fill="#404B7C"/>
<path d="M106.702 10.0016C106.702 10.5808 106.598 11.1136 106.39 11.6C106.183 12.0863 105.894 12.5064 105.525 12.8601C105.155 13.2138 104.717 13.4902 104.209 13.6892C103.706 13.8837 103.156 13.981 102.56 13.981H100.123C99.527 13.981 98.9752 13.8837 98.4673 13.6892C97.9594 13.4902 97.5208 13.2138 97.1514 12.8601C96.7821 12.5064 96.4912 12.0863 96.2788 11.6C96.071 11.1136 95.9671 10.5808 95.9671 10.0016V8.18431C95.9671 7.6095 96.071 7.07891 96.2788 6.59254C96.4912 6.10175 96.7821 5.6817 97.1514 5.33239C97.5208 4.97867 97.9594 4.70232 98.4673 4.50335C98.9752 4.30438 99.527 4.2049 100.123 4.2049H102.56C103.156 4.2049 103.706 4.30438 104.209 4.50335C104.717 4.70232 105.155 4.97867 105.525 5.33239C105.894 5.6817 106.183 6.10175 106.39 6.59254C106.598 7.07891 106.702 7.6095 106.702 8.18431V10.0016ZM104.901 8.18431C104.901 7.84385 104.844 7.53655 104.728 7.26241C104.617 6.98385 104.458 6.7473 104.25 6.55275C104.047 6.35378 103.8 6.20123 103.509 6.09512C103.223 5.98458 102.907 5.92931 102.56 5.92931H100.123C99.7717 5.92931 99.4508 5.98458 99.1599 6.09512C98.8736 6.20123 98.6266 6.35378 98.4189 6.55275C98.2111 6.7473 98.0495 6.98385 97.934 7.26241C97.8232 7.53655 97.7678 7.84385 97.7678 8.18431V10.0016C97.7678 10.342 97.8232 10.6515 97.934 10.9301C98.0495 11.2042 98.2111 11.4408 98.4189 11.6398C98.6266 11.8343 98.8736 11.9869 99.1599 12.0974C99.4508 12.2035 99.7717 12.2566 100.123 12.2566H102.547C102.898 12.2566 103.216 12.2035 103.502 12.0974C103.793 11.9869 104.043 11.8343 104.25 11.6398C104.458 11.4408 104.617 11.2042 104.728 10.9301C104.844 10.6515 104.901 10.342 104.901 10.0016V8.18431Z" fill="#404B7C"/>
<path d="M118 4.33754L113.297 13.5101C113.224 13.6516 113.113 13.7643 112.965 13.8483C112.822 13.9368 112.663 13.981 112.487 13.981C112.316 13.981 112.157 13.9368 112.009 13.8483C111.866 13.7643 111.755 13.6516 111.677 13.5101L106.981 4.33754H108.997L112.487 11.1888L115.992 4.33754H118Z" fill="#404B7C"/>
<path d="M43.1217 23.5064C42.648 23.5064 42.2291 23.3989 41.8651 23.184C41.5011 22.9691 41.2144 22.6659 41.0049 22.2743C40.8005 21.8828 40.6982 21.4219 40.6982 20.8919C40.6982 20.3618 40.8005 19.901 41.0049 19.5094C41.2144 19.1131 41.5011 18.8075 41.8651 18.5926C42.2291 18.3729 42.648 18.2631 43.1217 18.2631C43.5955 18.2631 44.0118 18.3729 44.3709 18.5926C44.7349 18.8075 45.0191 19.1131 45.2236 19.5094C45.433 19.901 45.5377 20.3618 45.5377 20.8919C45.5377 21.1641 45.5078 21.4219 45.448 21.6655C45.3931 21.9043 45.3108 22.1215 45.2011 22.3173L46.0314 22.9548L45.5976 23.4849L44.7823 22.8617C44.5778 23.067 44.3335 23.227 44.0492 23.3416C43.77 23.4515 43.4608 23.5064 43.1217 23.5064ZM43.1217 22.8617C43.5655 22.8617 43.932 22.7232 44.2213 22.4463L43.4508 21.8446L43.8772 21.3288L44.6177 21.8947C44.7573 21.613 44.8271 21.2787 44.8271 20.8919C44.8271 20.486 44.7548 20.1374 44.6102 19.8461C44.4706 19.55 44.2711 19.3208 44.0118 19.1585C43.7575 18.9961 43.4608 18.9149 43.1217 18.9149C42.7826 18.9149 42.4834 18.9961 42.2241 19.1585C41.9698 19.3208 41.7704 19.55 41.6257 19.8461C41.4811 20.1374 41.4088 20.486 41.4088 20.8919C41.4088 21.293 41.4811 21.6416 41.6257 21.9377C41.7704 22.229 41.9698 22.4558 42.2241 22.6182C42.4834 22.7805 42.7826 22.8617 43.1217 22.8617Z" fill="#404B7C"/>
<path d="M49.1316 23.4849C48.4983 23.4849 48.0146 23.3177 47.6805 22.9835C47.3464 22.6444 47.1793 22.143 47.1793 21.4793V18.3849H47.875V21.4506C47.875 21.9138 47.9822 22.2624 48.1966 22.4964C48.416 22.7304 48.7277 22.8474 49.1316 22.8474C49.5355 22.8474 49.8447 22.7304 50.0591 22.4964C50.2735 22.2624 50.3807 21.9138 50.3807 21.4506V18.3849H51.0763V21.4793C51.0763 22.143 50.9093 22.6444 50.5752 22.9835C50.2411 23.3177 49.7599 23.4849 49.1316 23.4849Z" fill="#404B7C"/>
<path d="M52.5144 23.3989L54.5564 18.3849H55.1622L57.2042 23.3989H56.4338L55.9327 22.1168H53.771L53.2698 23.3989H52.5144ZM54.0029 21.5007H55.7008L54.863 19.3232L54.0029 21.5007Z" fill="#404B7C"/>
<path d="M58.7097 23.3989V18.3849H59.3904V22.7829H62.1954V23.3989H58.7097Z" fill="#404B7C"/>
<path d="M63.7692 23.3989V18.3849H64.4499V23.3989H63.7692Z" fill="#404B7C"/>
<path d="M67.7344 23.3989V19.0009H66.0888V18.3849H70.0606V19.0009H68.4225V23.3989H67.7344Z" fill="#404B7C"/>
<path d="M73.0579 23.3989V21.2644L71.3076 18.3849H72.1004L73.4094 20.5481L74.7034 18.3849H75.5038L73.7535 21.2644V23.3989H73.0579Z" fill="#404B7C"/>
<defs>
<linearGradient id="paint0_linear_93_641" x1="16.7383" y1="0" x2="16.7383" y2="33.3738" gradientUnits="userSpaceOnUse">
<stop stop-color="#64A1FF"/>
<stop offset="1" stop-color="#3952D6"/>
</linearGradient>
</defs>
</svg>
