<svg width="40" height="40" viewBox="0 0 40 40" fill="none" xmlns="http://www.w3.org/2000/svg">
<path d="M38.3337 20C38.3337 30.1252 30.1255 38.3333 20.0003 38.3333C9.8751 38.3333 1.66699 30.1252 1.66699 20C1.66699 9.87477 9.8751 1.66666 20.0003 1.66666C30.1255 1.66666 38.3337 9.87477 38.3337 20Z" fill="white"/>
<path fill-rule="evenodd" clip-rule="evenodd" d="M20.0003 35C28.2846 35 35.0003 28.2843 35.0003 20C35.0003 11.7157 28.2846 4.99999 20.0003 4.99999C11.7161 4.99999 5.00033 11.7157 5.00033 20C5.00033 28.2843 11.7161 35 20.0003 35ZM20.0003 38.3333C30.1255 38.3333 38.3337 30.1252 38.3337 20C38.3337 9.87477 30.1255 1.66666 20.0003 1.66666C9.8751 1.66666 1.66699 9.87477 1.66699 20C1.66699 30.1252 9.8751 38.3333 20.0003 38.3333Z" fill="#055FE1"/>
<path d="M29.9379 13.3357L26.6683 28.8933C26.4216 29.9913 25.7783 30.2646 24.8642 29.7473L19.8824 26.0434L17.4785 28.376C17.2125 28.6444 16.99 28.8689 16.4773 28.8689L16.8352 23.7497L26.0685 15.3316C26.47 14.9705 25.9815 14.7704 25.4446 15.1315L14.0299 22.3833L9.11577 20.8314C8.04685 20.4947 8.0275 19.7529 9.33826 19.2357L28.5595 11.7643C29.4494 11.4276 30.2281 11.9644 29.9379 13.3357Z" fill="#055FE1"/>
</svg>
