<svg width="40" height="40" viewBox="0 0 40 40" fill="none" xmlns="http://www.w3.org/2000/svg">
<path d="M35.1998 19.9998C35.1998 28.3945 28.3945 35.1998 19.9998 35.1998C11.6051 35.1998 4.7998 28.3945 4.7998 19.9998C4.7998 11.6051 11.6051 4.7998 19.9998 4.7998C28.3945 4.7998 35.1998 11.6051 35.1998 19.9998Z" fill="white"/>
<path d="M5 34.1667L7.5 26.6667L15 31.6667L5 34.1667Z" fill="white"/>
<path d="M32.2578 7.58594C28.9844 4.30469 24.625 2.5 19.9922 2.5C10.4297 2.5 2.64844 10.2812 2.64844 19.8438C2.64844 22.8984 3.44531 25.8828 4.96094 28.5156L2.5 37.5L11.6953 35.0859C14.2266 36.4688 17.0781 37.1953 19.9844 37.1953H19.9922C29.5469 37.1953 37.5 29.4141 37.5 19.8516C37.5 15.2188 35.5312 10.8672 32.2578 7.58594ZM19.9922 34.2734C17.3984 34.2734 14.8594 33.5781 12.6484 32.2656L12.125 31.9531L6.67188 33.3828L8.125 28.0625L7.78125 27.5156C6.33594 25.2188 5.57812 22.5703 5.57812 19.8438C5.57812 11.8984 12.0469 5.42969 20 5.42969C23.8516 5.42969 27.4688 6.92969 30.1875 9.65625C32.9062 12.3828 34.5781 16 34.5703 19.8516C34.5703 27.8047 27.9375 34.2734 19.9922 34.2734ZM27.8984 23.4766C27.4688 23.2578 25.3359 22.2109 24.9375 22.0703C24.5391 21.9219 24.25 21.8516 23.9609 22.2891C23.6719 22.7266 22.8438 23.6953 22.5859 23.9922C22.3359 24.2812 22.0781 24.3203 21.6484 24.1016C19.1016 22.8281 17.4297 21.8281 15.75 18.9453C15.3047 18.1797 16.1953 18.2344 17.0234 16.5781C17.1641 16.2891 17.0937 16.0391 16.9844 15.8203C16.875 15.6016 16.0078 13.4688 15.6484 12.6016C15.2969 11.7578 14.9375 11.875 14.6719 11.8594C14.4219 11.8438 14.1328 11.8438 13.8438 11.8438C13.5547 11.8438 13.0859 11.9531 12.6875 12.3828C12.2891 12.8203 11.1719 13.8672 11.1719 16C11.1719 18.1328 12.7266 20.1953 12.9375 20.4844C13.1562 20.7734 15.9922 25.1484 20.3438 27.0312C23.0938 28.2188 24.1719 28.3203 25.5469 28.1172C26.3828 27.9922 28.1094 27.0703 28.4688 26.0547C28.8281 25.0391 28.8281 24.1719 28.7188 23.9922C28.6172 23.7969 28.3281 23.6875 27.8984 23.4766Z" fill="#055FE1"/>
</svg>
