<svg width="517" height="593" viewBox="0 0 517 593" fill="none" xmlns="http://www.w3.org/2000/svg">
<g clip-path="url(#clip0_62_955)">
<path d="M353.95 513.043L353.501 512.697C342.74 504.699 330.053 501.62 317.824 497.765C306.465 494.184 293.712 489.409 284.99 478.81C274.387 465.967 275.865 448.278 279.941 432.188C284.223 415.298 288.262 398.301 286.373 380.373C284.161 359.56 276.88 340.161 265.562 324.918C247.798 301.142 220.292 288.537 193.937 292.094C158.568 296.868 129.52 328.022 107.465 361.741C92.9923 383.87 84.4564 408.996 67.9456 430.015C51.631 450.784 33.3064 469.5 19.5723 493.038C1.31309 524.358 -7.60614 564.32 -1.67869 601.955C4.24877 639.589 25.9298 673.965 55.6138 687.548C74.5181 696.202 95.2549 696.381 115.449 696.453C157.446 696.584 199.5 696.727 241.356 692.657C268.899 689.983 296.816 685.328 321.91 671.351C347.003 657.374 369.227 632.869 377.454 601.024C385.644 569.381 377.155 530.696 353.95 513.043Z" fill="#EFF7FF"/>
<path d="M387.452 304.701L376.747 328.929H357.353L348.076 307.891L367.059 305.679L387.452 304.701Z" fill="#4B4B63"/>
<path d="M417.277 198.943C417.436 205.74 416.21 212.499 413.673 218.808C411.137 225.116 407.342 230.842 402.521 235.637C397.141 241.143 393.746 248.283 392.873 255.931L389.096 285.913H344.887L341.11 255.912C340.193 248.179 336.754 240.964 331.324 235.383C325.526 229.551 321.246 222.386 318.86 214.517C316.473 206.647 316.053 198.312 317.635 190.242C319.218 182.172 322.755 174.613 327.937 168.228C333.119 161.842 339.788 156.824 347.359 153.615C354.931 150.405 363.174 149.1 371.366 149.816C379.559 150.531 387.451 153.244 394.351 157.718C401.252 162.192 406.95 168.289 410.947 175.476C414.944 182.663 417.117 190.721 417.277 198.943Z" fill="#D6EBFF"/>
<path d="M367.001 233.387C365.705 233.387 364.437 233.003 363.359 232.282C362.281 231.562 361.441 230.538 360.944 229.34C360.448 228.142 360.318 226.824 360.571 225.552C360.824 224.281 361.449 223.112 362.366 222.195C363.282 221.279 364.451 220.654 365.722 220.401C366.994 220.148 368.312 220.278 369.51 220.774C370.708 221.271 371.732 222.111 372.453 223.189C373.173 224.267 373.557 225.535 373.557 226.831C373.557 227.692 373.388 228.545 373.058 229.34C372.729 230.136 372.246 230.858 371.637 231.467C371.028 232.076 370.306 232.559 369.51 232.888C368.715 233.218 367.862 233.387 367.001 233.387ZM367.001 221.978C366.038 221.978 365.095 222.264 364.294 222.799C363.493 223.335 362.868 224.096 362.499 224.986C362.13 225.877 362.034 226.856 362.222 227.802C362.41 228.747 362.874 229.615 363.556 230.297C364.237 230.978 365.105 231.442 366.051 231.63C366.996 231.818 367.976 231.722 368.866 231.353C369.757 230.984 370.518 230.36 371.053 229.558C371.589 228.757 371.874 227.815 371.874 226.851C371.88 226.208 371.757 225.57 371.515 224.974C371.272 224.378 370.914 223.836 370.461 223.38C370.008 222.923 369.469 222.561 368.875 222.313C368.282 222.066 367.645 221.939 367.001 221.939V221.978Z" fill="white"/>
<path d="M367.001 284.975C366.778 284.975 366.563 284.886 366.406 284.728C366.248 284.57 366.159 284.356 366.159 284.133V232.546C366.159 232.322 366.248 232.108 366.406 231.951C366.563 231.793 366.778 231.704 367.001 231.704C367.224 231.704 367.438 231.793 367.596 231.951C367.754 232.108 367.842 232.322 367.842 232.546V284.153C367.837 284.372 367.746 284.581 367.589 284.735C367.432 284.889 367.221 284.975 367.001 284.975Z" fill="white"/>
<path d="M367.001 217.241C366.778 217.241 366.563 217.153 366.406 216.995C366.248 216.837 366.159 216.623 366.159 216.4V207.906C366.159 207.683 366.248 207.469 366.406 207.311C366.563 207.153 366.778 207.065 367.001 207.065C367.224 207.065 367.438 207.153 367.596 207.311C367.754 207.469 367.842 207.683 367.842 207.906V216.38C367.845 216.492 367.825 216.604 367.784 216.708C367.743 216.813 367.681 216.908 367.603 216.988C367.524 217.068 367.431 217.132 367.327 217.175C367.224 217.219 367.113 217.241 367.001 217.241Z" fill="white"/>
<path d="M374.378 220.294C374.214 220.291 374.054 220.24 373.918 220.148C373.783 220.055 373.677 219.925 373.615 219.773C373.553 219.621 373.536 219.454 373.567 219.293C373.598 219.132 373.676 218.983 373.791 218.866L379.779 212.877C379.857 212.799 379.951 212.737 380.053 212.694C380.155 212.652 380.265 212.63 380.376 212.63C380.487 212.63 380.597 212.652 380.699 212.694C380.801 212.737 380.894 212.799 380.973 212.877C381.051 212.956 381.113 213.049 381.156 213.151C381.198 213.254 381.22 213.363 381.22 213.474C381.22 213.585 381.198 213.695 381.156 213.797C381.113 213.9 381.051 213.993 380.973 214.071L374.965 219.981C374.893 220.071 374.804 220.144 374.704 220.198C374.603 220.252 374.492 220.285 374.378 220.294Z" fill="white"/>
<path d="M385.926 227.673H377.452C377.229 227.673 377.015 227.584 376.857 227.426C376.699 227.268 376.61 227.054 376.61 226.831C376.61 226.608 376.699 226.394 376.857 226.236C377.015 226.078 377.229 225.99 377.452 225.99H385.926C386.149 225.99 386.363 226.078 386.521 226.236C386.679 226.394 386.767 226.608 386.767 226.831C386.767 227.054 386.679 227.268 386.521 227.426C386.363 227.584 386.149 227.673 385.926 227.673Z" fill="white"/>
<path d="M380.387 241.039C380.166 241.034 379.955 240.943 379.8 240.784L373.812 234.796C373.653 234.637 373.564 234.423 373.564 234.199C373.564 233.975 373.653 233.76 373.812 233.602C373.97 233.444 374.185 233.355 374.409 233.355C374.632 233.355 374.847 233.444 375.005 233.602L380.994 239.59C381.117 239.708 381.201 239.86 381.235 240.026C381.27 240.193 381.253 240.366 381.187 240.523C381.122 240.679 381.01 240.812 380.867 240.905C380.725 240.997 380.557 241.043 380.387 241.039Z" fill="white"/>
<path d="M353.614 241.039C353.45 241.035 353.29 240.984 353.155 240.892C353.019 240.799 352.914 240.669 352.851 240.517C352.789 240.365 352.772 240.198 352.803 240.037C352.835 239.876 352.912 239.727 353.027 239.61L359.015 233.621C359.094 233.543 359.187 233.481 359.289 233.438C359.392 233.396 359.501 233.374 359.612 233.374C359.723 233.374 359.833 233.396 359.935 233.438C360.038 233.481 360.131 233.543 360.209 233.621C360.288 233.7 360.35 233.793 360.392 233.895C360.435 233.998 360.456 234.107 360.456 234.218C360.456 234.329 360.435 234.439 360.392 234.541C360.35 234.644 360.288 234.737 360.209 234.815L354.221 240.804C354.14 240.881 354.045 240.942 353.941 240.982C353.837 241.022 353.726 241.042 353.614 241.039Z" fill="white"/>
<path d="M356.568 227.673H348.094C347.871 227.673 347.657 227.584 347.499 227.426C347.342 227.268 347.253 227.054 347.253 226.831C347.253 226.608 347.342 226.394 347.499 226.236C347.657 226.078 347.871 225.99 348.094 225.99H356.568C356.792 225.99 357.006 226.078 357.163 226.236C357.321 226.394 357.41 226.608 357.41 226.831C357.41 227.054 357.321 227.268 357.163 227.426C357.006 227.584 356.792 227.673 356.568 227.673Z" fill="white"/>
<path d="M359.623 220.294C359.401 220.29 359.19 220.199 359.036 220.04L353.027 214.11C352.949 214.032 352.887 213.939 352.844 213.836C352.802 213.734 352.78 213.624 352.78 213.513C352.78 213.402 352.802 213.292 352.844 213.19C352.887 213.088 352.949 212.995 353.027 212.916C353.106 212.838 353.199 212.776 353.301 212.733C353.404 212.691 353.514 212.669 353.624 212.669C353.735 212.669 353.845 212.691 353.947 212.733C354.05 212.776 354.143 212.838 354.221 212.916L360.21 218.905C360.312 219.024 360.379 219.169 360.404 219.324C360.428 219.479 360.409 219.637 360.348 219.782C360.287 219.926 360.186 220.051 360.058 220.141C359.93 220.232 359.779 220.285 359.623 220.294Z" fill="white"/>
<path d="M391.581 297.01C390.966 297.645 390.175 298.081 389.311 298.262C390.255 298.303 391.147 298.71 391.798 299.396C392.448 300.083 392.805 300.996 392.794 301.941C392.781 303.02 392.362 304.055 391.62 304.838C390.861 305.629 389.836 306.11 388.743 306.188L345.453 309.261C344.942 309.313 344.425 309.257 343.936 309.097C343.447 308.936 342.997 308.675 342.615 308.331C342.234 307.986 341.928 307.565 341.719 307.094C341.511 306.624 341.403 306.116 341.402 305.601C341.409 304.517 341.837 303.478 342.596 302.705C343.211 302.056 344.01 301.612 344.886 301.433C343.943 301.387 343.054 300.979 342.405 300.293C341.755 299.608 341.396 298.698 341.402 297.753C341.422 296.757 341.785 295.798 342.431 295.038C343.076 294.278 343.964 293.765 344.945 293.585C343.991 293.554 343.087 293.153 342.426 292.465C341.764 291.778 341.397 290.86 341.402 289.906C341.412 288.828 341.84 287.796 342.596 287.029C343.34 286.226 344.362 285.736 345.453 285.659L388.704 282.606C389.217 282.554 389.736 282.61 390.226 282.772C390.717 282.933 391.167 283.196 391.549 283.543C391.931 283.89 392.236 284.313 392.444 284.786C392.652 285.258 392.758 285.769 392.755 286.285C392.747 287.359 392.327 288.389 391.581 289.162C390.976 289.813 390.182 290.258 389.311 290.434C390.266 290.46 391.173 290.86 391.835 291.548C392.498 292.237 392.863 293.158 392.853 294.113C392.824 295.208 392.367 296.248 391.581 297.01Z" fill="#7BB1FF"/>
<path d="M346.471 294.348C346.211 294.348 345.962 294.245 345.779 294.061C345.595 293.878 345.492 293.629 345.492 293.369C345.492 293.11 345.595 292.861 345.779 292.678C345.962 292.494 346.211 292.391 346.471 292.391L387.353 289.455C387.612 289.439 387.866 289.524 388.064 289.692C388.261 289.86 388.385 290.098 388.41 290.356C388.421 290.484 388.406 290.614 388.366 290.736C388.327 290.859 388.263 290.973 388.18 291.071C388.096 291.17 387.994 291.25 387.879 291.309C387.764 291.367 387.638 291.403 387.51 291.412L346.549 294.348H346.471Z" fill="#4B4B63"/>
<path d="M346.471 302.177C346.211 302.177 345.962 302.074 345.779 301.89C345.595 301.706 345.492 301.458 345.492 301.198C345.492 300.939 345.595 300.69 345.779 300.506C345.962 300.323 346.211 300.22 346.471 300.22L386.844 297.206C387.104 297.188 387.36 297.273 387.556 297.444C387.753 297.615 387.873 297.856 387.891 298.116C387.909 298.375 387.824 298.631 387.653 298.828C387.482 299.024 387.241 299.145 386.981 299.163L346.549 302.177H346.471Z" fill="#4B4B63"/>
<path d="M401.367 185.054C404.937 181.594 403.161 173.969 397.399 168.024C391.637 162.078 384.072 160.063 380.502 163.523C376.932 166.983 378.708 174.608 384.469 180.554C390.231 186.499 397.796 188.514 401.367 185.054Z" fill="#EFF7FF"/>
<path d="M374.301 67L370.641 134.537H363.283L359.623 67H374.301Z" fill="#D6EBFF"/>
<path d="M278.112 100.798L323.261 151.133L318.075 156.339L267.74 111.19L278.112 100.798Z" fill="#D6EBFF"/>
<path d="M234 192.719L301.518 196.379V203.737L234 207.397V192.719Z" fill="#D6EBFF"/>
<path d="M267.778 288.908L318.133 243.739L323.319 248.945L278.17 299.28L267.778 288.908Z" fill="#D6EBFF"/>
<path d="M455.889 299.221L410.721 248.886L415.926 243.681L466.261 288.849L455.889 299.221Z" fill="#D6EBFF"/>
<path d="M500 207.319L432.482 203.659V196.301L500 192.641V207.319Z" fill="#D6EBFF"/>
<path d="M466.221 111.131L415.867 156.28L410.681 151.074L455.829 100.739L466.221 111.131Z" fill="#D6EBFF"/>
<path d="M245.135 821.122C245.135 821.122 222.317 649.882 215.134 604.205C215.134 604.205 205.349 460.696 242.533 458.073C279.716 455.451 294.727 496.568 297.33 524.612C299.932 552.657 283.63 785.543 276.448 822.081L245.135 821.122Z" fill="#9393A1"/>
<path d="M292.692 521.227C292.563 521.258 292.429 521.258 292.301 521.227C276.958 513.399 272.946 493.124 272.73 492.263C272.713 492.056 272.774 491.85 272.899 491.685C273.025 491.519 273.208 491.407 273.412 491.368C273.616 491.329 273.827 491.367 274.004 491.474C274.182 491.582 274.314 491.751 274.374 491.95C274.374 492.145 278.406 512.185 293.025 519.739C293.151 519.837 293.247 519.969 293.302 520.12C293.356 520.27 293.366 520.433 293.331 520.589C293.296 520.745 293.218 520.888 293.104 521.001C292.991 521.114 292.848 521.192 292.692 521.227Z" fill="#EFF7FF"/>
<path d="M254.276 819.674C254.066 819.675 253.863 819.597 253.707 819.456C253.551 819.314 253.454 819.12 253.434 818.911C245.215 718.809 229.128 579.135 228.972 577.726C228.946 577.611 228.946 577.493 228.969 577.378C228.993 577.262 229.04 577.154 229.108 577.058C229.177 576.962 229.264 576.882 229.365 576.822C229.466 576.762 229.579 576.724 229.695 576.711C229.812 576.697 229.93 576.708 230.042 576.742C230.155 576.777 230.258 576.835 230.347 576.912C230.435 576.989 230.507 577.084 230.556 577.191C230.606 577.297 230.633 577.413 230.635 577.53C230.792 578.92 246.878 718.632 255.098 818.754C255.114 818.974 255.043 819.192 254.901 819.36C254.758 819.529 254.555 819.634 254.335 819.654L254.276 819.674Z" fill="#EFF7FF"/>
<path d="M231.535 553.753C231.337 553.759 231.143 553.695 230.988 553.572C230.833 553.449 230.726 553.275 230.686 553.081C230.646 552.887 230.676 552.685 230.771 552.511C230.865 552.337 231.018 552.201 231.203 552.129C237.269 549.604 244.041 546.101 244.413 544.829C244.941 542.989 246.135 510.307 246.82 488.78C246.817 488.668 246.837 488.556 246.88 488.452C246.923 488.349 246.987 488.255 247.068 488.178C247.149 488.1 247.245 488.041 247.351 488.003C247.457 487.965 247.569 487.949 247.681 487.958C247.791 487.96 247.9 487.985 248.001 488.029C248.103 488.074 248.194 488.138 248.27 488.218C248.346 488.298 248.406 488.392 248.446 488.495C248.486 488.598 248.505 488.708 248.503 488.819C248.327 494.338 246.761 542.813 246.017 545.299C245.274 547.784 234.96 552.364 231.829 553.655C231.738 553.706 231.638 553.739 231.535 553.753Z" fill="#EFF7FF"/>
<path d="M173.548 485.413C173.548 485.413 163.763 495.942 163.528 498.134C163.293 500.326 120.474 760.141 114.603 831.886H143.312C143.312 831.886 233.981 573.558 235.938 562.462C237.896 551.365 239.853 486.783 239.207 468.524C238.561 450.265 192.629 452.711 173.548 485.413Z" fill="#9393A1"/>
<path d="M236.017 563.303H235.86C235.751 563.284 235.646 563.244 235.553 563.184C235.459 563.125 235.378 563.047 235.314 562.957C235.251 562.866 235.206 562.763 235.182 562.654C235.158 562.546 235.156 562.434 235.175 562.325C236.663 553.929 238.248 512.753 238.522 484.944C238.513 484.831 238.529 484.718 238.568 484.611C238.607 484.505 238.669 484.409 238.749 484.329C238.829 484.249 238.925 484.187 239.031 484.148C239.137 484.109 239.251 484.093 239.364 484.102C239.583 484.107 239.792 484.198 239.946 484.355C240.1 484.513 240.185 484.724 240.185 484.944C239.951 509.876 238.424 553.44 236.819 562.599C236.788 562.791 236.691 562.966 236.544 563.094C236.398 563.223 236.212 563.297 236.017 563.303Z" fill="#EFF7FF"/>
<path d="M164.742 526.12C164.519 526.12 164.305 526.031 164.147 525.873C163.989 525.715 163.9 525.501 163.9 525.278C163.9 525.055 163.989 524.841 164.147 524.683C164.305 524.525 164.519 524.437 164.742 524.437C165.505 524.437 183.686 522.93 187.443 499.211C187.458 499.1 187.494 498.994 187.551 498.898C187.607 498.802 187.682 498.719 187.772 498.653C187.862 498.587 187.964 498.54 188.072 498.515C188.181 498.49 188.293 498.487 188.402 498.506C188.623 498.54 188.821 498.66 188.953 498.84C189.085 499.019 189.141 499.244 189.107 499.465C185.193 524.554 165.055 526.081 164.84 526.1L164.742 526.12Z" fill="#EFF7FF"/>
<path d="M142.725 814.781H142.451C142.241 814.71 142.069 814.559 141.97 814.361C141.871 814.164 141.854 813.935 141.922 813.725L223.628 573.01C223.657 572.897 223.709 572.791 223.781 572.7C223.852 572.608 223.942 572.532 224.045 572.477C224.147 572.422 224.26 572.388 224.376 572.379C224.492 572.37 224.609 572.384 224.719 572.422C224.829 572.46 224.93 572.521 225.015 572.6C225.1 572.679 225.169 572.775 225.215 572.882C225.262 572.988 225.285 573.103 225.285 573.22C225.285 573.336 225.26 573.451 225.213 573.558L143.507 814.273C143.442 814.425 143.332 814.555 143.193 814.646C143.054 814.736 142.891 814.783 142.725 814.781Z" fill="#EFF7FF"/>
<path d="M290.97 317.598C290.97 317.598 331.421 365.585 348.624 416.585C350.097 420.972 349.859 425.753 347.958 429.971C342.087 442.907 331.128 469.836 324.474 473.75C317.82 477.664 292.183 469.503 292.672 457.761C293.161 446.019 301.772 417.153 301.772 417.153C301.772 417.153 278.777 390.733 261.653 366.759C244.529 342.785 263.082 297.774 290.97 317.598Z" fill="#7BB1FF"/>
<path d="M331.578 419.598C331.407 419.602 331.239 419.562 331.089 419.48C315.335 410.596 304.845 417.719 304.727 417.797C304.622 417.879 304.502 417.938 304.374 417.971C304.245 418.005 304.111 418.011 303.98 417.991C303.849 417.971 303.723 417.925 303.61 417.854C303.497 417.784 303.4 417.692 303.324 417.583C303.249 417.474 303.196 417.35 303.169 417.22C303.143 417.09 303.143 416.956 303.17 416.826C303.197 416.696 303.25 416.573 303.326 416.464C303.402 416.355 303.499 416.263 303.612 416.193C304.082 415.86 315.237 408.365 332.048 417.778C332.23 417.886 332.372 418.05 332.453 418.246C332.534 418.442 332.549 418.659 332.496 418.864C332.443 419.07 332.325 419.252 332.16 419.384C331.994 419.517 331.79 419.592 331.578 419.598Z" fill="#4B4B63"/>
<path d="M295.256 458.249L290.657 471.459C292.397 476.182 295.906 480.042 300.442 482.223C304.888 484.554 309.96 485.411 314.924 484.669L323.77 469.013C323.77 469.013 314.005 451.732 295.256 458.249Z" fill="#4B4B63"/>
<path d="M310.736 481.401C305.647 491.402 293.122 512.557 289.208 518.233C284.255 514.424 280.322 509.449 277.76 503.751C284.414 491.597 292.672 472.242 292.672 472.242C306 468.681 310.736 481.401 310.736 481.401Z" fill="#EEC5C4"/>
<path d="M223.452 288.242L205.722 287.733L209.244 251.919L209.381 250.432L223.198 252.507L223.296 265.09L223.452 288.242Z" fill="#EEC5C4"/>
<path d="M223.297 264.992C214.333 262.233 210.693 256.46 209.245 251.821L209.382 250.334L223.199 252.409L223.297 264.992Z" fill="#4B4B63"/>
<path d="M168.166 464.375C168.91 464.375 168.42 488.349 169.145 488.349C169.869 488.349 185.544 494.475 202.179 493.731C218.814 492.987 270.675 491.539 284.864 481.754L285.607 457.291C248.404 469.581 209.264 471.069 168.166 464.375Z" fill="#4B4B63"/>
<path d="M227.327 468.309C227.327 468.309 227.816 492.557 227.797 493.535C227.777 494.514 256.33 492.674 257.446 492.224C258.561 491.774 257.857 466.293 257.857 466.293C257.857 466.293 246.937 467.663 227.327 468.309Z" fill="#D6EBFF"/>
<path d="M183.098 465.099C183.098 465.099 182.726 493.241 183.098 493.848C183.47 494.455 190.202 495.081 190.202 495.081C190.202 495.081 190.084 465.354 189.713 465.236C189.341 465.119 183.705 464.238 183.098 465.099Z" fill="#D6EBFF"/>
<path d="M203.158 466.45C203.158 466.45 202.787 494.592 203.158 495.199C203.53 495.805 209.773 495.199 209.773 495.199C209.773 495.199 210.145 466.704 209.773 466.587C209.401 466.469 203.765 465.589 203.158 466.45Z" fill="#D6EBFF"/>
<path d="M276.097 459.209C276.097 459.209 276.371 487.292 276.097 487.958C275.823 488.623 271.106 488.819 271.106 488.819C271.106 488.819 270.832 460.363 271.106 460.187C271.38 460.011 275.627 458.446 276.097 459.209Z" fill="#D6EBFF"/>
<path d="M191.534 275.267C199.708 271.931 208.542 270.527 217.347 271.165C226.153 271.803 234.692 274.466 242.3 278.946L240.832 294.857L194.724 297.91L191.534 275.267Z" fill="#4B4B63"/>
<path d="M293.416 454.825L286.332 459.952C286.332 459.952 237.152 477.33 167.931 468.035L152.999 454.335C153.25 439.359 152.524 424.382 150.827 409.5C150.082 403.074 148.845 396.714 147.128 390.477C147.128 390.34 147.128 390.184 146.991 390.008C144.369 380.673 143.077 366.269 142.294 352.198C141.746 340.945 141.609 329.927 141.609 321.883C141.609 314.388 141.746 309.515 141.746 309.515C142.49 309.515 180.398 288.242 215.879 287.733C251.36 287.224 290.97 317.598 290.97 317.598C290.97 317.598 299.777 394.157 293.416 454.825Z" fill="#7BB1FF"/>
<path d="M295.725 405.156C295.466 405.156 295.217 405.053 295.034 404.869C294.85 404.686 294.747 404.437 294.747 404.177C294.747 368.716 291.851 335.975 290.618 323.567C290.604 323.438 290.616 323.308 290.653 323.184C290.69 323.061 290.752 322.945 290.834 322.845C290.915 322.745 291.016 322.662 291.13 322.601C291.245 322.541 291.37 322.503 291.498 322.491C291.757 322.469 292.014 322.548 292.215 322.713C292.416 322.877 292.545 323.113 292.575 323.371C293.808 335.818 296.684 368.618 296.724 404.177C296.724 404.437 296.62 404.686 296.437 404.869C296.253 405.053 296.005 405.156 295.745 405.156H295.725Z" fill="#4B4B63"/>
<path d="M160.495 358.597C159.497 372.688 156.992 396.407 150.827 409.48C150.082 403.054 148.845 396.695 147.128 390.458C147.128 390.321 147.128 390.164 146.991 389.988C144.369 380.653 143.077 366.249 142.294 352.178C141.746 340.925 141.609 329.907 141.609 321.864C146.383 325.486 150.534 329.862 153.9 334.819C158.771 341.749 161.101 350.148 160.495 358.597Z" fill="#4B4B63"/>
<path d="M249.872 464.121C249.744 464.116 249.617 464.085 249.501 464.031C249.384 463.978 249.279 463.901 249.192 463.807C249.104 463.712 249.037 463.601 248.992 463.481C248.948 463.36 248.928 463.232 248.933 463.103C253.277 368.05 219.029 293.311 218.697 292.567C218.643 292.45 218.612 292.324 218.607 292.195C218.602 292.067 218.622 291.938 218.667 291.817C218.711 291.696 218.779 291.586 218.867 291.491C218.954 291.396 219.059 291.32 219.176 291.266C219.293 291.212 219.42 291.182 219.548 291.176C219.677 291.171 219.805 291.192 219.926 291.236C220.047 291.281 220.158 291.349 220.253 291.436C220.347 291.523 220.424 291.628 220.478 291.745C220.83 292.489 255.274 367.678 250.909 463.201C250.902 463.329 250.869 463.455 250.813 463.571C250.757 463.687 250.678 463.791 250.582 463.876C250.485 463.962 250.373 464.027 250.251 464.069C250.13 464.111 250.001 464.129 249.872 464.121Z" fill="#4B4B63"/>
<path d="M257.212 464.121C257.083 464.116 256.957 464.085 256.84 464.031C256.723 463.977 256.618 463.901 256.531 463.807C256.444 463.712 256.376 463.601 256.332 463.48C256.287 463.36 256.267 463.231 256.272 463.103C260.617 368.089 227.093 294.27 226.76 293.546C226.706 293.429 226.676 293.302 226.671 293.174C226.666 293.045 226.686 292.917 226.73 292.796C226.775 292.675 226.843 292.564 226.93 292.469C227.018 292.375 227.123 292.298 227.24 292.244C227.357 292.19 227.483 292.16 227.612 292.155C227.74 292.15 227.869 292.17 227.99 292.215C228.111 292.259 228.221 292.327 228.316 292.414C228.411 292.502 228.487 292.607 228.541 292.724C228.874 293.467 262.593 367.678 258.229 463.201C258.214 463.457 258.099 463.697 257.909 463.869C257.718 464.041 257.468 464.131 257.212 464.121Z" fill="#4B4B63"/>
<path d="M168.167 452.046C168.038 452.043 167.911 452.016 167.794 451.964C167.676 451.912 167.569 451.838 167.48 451.746C167.391 451.653 167.321 451.544 167.275 451.424C167.228 451.304 167.205 451.176 167.208 451.048C167.697 429.207 159.79 378.011 159.712 377.503C159.673 377.243 159.739 376.979 159.895 376.768C160.051 376.557 160.284 376.416 160.544 376.377C160.803 376.338 161.068 376.404 161.279 376.56C161.49 376.716 161.63 376.95 161.669 377.209C161.669 377.718 169.673 429.09 169.184 451.087C169.182 451.217 169.153 451.346 169.1 451.465C169.048 451.584 168.972 451.691 168.877 451.78C168.782 451.87 168.67 451.939 168.548 451.985C168.426 452.03 168.297 452.051 168.167 452.046Z" fill="#4B4B63"/>
<path d="M141.746 309.515L85.4814 366.523L62.4863 435.254C62.4863 435.254 107.752 429.148 149.829 384.137C157.411 372.06 161.321 358.04 161.082 343.783C161.096 336.887 159.322 330.105 155.934 324.099C152.545 318.093 147.656 313.068 141.746 309.515Z" fill="#7BB1FF"/>
<path d="M149.809 385.116C149.629 385.117 149.452 385.068 149.298 384.975C149.144 384.882 149.019 384.748 148.936 384.588C148.853 384.428 148.815 384.248 148.828 384.069C148.841 383.889 148.903 383.716 149.007 383.569C156.437 371.643 160.282 357.833 160.084 343.783C160.084 337.975 158.792 332.24 156.3 326.993C153.809 321.746 150.181 317.12 145.68 313.449C145.509 313.277 145.408 313.048 145.396 312.806C145.384 312.564 145.462 312.326 145.616 312.139C145.769 311.951 145.987 311.827 146.227 311.791C146.466 311.754 146.711 311.808 146.913 311.942C151.639 315.795 155.448 320.651 158.064 326.158C160.681 331.665 162.039 337.686 162.041 343.783C162.219 358.243 158.231 372.45 150.553 384.705C150.468 384.825 150.357 384.924 150.228 384.995C150.099 385.066 149.956 385.107 149.809 385.116Z" fill="#4B4B63"/>
<path d="M74.2282 310.494C74.2282 310.494 61.9968 321.747 56.8694 330.808C51.7419 339.869 42.446 396.368 45.1272 411.301C47.8083 426.233 62.486 435.255 62.486 435.255C62.486 435.255 89.8845 424.98 94.777 399.793C99.6696 374.606 101.392 344.018 100.648 336.679C99.9045 329.34 94.2878 318.342 94.2878 318.342L74.2282 310.494Z" fill="#7BB1FF"/>
<path d="M77.5754 427.427C77.3733 427.425 77.1764 427.362 77.0119 427.244C76.8475 427.126 76.7235 426.961 76.657 426.77C76.5905 426.579 76.5848 426.372 76.6406 426.178C76.6964 425.984 76.811 425.811 76.9687 425.685C86.2255 418.365 91.8813 409.618 93.8188 399.695C96.2666 386.492 97.9914 373.164 98.9853 359.772C98.9926 359.642 99.0261 359.516 99.0838 359.399C99.1414 359.283 99.2221 359.18 99.3209 359.096C99.4198 359.011 99.5346 358.948 99.6586 358.91C99.7826 358.871 99.913 358.858 100.042 358.872C100.171 358.882 100.296 358.917 100.411 358.975C100.526 359.034 100.628 359.115 100.712 359.213C100.796 359.311 100.859 359.425 100.899 359.548C100.938 359.671 100.953 359.8 100.942 359.929C99.9447 373.379 98.2134 386.766 95.7562 400.028C93.7992 410.42 87.9281 419.598 78.143 427.192C77.9839 427.329 77.7849 427.411 77.5754 427.427Z" fill="#4B4B63"/>
<path d="M76.0293 299.887L70.1582 316.032C73.556 319.366 77.6279 321.935 82.1004 323.565C86.5729 325.196 91.3425 325.85 96.0889 325.485L101.627 309.496C101.627 309.496 94.1318 295.66 76.0293 299.887Z" fill="#4B4B63"/>
<path d="M113.975 265.364L104.073 288.594L97.2232 309.632C84.6199 310.239 79.3555 302.059 79.3555 302.059L88.1621 287.733L87.9273 264.503C87.9273 264.503 92.8198 250.922 93.9158 250.55C97.1719 250.279 100.445 250.279 103.701 250.55L107.087 222.603C107.135 222.198 107.263 221.806 107.464 221.45C107.665 221.095 107.934 220.782 108.256 220.531C108.578 220.28 108.946 220.095 109.34 219.987C109.734 219.879 110.145 219.851 110.551 219.903C111.291 219.992 111.975 220.347 112.475 220.901C112.975 221.454 113.257 222.17 113.271 222.916L113.975 265.364Z" fill="#EEC5C4"/>
<path d="M103.82 271.529C103.526 271.553 103.232 271.553 102.939 271.529C99.201 270.923 98.8487 265.032 98.8096 264.366C98.8096 264.107 98.9127 263.858 99.0962 263.675C99.2797 263.491 99.5286 263.388 99.7881 263.388C100.048 263.388 100.297 263.491 100.48 263.675C100.664 263.858 100.767 264.107 100.767 264.366C100.767 265.658 101.393 269.376 103.252 269.69C104.612 269.738 105.952 269.345 107.07 268.569C108.189 267.793 109.025 266.676 109.456 265.384C109.76 261.218 109.403 257.031 108.399 252.977C108.066 252.115 105.346 251.548 103.585 251.509C103.456 251.504 103.33 251.473 103.213 251.42C103.096 251.366 102.991 251.289 102.904 251.195C102.817 251.1 102.749 250.989 102.705 250.869C102.66 250.748 102.64 250.62 102.645 250.491C102.677 250.24 102.797 250.008 102.983 249.836C103.169 249.664 103.41 249.564 103.663 249.552C104.602 249.552 109.338 249.845 110.258 252.292C111.38 256.706 111.764 261.275 111.393 265.815C110.869 267.429 109.861 268.842 108.506 269.865C107.152 270.887 105.516 271.468 103.82 271.529Z" fill="#4B4B63"/>
<path d="M100.805 282.117H100.649C100.521 282.096 100.399 282.05 100.29 281.981C100.18 281.912 100.086 281.823 100.011 281.717C99.9364 281.611 99.8834 281.492 99.8552 281.366C99.8269 281.24 99.8239 281.11 99.8464 280.982C100.676 276.652 100.4 272.183 99.044 267.988C98.948 267.746 98.9518 267.477 99.0545 267.238C99.1573 266.999 99.3506 266.812 99.592 266.715C99.8333 266.619 100.103 266.623 100.341 266.726C100.58 266.829 100.768 267.022 100.864 267.263C102.365 271.793 102.675 276.631 101.764 281.315C101.723 281.54 101.605 281.743 101.43 281.889C101.255 282.036 101.034 282.116 100.805 282.117Z" fill="#4B4B63"/>
<path d="M99.6707 268.613C98.4323 268.621 97.2269 268.214 96.2458 267.459C96.0486 267.29 95.9265 267.05 95.9063 266.791C95.8861 266.532 95.9695 266.276 96.1382 266.079C96.3069 265.882 96.547 265.76 96.8058 265.739C97.0645 265.719 97.3207 265.803 97.5179 265.971C97.9054 266.255 98.3456 266.458 98.8128 266.569C99.28 266.68 99.7646 266.696 100.238 266.617C100.498 266.578 100.762 266.644 100.973 266.8C101.184 266.956 101.325 267.189 101.363 267.449C101.402 267.708 101.337 267.973 101.181 268.184C101.025 268.395 100.791 268.535 100.532 268.574C100.246 268.608 99.9583 268.621 99.6707 268.613Z" fill="#4B4B63"/>
<path d="M105.208 266.147C104.952 266.148 104.706 266.047 104.523 265.868C104.34 265.689 104.235 265.445 104.229 265.189C104.336 263.122 104.009 261.055 103.27 259.122C100.448 259.026 97.6237 259.203 94.8356 259.65C94.7071 259.667 94.5766 259.658 94.4515 259.624C94.3264 259.591 94.2092 259.533 94.1065 259.453C93.8991 259.294 93.7637 259.058 93.7299 258.799C93.6962 258.539 93.7669 258.277 93.9266 258.07C94.0862 257.862 94.3217 257.727 94.5812 257.693C96.4208 257.458 102.527 256.734 104.053 257.321C105.58 257.908 106.128 261.92 106.186 265.149C106.189 265.278 106.166 265.406 106.119 265.525C106.073 265.645 106.003 265.754 105.914 265.847C105.825 265.94 105.718 266.014 105.6 266.066C105.483 266.117 105.356 266.145 105.227 266.147H105.208Z" fill="#4B4B63"/>
<path d="M107.988 261.528C107.735 261.529 107.492 261.431 107.31 261.256C107.127 261.081 107.02 260.842 107.01 260.589C106.912 258.182 106.286 255.227 105.562 254.855C102.855 254.368 100.089 254.302 97.3616 254.659C97.2331 254.671 97.1035 254.657 96.9804 254.618C96.8572 254.58 96.7429 254.517 96.6438 254.435C96.4438 254.268 96.3183 254.028 96.295 253.769C96.2716 253.509 96.3523 253.251 96.5193 253.051C96.6863 252.851 96.9259 252.725 97.1854 252.702C98.3988 252.604 104.603 252.115 106.481 253.113C108.36 254.111 108.888 258.984 108.947 260.491C108.952 260.62 108.932 260.748 108.888 260.869C108.844 260.989 108.776 261.1 108.689 261.195C108.601 261.289 108.496 261.366 108.379 261.419C108.263 261.473 108.136 261.504 108.008 261.509L107.988 261.528Z" fill="#4B4B63"/>
<path d="M105.913 264.621C106.07 265.741 106.498 266.806 107.159 267.724C107.821 268.641 108.696 269.383 109.71 269.885C106.2 272.408 103.691 276.088 102.626 280.277C100.669 287.499 102.391 288.849 102.391 288.849L112.019 285.542C113.038 285.193 113.976 284.643 114.776 283.923C115.576 283.204 116.223 282.329 116.677 281.353C119.241 275.795 124.388 264.562 124.662 262.918C125.034 260.726 122.333 259.376 119.28 260.355C116.227 261.333 106.148 263.525 105.913 264.621Z" fill="#EEC5C4"/>
<path d="M112.861 271.196C112.333 271.23 111.803 271.23 111.275 271.196C109.617 271.124 108.046 270.433 106.872 269.259C105.698 268.085 105.007 266.514 104.935 264.856C104.901 264.607 104.964 264.355 105.111 264.151C105.326 263.857 106.716 262.37 112.939 261.137C113.198 261.088 113.467 261.144 113.685 261.292C113.904 261.441 114.054 261.67 114.103 261.93C114.153 262.189 114.097 262.458 113.948 262.676C113.8 262.894 113.57 263.045 113.311 263.094C111.078 263.403 108.918 264.105 106.931 265.169C107.032 266.28 107.538 267.316 108.354 268.077C109.17 268.839 110.238 269.274 111.354 269.298C113.44 269.503 115.547 269.27 117.538 268.613C117.785 268.53 118.054 268.548 118.287 268.664C118.52 268.779 118.698 268.983 118.781 269.229C118.864 269.476 118.845 269.745 118.73 269.978C118.614 270.212 118.411 270.389 118.164 270.472C116.446 270.994 114.656 271.238 112.861 271.196Z" fill="#4B4B63"/>
<path d="M196.21 238.729C196.21 238.729 205.173 250.628 209.909 254.053C214.645 257.478 230.145 261.079 234.705 258.143C239.265 255.208 236.505 219.335 236.505 219.335C236.505 219.335 224.431 201.878 206.661 209.55C188.891 217.222 196.21 238.729 196.21 238.729Z" fill="#EEC5C4"/>
<path d="M247.758 223.249C230.458 227.809 208.931 217.691 208.931 217.691C208.741 222.341 207.748 226.923 205.995 231.234L209.498 239.062L200.457 245.09C200.457 245.09 169.966 236.459 169.79 232.545C169.614 228.631 175.661 201.546 178.773 200.411C183.665 199.411 188.622 198.757 193.607 198.454C196.216 190.678 199.558 183.169 203.588 176.026C210.692 179.196 207.247 188.923 207.032 189.53L231.162 162.014C250.243 165.262 246.486 182.876 246.486 182.876C251.466 179.049 257.494 176.83 263.767 176.515C270.91 189.314 265.039 218.67 247.758 223.249Z" fill="#4B4B63"/>
<path d="M204.899 243.642C203.972 241.196 202.272 239.12 200.057 237.728C197.843 236.337 195.234 235.706 192.629 235.931C190.92 236.098 189.298 236.761 187.963 237.839C186.627 238.918 185.637 240.363 185.114 241.998C180.71 253.094 201.416 258.3 206.974 248.848L204.899 243.642Z" fill="#EEC5C4"/>
<path d="M203.882 248.475C203.725 248.476 203.571 248.439 203.431 248.368C203.291 248.296 203.171 248.192 203.08 248.065C197.913 240.686 189.596 244.327 189.244 244.483C189.011 244.571 188.753 244.567 188.523 244.472C188.293 244.376 188.108 244.197 188.005 243.97C187.903 243.743 187.891 243.485 187.972 243.25C188.053 243.014 188.221 242.818 188.441 242.702C188.539 242.702 198.618 238.24 204.685 246.949C204.784 247.096 204.841 247.266 204.851 247.443C204.861 247.62 204.822 247.796 204.74 247.952C204.658 248.109 204.535 248.24 204.383 248.332C204.232 248.425 204.059 248.474 203.882 248.475Z" fill="#4B4B63"/>
<path d="M195.31 250.491C195.076 250.489 194.851 250.403 194.675 250.248C194.499 250.094 194.384 249.881 194.351 249.65C194.023 247.196 194.224 244.7 194.938 242.33C195.039 242.107 195.22 241.93 195.445 241.834C195.67 241.737 195.923 241.729 196.154 241.81C196.385 241.891 196.578 242.056 196.693 242.272C196.808 242.488 196.839 242.739 196.778 242.976C196.168 245.044 195.994 247.217 196.269 249.356C196.289 249.483 196.283 249.613 196.252 249.738C196.221 249.863 196.166 249.981 196.09 250.084C196.013 250.188 195.917 250.275 195.807 250.342C195.697 250.408 195.575 250.452 195.447 250.472H195.31V250.491Z" fill="#4B4B63"/>
<path d="M212.219 231.097C212.219 231.097 213.256 225.226 217.718 226.028C217.718 226.028 217.444 223.406 218.442 223.093C219.44 222.78 220.536 227.339 220.536 227.339C217.54 228.023 214.712 229.301 212.219 231.097Z" fill="#4B4B63"/>
<path d="M233.825 226.537C233.825 226.537 232.338 221.39 230.048 223.719C230.048 223.719 229.774 221.136 229.187 221.214C227.856 221.41 228.737 225.93 228.737 225.93C230.451 225.517 232.257 225.732 233.825 226.537Z" fill="#4B4B63"/>
<path d="M231.692 247.751C230.692 249.109 229.521 250.333 228.208 251.391C226.036 253.074 223.315 253.955 221.593 250.276C220.971 248.896 220.556 247.432 220.36 245.931C220.36 245.931 223.746 248.26 231.692 247.751Z" fill="#4B4B63"/>
<path d="M228.228 251.294C226.056 252.977 223.335 253.858 221.613 250.179C222.728 249.852 223.903 249.782 225.049 249.975C226.195 250.168 227.282 250.62 228.228 251.294Z" fill="white"/>
<path d="M219.62 238.23C220.846 238.024 221.634 236.63 221.38 235.117C221.126 233.603 219.927 232.543 218.701 232.748C217.475 232.954 216.687 234.347 216.941 235.861C217.195 237.375 218.394 238.435 219.62 238.23Z" fill="#4B4B63"/>
<path d="M219.592 235.029C219.911 234.975 220.127 234.672 220.074 234.353C220.02 234.033 219.717 233.817 219.397 233.871C219.078 233.924 218.862 234.227 218.915 234.547C218.969 234.867 219.272 235.082 219.592 235.029Z" fill="white"/>
<path d="M232.645 236.065C233.871 235.859 234.658 234.465 234.405 232.952C234.151 231.438 232.951 230.378 231.725 230.583C230.5 230.789 229.712 232.183 229.965 233.696C230.219 235.21 231.419 236.27 232.645 236.065Z" fill="#4B4B63"/>
<path d="M232.631 232.845C232.95 232.791 233.166 232.489 233.113 232.169C233.059 231.849 232.756 231.633 232.436 231.687C232.117 231.741 231.901 232.043 231.955 232.363C232.008 232.683 232.311 232.899 232.631 232.845Z" fill="white"/>
<path d="M227.347 243.759H226.877C226.749 243.749 226.623 243.714 226.508 243.656C226.393 243.597 226.291 243.516 226.207 243.418C226.124 243.32 226.06 243.206 226.021 243.083C225.981 242.96 225.966 242.831 225.977 242.702C226.002 242.445 226.126 242.207 226.323 242.039C226.521 241.871 226.775 241.786 227.034 241.802C227.034 241.802 229.285 241.939 229.598 240.53C229.635 240.429 229.635 240.318 229.598 240.217C228.905 239.903 228.129 239.821 227.386 239.982C227.132 240.022 226.873 239.96 226.664 239.81C226.455 239.66 226.314 239.433 226.271 239.18L225.331 233.837C225.309 233.71 225.312 233.579 225.34 233.453C225.368 233.327 225.421 233.208 225.496 233.102C225.57 232.997 225.665 232.907 225.775 232.838C225.884 232.77 226.006 232.723 226.134 232.702C226.39 232.662 226.652 232.723 226.864 232.873C227.076 233.023 227.221 233.249 227.269 233.504L228.052 237.966C228.582 237.912 229.118 237.964 229.629 238.118C230.14 238.273 230.615 238.527 231.026 238.867C231.281 239.14 231.461 239.475 231.55 239.838C231.639 240.201 231.634 240.581 231.535 240.941C231.262 241.817 230.698 242.574 229.937 243.087C229.175 243.599 228.262 243.836 227.347 243.759Z" fill="#4B4B63"/>
</g>
<defs>
<clipPath id="clip0_62_955">
<rect width="517" height="593" fill="white"/>
</clipPath>
</defs>
</svg>
