<svg width="516" height="480" viewBox="0 0 516 480" fill="none" xmlns="http://www.w3.org/2000/svg">
<g clip-path="url(#clip0_120_1110)">
<path d="M463.467 480H10.6237C7.80611 480 5.10393 478.88 3.11161 476.887C1.11928 474.894 6.7217e-06 472.191 6.7217e-06 469.372C-0.00156397 467.976 0.272155 466.593 0.805488 465.303C1.33882 464.013 2.1213 462.84 3.10811 461.853C4.09492 460.866 5.26668 460.083 6.55632 459.549C7.84595 459.016 9.22812 458.742 10.6237 458.744H463.467C466.284 458.744 468.986 459.863 470.979 461.857C472.971 463.85 474.09 466.553 474.09 469.372C474.087 472.19 472.967 474.891 470.975 476.884C468.983 478.876 466.283 479.997 463.467 480Z" fill="#F2F2F2"/>
<path d="M467.393 271.58L466.82 271.234C453.081 263.233 436.883 260.152 421.27 256.295C406.767 252.712 390.485 247.935 379.348 237.331C365.812 224.482 367.698 206.784 372.902 190.686C378.369 173.789 383.526 156.784 381.115 138.847C378.29 118.024 368.995 98.6159 354.544 83.3656C331.864 59.5776 296.746 46.967 263.097 50.5257C217.94 55.3024 180.853 86.4705 152.694 120.206C134.216 142.346 123.318 167.484 102.238 188.513C81.408 209.292 58.012 228.016 40.477 251.566C17.1646 282.901 5.77702 322.882 13.3449 360.534C20.9128 398.187 48.594 432.579 86.493 446.169C110.629 454.827 137.105 455.006 162.888 455.077C216.508 455.209 270.199 455.352 323.64 451.28C358.805 448.605 394.448 443.948 426.486 429.964C458.524 415.98 486.898 391.464 497.402 359.603C507.859 327.945 497.02 289.242 467.393 271.58Z" fill="#D6EBFF"/>
<path d="M332.557 0.262682C330.924 0.595905 329.326 1.07962 327.782 1.70764C327.881 1.82187 327.972 1.94147 328.057 2.06589C328.353 2.54577 328.552 3.07932 328.642 3.63609C328.732 4.19286 328.712 4.76194 328.582 5.31085C328.453 5.85975 328.216 6.37773 327.886 6.8352C327.557 7.29267 327.14 7.68068 326.66 7.97707C326.181 8.27347 325.647 8.47244 325.091 8.56263C324.534 8.65282 323.965 8.63247 323.417 8.50273C322.868 8.37299 322.35 8.1364 321.893 7.80648C321.436 7.47656 321.048 7.05976 320.752 6.57989C320.667 6.43762 320.591 6.29003 320.525 6.13804C319.257 7.24715 318.098 8.47476 317.063 9.80417C317.218 9.80417 317.374 9.91164 317.517 9.98329C318.04 10.2338 318.506 10.5876 318.889 11.0233C319.271 11.4589 319.562 11.9676 319.743 12.5185C319.924 13.0694 319.991 13.6512 319.942 14.229C319.892 14.8068 319.726 15.3685 319.454 15.8804C319.181 16.3923 318.808 16.8438 318.357 17.2077C317.906 17.5716 317.385 17.8403 316.827 17.9979C316.27 18.1554 315.686 18.1983 315.111 18.1242C314.536 18.05 313.982 17.8602 313.482 17.5663C313.326 17.4752 313.174 17.3756 313.029 17.2678C312.471 18.8731 312.071 20.5288 311.835 22.2117C312.012 22.1753 312.192 22.1514 312.372 22.14C313.482 22.1454 314.547 22.5805 315.344 23.3541C316.141 24.1276 316.607 25.1796 316.646 26.2896C316.684 27.3996 316.292 28.4815 315.551 29.3086C314.81 30.1356 313.778 30.6436 312.671 30.7262C312.468 30.738 312.265 30.738 312.062 30.7262C312.384 32.4102 312.872 34.0582 313.518 35.6462C313.671 35.5097 313.835 35.3858 314.007 35.276C314.971 34.7351 316.106 34.5861 317.176 34.8602C318.246 35.1342 319.17 35.8101 319.755 36.7476C320.341 37.685 320.542 38.812 320.319 39.8944C320.096 40.9769 319.464 41.9317 318.555 42.5605C318.365 42.6727 318.165 42.7686 317.958 42.8471C319.091 44.162 320.351 45.3619 321.719 46.4296C321.785 46.2237 321.868 46.0239 321.969 45.8325C322.503 44.827 323.414 44.0746 324.502 43.7409C325.589 43.4072 326.765 43.5195 327.77 44.0532C328.776 44.5869 329.528 45.4981 329.861 46.5865C330.195 47.675 330.083 48.8513 329.549 49.8569C329.435 50.0627 329.303 50.2585 329.155 50.4421C330.793 51.0109 332.485 51.4111 334.204 51.6362C334.158 51.416 334.13 51.1923 334.121 50.9675C334.08 49.8305 334.492 48.7237 335.266 47.8906C336.041 47.0575 337.114 46.5663 338.251 46.5252C339.387 46.484 340.494 46.8962 341.327 47.671C342.159 48.4459 342.65 49.52 342.691 50.657C342.715 50.8952 342.715 51.1353 342.691 51.3735C344.397 51.0368 346.065 50.5287 347.669 49.8569C347.513 49.6955 347.373 49.5196 347.251 49.3315C346.952 48.854 346.749 48.3221 346.655 47.7663C346.561 47.2105 346.578 46.6416 346.704 46.0922C346.829 45.5427 347.062 45.0234 347.389 44.564C347.715 44.1045 348.129 43.7138 348.606 43.4143C349.083 43.1148 349.615 42.9123 350.17 42.8183C350.726 42.7243 351.295 42.7407 351.844 42.8665C352.393 42.9924 352.912 43.2252 353.371 43.5518C353.831 43.8783 354.221 44.2922 354.521 44.7697C354.638 44.9652 354.742 45.1687 354.831 45.3787C356.125 44.2391 357.305 42.9752 358.352 41.6051C358.149 41.538 357.949 41.4582 357.755 41.3663C356.749 40.831 355.996 39.9176 355.662 38.827C355.329 37.7363 355.442 36.5578 355.977 35.5507C356.512 34.5435 357.425 33.7902 358.515 33.4565C359.605 33.1228 360.783 33.2361 361.79 33.7713C361.972 33.881 362.147 34.0006 362.315 34.1296C362.873 32.504 363.273 30.8283 363.509 29.126C363.316 29.1664 363.121 29.1943 362.924 29.2096C362.325 29.2517 361.723 29.1677 361.158 28.9628C360.593 28.758 360.078 28.4369 359.645 28.0204C359.212 27.6038 358.871 27.101 358.644 26.5444C358.417 25.9879 358.309 25.3899 358.328 24.7891C358.346 24.1883 358.49 23.598 358.751 23.0564C359.011 22.5148 359.383 22.0339 359.841 21.6448C360.298 21.2556 360.833 20.9668 361.409 20.7971C361.986 20.6273 362.591 20.5804 363.187 20.6593C362.855 18.9942 362.359 17.3662 361.707 15.7989C361.563 15.9064 361.444 16.0258 361.289 16.1214C360.325 16.6623 359.191 16.8112 358.12 16.5372C357.05 16.2632 356.126 15.5872 355.541 14.6498C354.956 13.7123 354.754 12.5854 354.977 11.5029C355.201 10.4205 355.832 9.46571 356.741 8.83688C356.886 8.74941 357.038 8.67354 357.194 8.60999C356.08 7.34583 354.845 6.19392 353.506 5.17076C353.457 5.31812 353.397 5.46178 353.327 5.60066C352.794 6.60623 351.883 7.35862 350.795 7.69231C349.707 8.026 348.531 7.91365 347.526 7.37998C346.521 6.84632 345.769 5.93505 345.435 4.84664C345.101 3.75824 345.214 2.58185 345.747 1.57628C345.828 1.44041 345.915 1.30887 346.01 1.1822C344.421 0.63756 342.782 0.257411 341.116 0.0477295C341.148 0.189014 341.168 0.332865 341.175 0.477634C341.195 1.04062 341.104 1.60196 340.906 2.1296C340.709 2.65724 340.41 3.14084 340.026 3.55279C339.642 3.96475 339.18 4.29699 338.668 4.53055C338.155 4.76411 337.602 4.8944 337.039 4.91401C336.477 4.93361 335.915 4.84213 335.388 4.64479C334.861 4.44746 334.377 4.14813 333.965 3.7639C333.554 3.37967 333.222 2.91805 332.988 2.40542C332.755 1.89279 332.624 1.33917 332.605 0.776179C332.574 0.606672 332.558 0.43489 332.557 0.262682ZM337.069 10.867C340.023 10.7482 342.946 11.5095 345.468 13.0543C347.989 14.5991 349.995 16.8579 351.232 19.5445C352.469 22.2311 352.881 25.2245 352.415 28.1455C351.95 31.0665 350.628 33.7835 348.618 35.9523C346.608 38.1212 343.999 39.6441 341.122 40.3282C338.246 41.0123 335.231 40.8268 332.46 39.7952C329.689 38.7635 327.287 36.9322 325.557 34.5332C323.828 32.1343 322.849 29.2757 322.745 26.3197C322.606 22.3729 324.035 18.5316 326.719 15.6359C329.404 12.7401 333.125 11.0255 337.069 10.867Z" fill="#C6E3FF"/>
<path d="M76.2324 155.859C95.1385 155.859 110.465 141.788 110.465 124.43C110.465 107.072 95.1385 92.9999 76.2324 92.9999C57.3264 92.9999 42 107.072 42 124.43C42 141.788 57.3264 155.859 76.2324 155.859Z" fill="#C6E3FF"/>
<path d="M75.4206 124.912L48.723 116.367C47.6789 119.095 47.1429 121.991 47.1416 124.912C47.1416 139.159 59.9111 150.876 75.4206 150.876C80.5053 150.887 85.5107 149.615 89.9744 147.179L75.4206 124.912Z" fill="#7BB1FF"/>
<path d="M76.8662 124.43L91.6061 146.587C95.6677 144.337 99.0857 141.083 101.534 137.137C103.882 133.32 105.132 128.929 105.145 124.447L76.8662 124.43Z" fill="#D6EBFF"/>
<path d="M77.0439 123.178L105.323 122.822C105.268 119.267 104.427 115.769 102.862 112.577C101.251 109.306 98.9754 106.407 96.1813 104.066L77.0439 123.178Z" fill="white"/>
<path d="M172.581 66.3246H158.126V101.075H172.581V66.3246Z" fill="#C6E3FF"/>
<path d="M194.926 49.3196H180.471V101.075H194.926V49.3196Z" fill="#C6E3FF"/>
<path d="M217.26 25.842H202.805V101.063H217.26V25.842Z" fill="#C6E3FF"/>
<path d="M239.606 58.7535H225.15V101.075H239.606V58.7535Z" fill="#C6E3FF"/>
<path d="M150.391 26.5704V100.753H249.143" stroke="#7BB1FF" stroke-miterlimit="10"/>
<path d="M372.33 48.9016C369.094 49.5383 365.927 50.4902 362.876 51.7437C363.071 51.966 363.251 52.2014 363.413 52.4483C364.6 54.3486 364.984 56.6429 364.481 58.8264C363.977 61.0099 362.627 62.9039 360.727 64.0916C358.828 65.2792 356.535 65.6634 354.352 65.1595C352.169 64.6556 350.276 63.3049 349.089 61.4046C348.927 61.1239 348.783 60.8326 348.659 60.5329C346.169 62.6991 343.89 65.0983 341.856 67.698C342.152 67.802 342.443 67.9216 342.727 68.0562C343.708 68.5745 344.578 69.2811 345.286 70.1356C345.994 70.9901 346.528 71.9759 346.855 73.0365C347.183 74.0972 347.298 75.212 347.195 76.3173C347.092 77.4227 346.772 78.4968 346.254 79.4785C345.736 80.4602 345.03 81.3302 344.176 82.0389C343.321 82.7475 342.336 83.2809 341.276 83.6086C340.216 83.9363 339.101 84.0518 337.997 83.9486C336.892 83.8455 335.818 83.5256 334.837 83.0073C334.528 82.825 334.229 82.6257 333.941 82.4102C332.855 85.5664 332.083 88.8225 331.638 92.1309C331.98 92.0589 332.327 92.011 332.676 91.9876C333.792 91.9337 334.908 92.1022 335.958 92.4831C337.009 92.864 337.973 93.4498 338.796 94.2066C339.618 94.9633 340.282 95.8758 340.749 96.8913C341.216 97.9068 341.477 99.0049 341.516 100.122C341.556 101.239 341.373 102.353 340.979 103.399C340.585 104.445 339.987 105.402 339.22 106.215C338.453 107.028 337.533 107.681 336.512 108.135C335.491 108.589 334.39 108.836 333.273 108.861C332.874 108.868 332.475 108.844 332.079 108.79C332.713 112.102 333.677 115.342 334.956 118.462C335.249 118.19 335.565 117.942 335.899 117.722C336.84 117.134 337.887 116.737 338.981 116.554C340.075 116.371 341.194 116.405 342.274 116.654C343.355 116.904 344.376 117.364 345.279 118.008C346.182 118.652 346.95 119.468 347.537 120.409C348.125 121.35 348.522 122.397 348.705 123.492C348.888 124.586 348.854 125.706 348.605 126.787C348.355 127.868 347.896 128.89 347.252 129.793C346.608 130.696 345.792 131.464 344.852 132.052C344.471 132.278 344.072 132.47 343.658 132.625C345.886 135.191 348.361 137.531 351.047 139.611C351.171 139.2 351.33 138.8 351.524 138.417C352.569 136.436 354.358 134.951 356.496 134.29C358.635 133.628 360.95 133.843 362.93 134.888C364.91 135.934 366.394 137.723 367.056 139.863C367.717 142.003 367.502 144.318 366.457 146.299C366.24 146.72 365.984 147.119 365.693 147.493C368.916 148.605 372.243 149.385 375.624 149.822C375.528 149.39 375.468 148.95 375.445 148.508C375.393 147.393 375.563 146.279 375.944 145.229C376.325 144.18 376.91 143.217 377.666 142.396C378.422 141.575 379.333 140.911 380.346 140.445C381.36 139.978 382.456 139.717 383.571 139.676C384.686 139.636 385.798 139.818 386.843 140.21C387.887 140.603 388.844 141.198 389.657 141.963C390.469 142.728 391.123 143.646 391.578 144.665C392.034 145.684 392.284 146.783 392.312 147.899C392.317 148.366 392.285 148.834 392.216 149.296C395.563 148.641 398.834 147.649 401.981 146.335C401.684 146.005 401.413 145.654 401.169 145.284C399.982 143.383 399.598 141.089 400.101 138.906C400.605 136.722 401.955 134.828 403.855 133.64C405.754 132.453 408.048 132.069 410.23 132.573C412.413 133.076 414.306 134.427 415.493 136.327C415.723 136.707 415.919 137.107 416.078 137.522C418.627 135.278 420.947 132.786 423.001 130.082C422.591 129.955 422.192 129.796 421.808 129.604C420.829 129.084 419.962 128.375 419.257 127.519C418.551 126.663 418.021 125.677 417.697 124.616C417.373 123.556 417.261 122.442 417.367 121.338C417.473 120.234 417.796 119.161 418.316 118.182C418.837 117.203 419.545 116.335 420.4 115.63C421.256 114.924 422.241 114.394 423.302 114.07C424.362 113.745 425.476 113.633 426.579 113.739C427.683 113.846 428.755 114.168 429.734 114.689C430.094 114.896 430.437 115.132 430.76 115.393C431.835 112.196 432.591 108.9 433.016 105.553C432.643 105.635 432.264 105.687 431.882 105.709C430.766 105.762 429.65 105.594 428.6 105.213C427.55 104.832 426.585 104.246 425.763 103.49C424.94 102.733 424.276 101.82 423.809 100.805C423.342 99.7894 423.081 98.6913 423.042 97.5742C423.002 96.4571 423.185 95.3432 423.579 94.2973C423.973 93.2513 424.571 92.2941 425.338 91.4811C426.105 90.6681 427.026 90.0156 428.046 89.5613C429.067 89.1071 430.168 88.8602 431.285 88.8349C431.657 88.8346 432.027 88.8585 432.395 88.9066C431.739 85.6331 430.759 82.433 429.471 79.3531C429.213 79.58 428.942 79.7914 428.659 79.9861C426.76 81.1737 424.466 81.5579 422.284 81.054C420.101 80.5501 418.208 79.1995 417.021 77.2992C415.834 75.3989 415.45 73.1046 415.953 70.9211C416.457 68.7375 417.807 66.8436 419.707 65.6559C420.001 65.4919 420.304 65.3444 420.614 65.2141C418.416 62.7305 415.986 60.4632 413.356 58.4431C413.237 58.7297 413.153 59.0163 413.01 59.3029C411.959 61.2808 410.166 62.76 408.025 63.415C405.883 64.0701 403.57 63.8474 401.593 62.7959C399.616 61.7444 398.137 59.9502 397.482 57.8081C396.828 55.666 397.05 53.3514 398.101 51.3735C398.256 51.0989 398.447 50.8601 398.626 50.5973C395.505 49.5532 392.292 48.8095 389.029 48.3762C389.029 48.6628 389.137 48.9374 389.149 49.236C389.228 51.4752 388.415 53.6541 386.888 55.2934C385.361 56.9327 383.246 57.8982 381.008 57.9774C378.77 58.0565 376.592 57.243 374.953 55.7156C373.314 54.1883 372.349 52.0722 372.27 49.8331C372.272 49.5217 372.292 49.2106 372.33 48.9016ZM381.056 64.7125C387.853 64.4735 394.568 66.2562 400.353 69.8352C406.137 73.4143 410.731 78.6288 413.553 84.8196C416.375 91.0104 417.299 97.8994 416.208 104.616C415.117 111.332 412.059 117.573 407.422 122.551C402.785 127.529 396.777 131.019 390.158 132.581C383.538 134.143 376.604 133.706 370.232 131.326C363.861 128.945 358.338 124.728 354.362 119.208C350.386 113.687 348.136 107.111 347.895 100.311C347.734 95.7948 348.464 91.2911 350.044 87.0574C351.624 82.8236 354.022 78.9428 357.101 75.6368C360.181 72.3307 363.882 69.6643 367.992 67.7898C372.102 65.9154 376.541 64.8697 381.056 64.7125Z" fill="#D6EBFF"/>
<path d="M322.744 92.3697C321.706 91.6054 320.417 90.9725 320.023 89.7425C319.366 87.784 321.479 85.7301 320.954 83.7716C320.524 82.0878 318.567 81.3832 316.8 81.1563C315.033 80.9295 313.111 80.6548 312.133 79.2218C311.309 78.0276 311.5 76.4513 311.309 75.0063C311.095 73.5584 310.473 72.2017 309.515 71.0954C308.557 69.989 307.304 69.1791 305.902 68.7608C302.918 67.9129 300.315 70.6237 297.821 71.7104C296.517 72.2857 295.378 73.1763 294.505 74.3021C293.632 75.4279 293.052 76.7533 292.819 78.159C292.373 81.0016 292.528 83.9061 293.273 86.6854C294.013 89.4584 294.559 92.2795 294.908 95.1282C295.017 98.191 294.56 101.248 293.559 104.144C292.835 106.373 292.967 108.791 293.929 110.927C295.015 112.79 297.2 113.65 299.265 114.247C303.247 115.522 307.455 115.93 311.607 115.441C315.552 114.914 319.18 112.996 321.837 110.032C323.664 108.551 325.068 106.615 325.908 104.419C327.519 100.18 326.325 94.9491 322.744 92.3697Z" fill="#4B4B63"/>
<path d="M302.058 77.9082C302.307 78.7782 302.379 79.6891 302.27 80.5874C302.161 81.4857 301.874 82.3531 301.425 83.1387C301.127 83.6522 300.661 84.1776 300.065 84.1298C299.468 84.0821 299.014 83.3417 298.799 82.6968C298.201 80.9107 297.824 79.0578 297.677 77.1797C297.582 75.9855 297.797 73.9554 299.432 74.3495C300.697 74.6481 301.724 76.7976 302.058 77.9082Z" fill="#B2A3EF"/>
<path d="M302.047 106.031C300.853 110.223 294.025 112.253 290.11 107.416C289.621 106.819 289.179 106.222 288.749 105.565C284.512 106.401 278.221 108.24 275.392 111.668C274.552 112.84 273.951 114.167 273.626 115.573C272.157 120.588 270.928 125.687 269.961 130.834C269.806 131.413 269.806 132.023 269.961 132.602C270.282 133.267 270.787 133.827 271.417 134.214C277.266 138.823 278.806 146.275 280.728 152.998C283.652 163.22 284.989 177.347 287.89 187.57C297.439 188.298 337.308 179.21 342.106 175.055C335.243 162.671 329.668 140.328 327.52 124.804C326.589 118.212 324.01 111.942 321.492 105.768C320.895 104.323 320.37 100.992 319.272 100.06C317.815 98.866 303.933 100.92 302.465 100.968C302.465 101.792 302.548 102.616 302.572 103.428C302.535 104.318 302.358 105.196 302.047 106.031Z" fill="#B2A3EF"/>
<path d="M287.842 99.272C287.39 97.8228 286.76 96.435 285.968 95.1402C288.321 95.071 290.6 94.2973 292.509 92.919C293.452 92.2275 294.331 91.4521 295.135 90.6023C295.434 90.3037 295.875 89.5514 296.329 89.0021C295.696 89.7425 297.248 93.8743 297.522 94.7222C298.144 96.5275 299.104 98.1974 300.351 99.6422C301.605 101.039 302.429 101.278 302.655 103.225C302.823 105.373 302.509 107.531 301.736 109.542C301.369 110.796 300.607 111.897 299.564 112.683C298.895 113.04 298.162 113.259 297.407 113.325C296.651 113.39 295.891 113.302 295.171 113.065C292.7 112.42 289.31 110.354 288.427 107.775C287.961 106.425 288.427 105.721 288.606 104.335C288.683 102.614 288.424 100.894 287.842 99.272Z" fill="#EEC5C4"/>
<path d="M288.677 103.69C288.677 103.547 288.677 103.404 288.677 103.261C288.552 101.904 288.276 100.567 287.854 99.272C287.401 97.8228 286.772 96.435 285.979 95.1402C288.333 95.071 290.612 94.2973 292.521 92.919C293.464 92.2275 294.343 91.4521 295.147 90.6023C295.445 90.3037 295.887 89.5514 296.341 89.0021C296.412 89.7663 296.52 90.5306 296.651 91.2829C296.411 93.8385 295.562 96.2992 294.174 98.4582C292.787 100.617 290.902 102.412 288.677 103.69Z" fill="#EEC5C4"/>
<path d="M272.933 85.9928C273.895 89.8744 276.1 93.3344 279.212 95.8447C280.034 96.5508 280.993 97.0793 282.029 97.3972C282.548 97.548 283.095 97.5792 283.629 97.4882C284.162 97.3971 284.668 97.1864 285.108 96.8717C286.302 95.9164 286.517 94.1968 286.6 92.6563C286.862 89.7858 286.769 86.8942 286.326 84.0463C285.877 81.1804 284.526 78.5325 282.47 76.4871C280.74 74.8869 276.001 72.5702 273.912 74.7794C271.644 77.1678 272.229 83.1387 272.933 85.9928Z" fill="#4B4B63"/>
<path d="M275.404 79.2337C275.81 76.5229 278.866 78.5291 281.373 77.3827C283.533 76.3916 285.168 75.5198 287.604 75.6989C289.801 75.8155 291.879 76.738 293.441 78.2903C293.846 78.7202 294.216 79.1501 294.563 79.592C295.555 81.174 296.398 82.8451 297.081 84.5836V84.703C297.309 88.0392 296.531 91.367 294.849 94.2565C294.105 95.6337 293.007 96.7871 291.668 97.5975C290.329 98.4079 288.798 98.8458 287.233 98.866C285.445 98.8347 283.726 98.1656 282.387 96.9792C280.922 95.6379 279.709 94.0443 278.806 92.2741C277.386 89.6469 274.998 82.2072 275.404 79.2337Z" fill="#EEC5C4"/>
<path d="M287.221 84.309C284.273 83.6163 281.253 83.1864 278.519 81.849C276.463 80.8939 274.804 79.2511 273.828 77.2036C272.921 75.1138 273.542 73.6211 274.747 71.8298C276.507 69.2312 279.149 67.3599 282.184 66.5635C285.18 65.7753 288.928 66.9337 291.805 67.9368C293.832 68.5797 295.647 69.7599 297.057 71.3521C299.445 74.1823 300.197 79.0546 300.006 82.6371C299.876 84.1157 299.575 85.5743 299.11 86.9839C298.764 88.1781 298.155 89.5275 296.723 89.6947C295.78 89.8141 293.87 87.1033 292.903 86.5063C291.353 85.5854 289.67 84.9087 287.914 84.5L287.221 84.309Z" fill="#4B4B63"/>
<path d="M282.685 87.5572C282.7 87.7296 282.766 87.8936 282.875 88.0283C282.984 88.1629 283.13 88.2622 283.295 88.3134C283.461 88.3646 283.637 88.3654 283.803 88.3157C283.969 88.2661 284.116 88.1682 284.226 88.0345C284.336 87.9009 284.404 87.7375 284.42 87.5652C284.437 87.393 284.402 87.2196 284.32 87.0672C284.238 86.9148 284.113 86.7903 283.96 86.7096C283.807 86.6288 283.633 86.5955 283.461 86.6138C283.348 86.6242 283.238 86.657 283.138 86.7102C283.037 86.7634 282.949 86.8359 282.876 86.9236C282.804 87.0114 282.75 87.1125 282.717 87.2213C282.685 87.33 282.674 87.4442 282.685 87.5572Z" fill="#4B4B63"/>
<path d="M283.974 85.0732C283.388 84.9567 282.78 85.0364 282.243 85.3001" stroke="#4B4B63" stroke-width="0.75" stroke-miterlimit="10" stroke-linecap="round"/>
<path d="M277.385 88.9782C277.403 89.1498 277.471 89.3124 277.581 89.4454C277.691 89.5783 277.837 89.6757 278.003 89.7251C278.168 89.7745 278.344 89.7737 278.509 89.7229C278.674 89.6721 278.82 89.5734 278.928 89.4395C279.037 89.3056 279.104 89.1425 279.12 88.9707C279.136 88.7989 279.1 88.6262 279.018 88.4745C278.936 88.3228 278.811 88.1989 278.658 88.1185C278.506 88.0381 278.333 88.0048 278.161 88.0228C277.933 88.0499 277.724 88.1648 277.58 88.3431C277.435 88.5215 277.365 88.7493 277.385 88.9782Z" fill="#4B4B63"/>
<path d="M278.579 86.5182C277.997 86.4008 277.392 86.4806 276.86 86.7451" stroke="#4B4B63" stroke-width="0.75" stroke-miterlimit="10" stroke-linecap="round"/>
<path d="M280.465 89.0977C280.641 89.855 280.517 90.651 280.119 91.3188C279.992 91.474 279.92 91.6675 279.916 91.8681C279.945 91.9733 280.004 92.0673 280.087 92.1377C280.171 92.2081 280.273 92.2515 280.382 92.2622C280.597 92.2714 280.811 92.239 281.014 92.1667" stroke="#4B4B63" stroke-width="0.75" stroke-miterlimit="10" stroke-linecap="round"/>
<path d="M284.834 93.4325C284.467 93.8238 284.014 94.1236 283.51 94.3082C283.006 94.4927 282.466 94.5568 281.934 94.4953" stroke="#4B4B63" stroke-width="0.75" stroke-miterlimit="10" stroke-linecap="round"/>
<path d="M297.284 84.4881C297.346 85.1128 297.223 85.7422 296.928 86.2966C296.634 86.851 296.181 87.3057 295.629 87.6031C295.076 87.9006 294.447 88.0275 293.823 87.9678C293.198 87.9081 292.605 87.6646 292.118 87.2679C291.632 86.8712 291.274 86.3392 291.089 85.739C290.905 85.1389 290.902 84.4975 291.082 83.8959C291.262 83.2944 291.616 82.7596 292.099 82.3591C292.583 81.9586 293.174 81.7105 293.798 81.646C294.214 81.603 294.633 81.6425 295.034 81.7622C295.434 81.8819 295.807 82.0794 296.13 82.3434C296.454 82.6074 296.723 82.9328 296.921 83.3008C297.119 83.6688 297.242 84.0723 297.284 84.4881Z" fill="#EEC5C4"/>
<path d="M294.598 83.4014C294.364 83.3936 294.132 83.4453 293.923 83.5519C293.714 83.6584 293.536 83.8162 293.405 84.0104C293.28 84.2085 293.207 84.4348 293.192 84.6685C293.178 84.9022 293.222 85.1358 293.321 85.3479C293.444 85.2073 293.607 85.107 293.788 85.0602C293.969 85.0133 294.16 85.022 294.336 85.0852C294.51 85.153 294.661 85.2707 294.769 85.4235C294.878 85.5764 294.938 85.7578 294.945 85.945" stroke="#4B4B63" stroke-width="0.75" stroke-linecap="round" stroke-linejoin="round"/>
<path d="M370.969 291.117H119.164C113.402 291.117 108.731 295.79 108.731 301.554V442.897C108.731 448.661 113.402 453.334 119.164 453.334H370.969C376.731 453.334 381.402 448.661 381.402 442.897V301.554C381.402 295.79 376.731 291.117 370.969 291.117Z" fill="#D6EBFF" stroke="#4B4B63" stroke-width="0.75" stroke-miterlimit="10"/>
<path d="M401.587 453.537H88.5469C88.5469 456.989 89.9177 460.3 92.3577 462.741C94.7977 465.182 98.1071 466.554 101.558 466.554H388.576C392.027 466.554 395.336 465.182 397.776 462.741C400.216 460.3 401.587 456.989 401.587 453.537Z" fill="#D9D9DD"/>
<path d="M366.707 297.494H123.425C118.923 297.494 115.272 301.145 115.272 305.65V440.09C115.272 444.595 118.923 448.247 123.425 448.247H366.707C371.21 448.247 374.86 444.595 374.86 440.09V305.65C374.86 301.145 371.21 297.494 366.707 297.494Z" fill="#4B4B63"/>
<path d="M248.737 294.162C248.737 294.561 248.618 294.951 248.397 295.283C248.175 295.615 247.86 295.874 247.491 296.026C247.123 296.179 246.717 296.219 246.326 296.141C245.935 296.063 245.575 295.871 245.293 295.589C245.011 295.307 244.819 294.947 244.741 294.556C244.663 294.164 244.703 293.758 244.856 293.39C245.008 293.021 245.267 292.706 245.599 292.484C245.93 292.262 246.32 292.144 246.719 292.144C246.985 292.142 247.248 292.193 247.493 292.294C247.739 292.395 247.962 292.544 248.149 292.731C248.337 292.919 248.486 293.142 248.586 293.388C248.687 293.633 248.738 293.896 248.737 294.162Z" fill="#262643"/>
<path d="M142.035 144.472L142.035 447.363H348.087V144.472H142.035Z" fill="white"/>
<path d="M263.992 423.336L236.574 389.159L212.724 419.73L192.05 397.375L194.759 394.879L212.485 414.045L236.526 383.224L263.228 416.505L278.734 384.848L311.453 379.056L312.085 382.686L281.217 388.144L263.992 423.336Z" fill="#F2F2F2"/>
<path d="M316.49 380.871C316.49 379.924 316.208 378.998 315.681 378.211C315.153 377.425 314.404 376.812 313.528 376.453C312.652 376.093 311.689 376.002 310.761 376.191C309.834 376.38 308.983 376.841 308.318 377.515C307.652 378.189 307.202 379.046 307.025 379.976C306.848 380.907 306.951 381.869 307.321 382.741C307.692 383.613 308.313 384.355 309.106 384.872C309.899 385.39 310.828 385.66 311.775 385.648C313.031 385.632 314.23 385.122 315.112 384.228C315.995 383.334 316.49 382.128 316.49 380.871Z" fill="#B2A3EF"/>
<path d="M268.528 419.921C268.54 418.974 268.27 418.044 267.753 417.251C267.236 416.458 266.494 415.836 265.623 415.465C264.751 415.095 263.79 414.992 262.859 415.169C261.929 415.347 261.073 415.797 260.399 416.462C259.726 417.128 259.265 417.979 259.076 418.907C258.887 419.835 258.978 420.799 259.337 421.675C259.697 422.551 260.309 423.301 261.095 423.829C261.881 424.356 262.807 424.638 263.754 424.638C265.01 424.638 266.215 424.143 267.109 423.26C268.003 422.377 268.513 421.177 268.528 419.921Z" fill="#055FE1"/>
<path d="M284.141 386.496C284.141 385.551 283.861 384.628 283.336 383.842C282.812 383.056 282.066 382.444 281.194 382.083C280.321 381.721 279.361 381.627 278.435 381.811C277.509 381.995 276.658 382.45 275.99 383.118C275.323 383.786 274.868 384.637 274.684 385.564C274.499 386.49 274.594 387.451 274.955 388.324C275.317 389.197 275.929 389.943 276.714 390.467C277.499 390.992 278.422 391.273 279.366 391.273C280.633 391.273 281.847 390.769 282.743 389.873C283.638 388.978 284.141 387.763 284.141 386.496Z" fill="#B2A3EF"/>
<path d="M236.37 391.225C238.981 391.225 241.097 389.108 241.097 386.496C241.097 383.884 238.981 381.767 236.37 381.767C233.76 381.767 231.644 383.884 231.644 386.496C231.644 389.108 233.76 391.225 236.37 391.225Z" fill="#B2A3EF"/>
<path d="M213.165 421.055C215.776 421.055 217.892 418.938 217.892 416.326C217.892 413.715 215.776 411.597 213.165 411.597C210.555 411.597 208.438 413.715 208.438 416.326C208.438 418.938 210.555 421.055 213.165 421.055Z" fill="#B2A3EF"/>
<path d="M199.152 397.076C199.152 396.131 198.872 395.208 198.347 394.422C197.823 393.637 197.077 393.025 196.204 392.663C195.332 392.302 194.372 392.207 193.446 392.391C192.52 392.576 191.669 393.031 191.001 393.699C190.333 394.367 189.879 395.218 189.694 396.144C189.51 397.071 189.605 398.031 189.966 398.904C190.327 399.777 190.939 400.523 191.725 401.048C192.51 401.573 193.433 401.853 194.377 401.853C195.644 401.853 196.858 401.35 197.753 400.454C198.649 399.558 199.152 398.343 199.152 397.076Z" fill="#67DBFF"/>
<path d="M173.632 367.162V431.636H317.445" stroke="#4B4B63" stroke-width="0.75" stroke-miterlimit="10"/>
<path d="M207.031 264.236H185.079V315.239H207.031V264.236Z" fill="#D6EBFF"/>
<path d="M240.955 239.277H219.003V315.239H240.955V239.277Z" fill="#D6EBFF"/>
<path d="M180.984 249.619C207.409 237.542 230.924 219.915 249.931 197.935" stroke="#4B4B63" stroke-width="0.75" stroke-miterlimit="10" stroke-linecap="round"/>
<path d="M251.983 195.583L250.42 200.037L249.775 198.078L247.758 197.672L251.983 195.583Z" fill="#4B4B63"/>
<path d="M274.89 204.825H252.938V315.239H274.89V204.825Z" fill="#67DBFF"/>
<path d="M308.827 253.118H286.875V315.239H308.827V253.118Z" fill="#055FE1"/>
<path d="M172.163 206.891V315.406H318.806" stroke="#4B4B63" stroke-width="0.75" stroke-miterlimit="10"/>
<path d="M318.59 325.879H171.327V333.295H318.59V325.879Z" fill="#F2F2F2"/>
<path d="M289.023 179.019H200.524V186.435H289.023V179.019Z" fill="#F2F2F2"/>
<path d="M318.412 166.062H171.148V173.478H318.412V166.062Z" fill="#F2F2F2"/>
<path d="M318.59 339.481H171.327V346.897H318.59V339.481Z" fill="#F2F2F2"/>
<path d="M318.59 353.083H171.327V360.499H318.59V353.083Z" fill="#F2F2F2"/>
<path d="M313.005 100.359C311.286 100.765 309.591 101.242 307.896 101.72C307.603 101.782 307.327 101.904 307.084 102.078C306.809 102.385 306.635 102.768 306.583 103.177C306.065 106.102 306.142 109.102 306.808 111.997C307.475 114.892 308.717 117.623 310.462 120.027C311.513 121.34 312.754 122.487 313.888 123.717C315.022 124.947 316.514 126.046 317.469 127.299C318.663 128.792 319.128 131.204 319.665 132.984C320.916 137.084 321.685 141.316 321.957 145.594C322.148 148.424 322.279 151.649 324.452 153.476C326.624 155.303 330.026 154.825 332.247 153.106C334.364 151.221 335.904 148.773 336.687 146.048C339.234 139.137 340.406 131.794 340.137 124.433C339.815 117.758 337.749 109.709 333.464 104.431C330.576 100.848 325.825 99.3198 321.265 99.2482C318.477 99.2813 315.703 99.6542 313.005 100.359Z" fill="#B2A3EF"/>
<path d="M317.087 140.328C318.678 131.754 320.27 123.179 321.862 114.605" stroke="#4B4B63" stroke-width="0.75" stroke-miterlimit="10"/>
<path d="M318.746 116.241C319.295 117.639 319.844 119.036 320.381 120.433" stroke="#4B4B63" stroke-width="0.75" stroke-miterlimit="10"/>
<path d="M286.445 158.826C287.055 158.608 287.696 158.487 288.343 158.467C294.144 158.348 299.79 157.751 305.639 157.154C309.555 156.76 313.458 156.545 317.361 156.485C320.501 156.485 324.141 157.118 327.209 156.258C330.277 155.398 332.652 154.431 334.275 151.756C335.05 150.469 335.755 149.142 336.388 147.78C336.815 147.06 337.007 146.225 336.937 145.391C336.687 144.197 335.386 143.492 334.108 143.003C331.399 142 329.716 140.447 326.6 140.125C323.349 139.886 320.081 140.144 316.908 140.889C310.7 142.191 304.493 142.728 298.394 144.543C291.572 146.717 284.897 149.33 278.412 152.365C275.998 153.276 273.772 154.624 271.846 156.342C270.579 157.524 269.805 159.142 269.678 160.872C269.552 162.601 270.084 164.314 271.166 165.668C271.494 166.089 271.923 166.42 272.414 166.629C272.905 166.838 273.441 166.918 273.971 166.862C275.165 166.659 275.881 165.155 274.926 164.713C281.193 167.101 281.36 160.629 286.445 158.826Z" fill="#EEC5C4"/>
<path d="M266.845 159.817V159.435L266.559 160.139L266.845 159.817Z" fill="#B2A3EF"/>
<path d="M283.103 111.321C282.741 110.629 282.191 110.054 281.516 109.661C279.487 108.467 275.237 110.294 273.411 111.297C273.021 111.512 272.642 111.747 272.277 112.002C270.129 113.455 268.179 115.181 266.476 117.137C265.891 117.782 265.282 118.427 264.757 119.083C256.341 128.816 250.898 139.528 252.259 152.52C252.557 155.303 253.106 158.312 255.183 160.199C256.036 160.92 257.04 161.439 258.121 161.716C259.203 161.993 260.332 162.022 261.426 161.799C263.512 161.371 265.431 160.351 266.953 158.862L266.893 159.399L267.204 158.635C270.522 155.41 271.298 150.956 272.11 146.609L280.024 127.192C281.289 124.075 285.359 115.561 283.103 111.321Z" fill="#B2A3EF"/>
<path d="M269.65 207.477C273.291 201.506 266.666 200.562 265.699 195.26C265.592 194.62 265.592 193.966 265.699 193.326C266.618 187.534 267.024 181.826 267.478 175.938C267.788 171.998 268.266 168.069 268.922 164.176C269.352 161.548 270.379 158.647 270.498 155.912C270.438 155.04 270.343 154.168 270.2 153.321C269.635 152.249 268.861 151.302 267.924 150.535C266.987 149.768 265.906 149.196 264.744 148.854C263.117 148.372 261.397 148.294 259.733 148.627C258.069 148.96 256.511 149.694 255.195 150.765C254.534 151.782 253.944 152.844 253.428 153.942C252.811 156.8 252.575 159.727 252.724 162.647C252.939 169 252.366 175.246 253.13 181.551C254.125 188.603 255.609 195.578 257.57 202.425C258.067 204.941 259.052 207.335 260.471 209.471C261.548 210.912 263.123 211.9 264.888 212.242C266.654 212.584 268.484 212.256 270.02 211.322C270.507 211.063 270.921 210.685 271.224 210.224C271.526 209.763 271.708 209.233 271.751 208.683C271.704 207.536 270.295 206.581 269.65 207.477Z" fill="#EEC5C4"/>
<path d="M270.224 153.464C271.93 145.666 275.001 138.231 279.296 131.503" stroke="#4B4B63" stroke-width="0.75" stroke-miterlimit="10"/>
<path d="M276.191 136.303L279.295 134.297" stroke="#4B4B63" stroke-width="0.75" stroke-miterlimit="10"/>
<path d="M91.9838 286.113C96.4243 291.188 98.2387 298.055 99.7546 304.456C101.696 312.759 103.646 321.051 105.604 329.33C106.134 331.282 106.462 333.283 106.582 335.301C106.483 338.812 105.954 342.297 105.007 345.679C104.04 349.643 101.665 349.405 98.1313 349.046C92.5449 348.497 85.0009 346.801 81.1811 342.252C79.3906 340.09 78.7938 337.188 78.3044 334.43C77.5882 330.632 76.8839 326.835 76.1677 323.025C73.2671 307.501 70.3665 291.487 73.6491 276.046C80.785 277.048 87.3072 280.629 91.9838 286.113Z" fill="white"/>
<path d="M100.185 335.218C102.655 336.412 104.959 337.893 107.347 339.326C111.119 341.595 115.058 343.195 118.925 345.297C119.983 345.947 121.14 346.419 122.351 346.694C124.416 347.064 126.6 346.288 128.677 346.562C131.471 346.945 133.846 349.429 134.849 352.713C136.556 358.242 132.569 356.176 129.931 355.698L123.76 354.563C115.781 353.158 107.718 352.281 99.6235 351.936C95.1234 351.697 87.1974 351.805 83.8313 347.697C82.1959 345.703 80.3816 336.949 82.5302 334.848C82.9273 334.493 83.4013 334.235 83.9148 334.095C88.0994 332.669 92.6269 332.598 96.8542 333.892C97.9937 334.256 99.1065 334.699 100.185 335.218Z" fill="#9393A1"/>
<path d="M97.2603 399.178H18.3587C17.7356 399.189 17.1166 399.076 16.5378 398.845C15.9589 398.614 15.4319 398.27 14.9874 397.833C14.5429 397.396 14.1899 396.875 13.9489 396.3C13.7079 395.725 13.5839 395.108 13.584 394.485C13.5839 393.861 13.7079 393.244 13.9489 392.669C14.1899 392.094 14.5429 391.573 14.9874 391.136C15.4319 390.7 15.9589 390.356 16.5378 390.125C17.1166 389.894 17.7356 389.781 18.3587 389.792H97.2603C98.5045 389.792 99.6977 390.286 100.577 391.166C101.457 392.046 101.951 393.24 101.951 394.485C101.951 395.73 101.457 396.923 100.577 397.803C99.6977 398.684 98.5045 399.178 97.2603 399.178Z" fill="#4B4B63"/>
<path d="M86.8516 337.236V309.507C86.8516 305.332 83.4686 301.948 79.2956 301.948H17.5351C13.3621 301.948 9.97913 305.332 9.97913 309.507V337.236C9.97913 341.411 13.3621 344.795 17.5351 344.795H79.2956C83.4686 344.795 86.8516 341.411 86.8516 337.236Z" fill="#4B4B63"/>
<path d="M24.5891 337.833H19.8145V394.843H24.5891V337.833Z" fill="#4B4B63"/>
<path d="M76.0969 337.833H71.3223V394.843H76.0969V337.833Z" fill="#4B4B63"/>
<path d="M57.6897 396.825H52.915V466.076H57.6897V396.825Z" fill="#4B4B63"/>
<path d="M21.8079 396.825H17.0332V466.076H21.8079V396.825Z" fill="#4B4B63"/>
<path d="M98.3469 396.825H93.5723V466.076H98.3469V396.825Z" fill="#4B4B63"/>
<path d="M73.8401 396.825H69.0654V466.076H73.8401V396.825Z" fill="#4B4B63"/>
<path d="M146.082 421.127C143.384 421.7 141.522 421.832 138.323 422.321C133.668 422.982 129 423.515 124.321 423.921C125.515 432.34 126.709 439.744 126.935 441.225C128.129 447.674 127.485 463.831 130.361 469.969C133.859 470.399 136.891 469.826 140.173 469.551C141.928 453.358 143.36 437.141 146.082 421.127Z" fill="#EEC5C4"/>
<path d="M121.718 435.29C121.691 436.614 121.791 437.938 122.017 439.243C125.923 443.076 131.133 445.29 136.603 445.44C139.651 445.571 142.696 445.146 145.592 444.187C145.926 437.881 146.3 431.576 146.714 425.271C147.239 417.067 147.657 408.863 148.683 400.707C149.409 393.378 149.449 385.998 148.803 378.662C146.714 370.649 141.39 368.452 141.39 368.452C141.39 368.452 126.517 362.564 115.129 360.093C101.139 357.023 86.9227 354.743 72.8612 351.733C66.105 350.264 54.801 350.539 51.3751 357.931C47.2689 366.41 55.362 377.778 61.8078 382.746C68.5163 387.857 76.7884 390.437 85.0247 392.228C96.6922 394.776 108.621 395.926 120.56 395.655C120.178 395.631 121.706 432.352 121.718 435.29Z" fill="#7BB1FF"/>
<path d="M120.549 395.691C117.959 393.112 115.5 390.377 112.91 387.797C109.042 383.952 105.282 379.999 101.438 376.13C93.8109 368.452 86.1356 360.809 78.6752 352.963C76.7175 352.557 74.7599 352.151 72.8023 351.769C66.0461 350.3 54.7421 350.575 51.3162 357.967C47.2697 366.41 55.3628 377.778 61.8086 382.746C68.517 387.857 76.7892 390.437 85.0255 392.228C96.693 394.776 108.622 395.926 120.561 395.655C120.556 395.667 120.552 395.679 120.549 395.691Z" fill="#4B4B63"/>
<path d="M120.656 397.972C120.656 394.234 121.17 389.672 121.181 385.935" stroke="#4B4B63" stroke-width="0.4" stroke-miterlimit="10"/>
<path d="M130.253 364.833C120.25 361.621 111.154 358.648 96.4365 356.653" stroke="#4B4B63" stroke-width="0.75" stroke-miterlimit="10"/>
<path d="M128.666 474.519H160.68V477.982H129.812C129.495 477.982 129.192 477.856 128.968 477.632C128.744 477.408 128.618 477.104 128.618 476.788V474.471L128.666 474.519Z" fill="#9393A1"/>
<path d="M160.239 475.45C160.352 475.292 160.452 475.124 160.537 474.949C160.837 474.054 160.84 473.087 160.548 472.19C160.256 471.294 159.683 470.515 158.914 469.969C157.316 468.854 155.509 468.074 153.602 467.676C149.661 466.47 145.64 465.54 141.57 464.894C140.484 464.75 128.821 463.699 128.881 463.15C128.702 466.1 128.511 469.037 128.332 471.975C128.117 473.123 128.117 474.302 128.332 475.45H160.239Z" fill="#4B4B63"/>
<path d="M134.145 460.726C135.067 460.03 136.184 459.639 137.339 459.607C138.494 459.575 139.631 459.903 140.591 460.547C141.526 461.225 142.276 462.127 142.772 463.17C143.269 464.213 143.495 465.364 143.431 466.518C143.444 466.734 143.413 466.952 143.342 467.157C143.27 467.361 143.159 467.55 143.014 467.712C142.665 467.954 142.242 468.064 141.82 468.022L136.305 468.082C135.112 468.082 133.703 468.369 132.903 467.342C131.507 465.503 132.808 462.099 134.145 460.726Z" fill="#4B4B63"/>
<path d="M146.309 465.741C145.766 465.698 145.224 465.83 144.762 466.118C144.3 466.406 143.942 466.835 143.742 467.342" stroke="#9393A1" stroke-width="0.75" stroke-miterlimit="10" stroke-linecap="round"/>
<path d="M146.965 468.548C147.255 468.084 147.655 467.7 148.13 467.429C148.605 467.158 149.14 467.009 149.686 466.995" stroke="#9393A1" stroke-width="0.75" stroke-miterlimit="10" stroke-linecap="round"/>
<path d="M151.023 468.978C151.154 468.634 151.383 468.337 151.683 468.124C151.983 467.911 152.339 467.793 152.707 467.784" stroke="#9393A1" stroke-width="0.75" stroke-miterlimit="10" stroke-linecap="round"/>
<path d="M93.0582 416.78C88.9519 417.353 84.8417 417.831 80.7275 418.213C83.843 433.535 85.2754 449.142 87.8179 464.571C91.3154 464.571 94.5025 463.807 98.2148 463.891C98.931 459.221 100.351 431.492 102.548 415.228C99.4189 415.937 96.2498 416.455 93.0582 416.78Z" fill="#EEC5C4"/>
<path d="M81.3364 438.586C82.1839 442.037 83.1746 444.163 86.5766 445.512C89.5321 446.698 92.7321 447.145 95.8992 446.814C98.7435 446.354 101.404 445.114 103.586 443.231C103.586 443.231 107.979 377.802 102.524 369.419C95.8395 359.161 81.229 357.047 69.8294 354.552C59.8623 352.354 49.7638 350.563 39.6892 348.581C37.2303 357.919 39.0088 368.882 42.566 377.492V377.623C43.9856 380.937 46.2821 383.8 49.208 385.904C52.1338 388.008 55.5782 389.274 59.1699 389.565C64.5048 390.018 69.8601 390.186 75.2129 390.066C75.2009 390.126 78.3045 426.226 81.3364 438.586Z" fill="#7BB1FF"/>
<path d="M75.3682 392.467C75.3682 388.729 75.8814 384.167 75.8934 380.429" stroke="#4B4B63" stroke-width="0.4" stroke-miterlimit="10"/>
<path d="M86.9823 474.017H118.997V477.48H88.1282C87.8117 477.48 87.508 477.354 87.2842 477.131C87.0603 476.907 86.9346 476.603 86.9346 476.286V473.969L86.9823 474.017Z" fill="#9393A1"/>
<path d="M118.544 474.949C118.665 474.793 118.769 474.625 118.854 474.447C119.154 473.553 119.157 472.586 118.865 471.689C118.573 470.792 118 470.013 117.231 469.467C115.633 468.352 113.826 467.572 111.919 467.175C107.978 465.969 103.957 465.039 99.8868 464.392C98.8006 464.249 87.1384 463.198 87.1861 462.649L86.649 471.474C86.4282 472.621 86.4282 473.801 86.649 474.949H118.544Z" fill="#4B4B63"/>
<path d="M92.4971 460.224C93.4172 459.528 94.5319 459.136 95.6853 459.104C96.8388 459.072 97.9735 459.401 98.931 460.045C99.8684 460.722 100.621 461.623 101.119 462.666C101.618 463.71 101.846 464.861 101.784 466.016C101.796 466.233 101.766 466.45 101.694 466.655C101.622 466.86 101.511 467.049 101.366 467.21C101.017 467.452 100.594 467.562 100.172 467.521H94.6576C93.464 467.521 92.0554 467.807 91.2557 466.78C89.8233 465.001 91.1721 461.562 92.4971 460.224Z" fill="#4B4B63"/>
<path d="M104.613 465.24C104.071 465.199 103.53 465.331 103.068 465.619C102.606 465.907 102.249 466.335 102.047 466.84" stroke="#9393A1" stroke-width="0.75" stroke-miterlimit="10" stroke-linecap="round"/>
<path d="M105.282 468.046C105.572 467.582 105.973 467.198 106.448 466.927C106.923 466.656 107.457 466.507 108.004 466.494" stroke="#9393A1" stroke-width="0.75" stroke-miterlimit="10" stroke-linecap="round"/>
<path d="M109.328 468.476C109.462 468.132 109.694 467.836 109.996 467.623C110.297 467.411 110.655 467.292 111.023 467.282" stroke="#9393A1" stroke-width="0.75" stroke-miterlimit="10" stroke-linecap="round"/>
<path d="M38.3406 361.251C38.6271 362.756 38.9136 364.26 39.1881 365.765C44.3806 363.054 50.5877 363.639 56.4725 363.639C69.3738 363.606 82.0736 360.434 93.4763 354.396C92.7168 351.286 92.2532 348.112 92.0916 344.915C92.0916 341.642 90.7189 338.466 90.7189 335.194C90.504 330.763 90.7189 326.321 90.8979 321.891C91.3157 313.531 91.8767 305.029 90.313 296.813C89.3661 291.377 87.2124 286.223 84.0105 281.731C82.5184 279.712 80.4294 277.085 78.1615 275.927C75.8935 274.768 72.0857 275.103 69.3641 274.864C67.3831 274.604 65.3768 274.604 63.3958 274.864C60.9739 275.39 58.6709 276.362 56.6038 277.73C45.2997 284.513 43.927 295.452 40.525 307.226C38.83 313.114 36.1562 318.678 34.4612 324.554C33.5227 327.844 33.0959 331.26 33.1959 334.68C33.2675 337.773 34.3896 340.52 35.0222 343.565C36.1363 349.456 37.2424 355.352 38.3406 361.251Z" fill="white"/>
<path d="M70.3193 285.612C72.4388 287.405 75.1634 288.319 77.935 288.167C78.8951 288.161 79.831 287.866 80.6207 287.319C81.0083 287.041 81.2994 286.649 81.4535 286.197C81.6075 285.745 81.6168 285.257 81.4802 284.8" stroke="#4B4B63" stroke-width="0.4" stroke-miterlimit="10" stroke-linecap="round"/>
<path d="M67.7168 310.283C68.9663 314.304 71.1232 317.984 74.0209 321.039C76.9185 324.093 80.4794 326.44 84.4282 327.897" stroke="#4B4B63" stroke-width="0.4" stroke-miterlimit="10" stroke-linecap="round"/>
<path d="M75.0459 316.529C77.1349 318.998 80.083 320.581 83.2942 320.959" stroke="#4B4B63" stroke-width="0.4" stroke-miterlimit="10" stroke-linecap="round"/>
<path d="M60.6143 316.039C63.5463 325.261 68.7132 333.613 75.6545 340.353" stroke="#4B4B63" stroke-width="0.4" stroke-miterlimit="10" stroke-linecap="round"/>
<path d="M86.625 285.17C89.8718 290.759 89.9195 293.935 90.6477 298.867C91.4649 304.401 91.8401 309.992 91.7697 315.586C91.6384 324.948 89.5734 333.498 91.6623 342.789" stroke="#4B4B63" stroke-width="0.4" stroke-miterlimit="10"/>
<path d="M79.8329 273.121C80.3184 271.566 80.9961 270.077 81.8502 268.69C79.3251 268.611 76.8812 267.779 74.8314 266.302C73.819 265.561 72.8761 264.73 72.0144 263.818C71.6921 263.495 71.2146 262.624 70.7252 262.098C70.2 267.723 68.1111 273.013 63.3125 276.225C65.0624 279.128 67.5665 281.501 70.5581 283.092C73.0529 284.537 79.2838 287.343 79.4271 282.28C79.4271 280.62 78.8063 279.091 78.9496 277.408C79.0815 275.95 79.3778 274.512 79.8329 273.121Z" fill="#EEC5C4"/>
<path d="M78.9377 277.849C78.9377 277.706 78.9377 277.551 78.9377 277.408C79.2387 274.321 80.2301 271.341 81.8384 268.69C79.3133 268.611 76.8693 267.779 74.8196 266.302C73.8072 265.561 72.8642 264.73 72.0025 263.818C71.6802 263.495 71.2028 262.624 70.7134 262.098C70.6298 262.922 70.5224 263.734 70.3672 264.487C70.6192 267.239 71.5295 269.889 73.0212 272.215C74.5129 274.541 76.5422 276.474 78.9377 277.849Z" fill="#9393A1"/>
<path d="M42.232 286.113C37.7915 291.188 35.9652 298.055 34.4612 304.456C32.4797 312.759 30.5061 321.051 28.5406 329.33C27.8721 332.208 26.7859 336.137 27.4185 339.075C27.8136 340.699 28.5265 342.229 29.5161 343.575C30.5057 344.922 31.7524 346.059 33.1839 346.921C36.1323 348.7 40.6205 349.5 43.927 347.995C47.2334 346.491 50.7309 345.022 53.0347 342.24C54.8252 340.078 55.422 337.176 55.9114 334.418C56.6276 330.62 57.3319 326.823 58.0481 323.013C60.9487 307.489 63.8493 291.475 60.5667 276.034C53.4291 277.039 46.9066 280.624 42.232 286.113Z" fill="white"/>
<path d="M60.6622 301.542C54.2044 303.214 54.7774 311.478 54.1925 316.577C53.334 324.111 51.9014 331.568 49.9072 338.884" stroke="#4B4B63" stroke-width="0.4" stroke-miterlimit="10"/>
<path d="M55.8164 305.769C56.537 303.512 57.8972 301.512 59.7317 300.013" stroke="#4B4B63" stroke-width="0.4" stroke-miterlimit="10"/>
<path d="M51.9966 336.711C55.4583 337.475 58.8602 338.573 62.2502 339.612C67.6456 341.236 73.1126 342.18 78.5916 343.637C80.1412 344.117 81.7457 344.398 83.3663 344.473C86.1356 344.473 88.8213 343.374 91.5907 343.278C93.4435 343.286 95.2657 343.752 96.8945 344.636C98.5233 345.519 99.9081 346.792 100.925 348.342C104.315 353.525 98.693 352.139 95.1597 352.091L86.8876 351.972C76.0491 351.817 65.7954 352.366 54.9211 353.274C48.9527 353.775 38.711 355.161 33.435 351.65C30.8806 349.954 26.6669 341.654 29.0184 339.171C29.4911 338.742 30.0481 338.416 30.6538 338.215C35.9809 336.106 41.7395 335.319 47.4368 335.922C48.9693 336.106 50.4912 336.369 51.9966 336.711Z" fill="#EEC5C4"/>
<path d="M142.859 363.771H71.2266C70.4289 363.771 69.7822 364.417 69.7822 365.216V365.717C69.7822 366.515 70.4289 367.162 71.2266 367.162H142.859C143.656 367.162 144.303 366.515 144.303 365.717V365.216C144.303 364.417 143.656 363.771 142.859 363.771Z" fill="#4B4B63"/>
<path d="M151.835 367.15H88.1523L93.691 330.549C93.7765 329.938 94.0774 329.379 94.5394 328.972C95.0014 328.564 95.5938 328.336 96.2096 328.327H154.843C155.199 328.336 155.549 328.421 155.87 328.577C156.19 328.734 156.473 328.957 156.7 329.232C156.926 329.507 157.091 329.828 157.182 330.173C157.274 330.518 157.29 330.878 157.23 331.229L151.835 367.15Z" fill="#D9D9DD"/>
<path d="M125.252 351.22C127.586 351.22 129.478 349.327 129.478 346.992C129.478 344.658 127.586 342.765 125.252 342.765C122.918 342.765 121.026 344.658 121.026 346.992C121.026 349.327 122.918 351.22 125.252 351.22Z" fill="white"/>
<path d="M92.45 249.81C91.7219 246.968 88.678 249.452 85.8968 248.497C83.5094 247.661 81.6473 246.92 79.069 247.374C76.7264 247.729 74.5992 248.942 73.1006 250.777C72.7161 251.264 72.3575 251.77 72.0263 252.294C71.1479 254.089 70.4328 255.959 69.8896 257.883V258.014C70.0149 261.61 71.2121 265.087 73.3274 267.997C74.2703 269.384 75.5666 270.492 77.082 271.208C78.5974 271.924 80.2767 272.222 81.9457 272.07C83.8525 271.846 85.615 270.943 86.9114 269.526C88.3267 267.936 89.4428 266.104 90.2059 264.116C91.4832 261.143 93.2498 252.939 92.45 249.81Z" fill="#EEC5C4"/>
<path d="M79.0209 252.581C79.0209 252.453 79.0448 252.31 79.0925 252.151L79.8445 248.568C82.8407 250.813 86.0874 254.002 89.9669 255.291C91.4166 255.75 92.9724 255.751 94.4226 255.293C95.8727 254.836 97.147 253.943 98.0719 252.736C98.3912 252.292 98.6709 251.82 98.9075 251.327C99.0567 250.898 99.2321 250.48 99.4327 250.073C98.8716 250.363 98.227 250.447 97.6102 250.312C96.9935 250.177 96.4432 249.83 96.0546 249.332C95.3067 248.318 94.7375 247.183 94.3715 245.977C93.2589 243.213 91.3783 240.826 88.9522 239.098C86.5214 237.386 83.554 236.61 80.5966 236.913C78.7387 237.135 76.9723 237.844 75.4757 238.967C74.7293 239.515 74.0729 240.175 73.53 240.925C73.2794 241.272 72.217 243.17 72.6467 243.541C72.2999 243.295 71.8884 243.158 71.4638 243.145C71.0392 243.132 70.6203 243.245 70.2594 243.469C69.5113 243.953 68.9023 244.624 68.4927 245.416C66.6477 248.675 65.9658 252.465 66.559 256.163C66.8603 257.73 67.3409 259.256 67.9914 260.713C68.4808 261.907 69.2806 263.316 70.7726 263.352C72.8496 263.352 72.6109 259.925 73.16 258.134C73.3868 257.429 73.339 256.557 74.1746 256.342C75.0102 256.127 76.3948 257.739 77.0514 256.426C77.2189 255.918 77.2189 255.369 77.0514 254.862C76.8836 254.351 76.9178 253.795 77.1468 253.309C77.1468 253.309 78.245 253.309 78.4121 253.309C78.5829 253.278 78.7373 253.188 78.8486 253.055C78.9599 252.922 79.0209 252.754 79.0209 252.581Z" fill="#4B4B63"/>
<path d="M73.9125 238.25C73.1122 239.34 72.6126 240.621 72.4638 241.964C72.315 243.308 72.5224 244.667 73.065 245.905" stroke="#4B4B63" stroke-width="0.75" stroke-miterlimit="10" stroke-linecap="round"/>
<path d="M68.2061 242.86C68.8762 242.466 69.662 242.316 70.4301 242.436C71.1982 242.555 71.9012 242.937 72.4197 243.517" stroke="#4B4B63" stroke-width="0.75" stroke-miterlimit="10" stroke-linecap="round"/>
<path d="M84.6547 260.438C85.1689 260.438 85.5858 260.021 85.5858 259.507C85.5858 258.992 85.1689 258.575 84.6547 258.575C84.1405 258.575 83.7236 258.992 83.7236 259.507C83.7236 260.021 84.1405 260.438 84.6547 260.438Z" fill="#4B4B63"/>
<path d="M83.9268 256.987C84.5406 256.797 85.2003 256.818 85.8008 257.047" stroke="#4B4B63" stroke-width="0.75" stroke-miterlimit="10" stroke-linecap="round"/>
<path d="M91.4588 260.45C91.4588 260.634 91.4042 260.815 91.3019 260.968C91.1996 261.121 91.0542 261.24 90.884 261.311C90.7139 261.381 90.5267 261.4 90.3461 261.364C90.1655 261.328 89.9996 261.239 89.8694 261.109C89.7392 260.979 89.6505 260.813 89.6146 260.632C89.5786 260.451 89.5971 260.264 89.6676 260.094C89.738 259.924 89.8574 259.778 90.0105 259.676C90.1636 259.573 90.3436 259.519 90.5277 259.519C90.7747 259.519 91.0115 259.617 91.1861 259.792C91.3607 259.966 91.4588 260.203 91.4588 260.45Z" fill="#4B4B63"/>
<path d="M89.8115 257.943C90.4214 257.753 91.0771 257.774 91.6736 258.002" stroke="#4B4B63" stroke-width="0.75" stroke-miterlimit="10" stroke-linecap="round"/>
<path d="M88.1169 260.94C88.0155 261.765 88.2332 262.598 88.7256 263.269C88.8815 263.417 88.979 263.616 89.0002 263.83C88.9814 263.943 88.9294 264.047 88.8506 264.13C88.7719 264.213 88.6702 264.271 88.5585 264.296C88.3308 264.349 88.0939 264.349 87.8662 264.296" stroke="#4B4B63" stroke-width="0.75" stroke-miterlimit="10" stroke-linecap="round"/>
<path d="M83.9268 266.003C84.3648 266.379 84.8833 266.648 85.4422 266.791C86.001 266.934 86.5853 266.946 87.1497 266.827" stroke="#4B4B63" stroke-width="0.75" stroke-miterlimit="10" stroke-linecap="round"/>
<path d="M69.6865 257.811C69.6842 258.487 69.8824 259.149 70.2561 259.712C70.6298 260.275 71.1621 260.715 71.7857 260.975C72.4093 261.235 73.0961 261.305 73.7591 261.174C74.4221 261.044 75.0315 260.719 75.5102 260.242C75.9888 259.765 76.3151 259.157 76.4478 258.494C76.5805 257.831 76.5136 257.144 76.2556 256.519C75.9976 255.894 75.56 255.36 74.9983 254.984C74.4367 254.608 73.7762 254.408 73.1004 254.408C72.1971 254.408 71.3306 254.766 70.6907 255.404C70.0508 256.042 69.6897 256.907 69.6865 257.811Z" fill="#EEC5C4"/>
<path d="M72.4082 256.354C72.6551 256.326 72.9052 256.36 73.1362 256.451C73.3673 256.543 73.5723 256.69 73.7331 256.88C73.8858 257.077 73.9883 257.308 74.032 257.553C74.0756 257.799 74.0591 258.051 73.9838 258.289C73.8333 258.156 73.647 258.071 73.4483 258.045C73.2496 258.018 73.0475 258.051 72.8675 258.139C72.6874 258.227 72.5375 258.367 72.4366 258.54C72.3358 258.713 72.2885 258.913 72.3007 259.113" stroke="#4B4B63" stroke-width="0.75" stroke-linecap="round" stroke-linejoin="round"/>
<path d="M451.768 453.047C451.673 452.617 439.486 454.755 438.137 454.958L437.982 455.089C433.768 458.672 428.432 460.618 423.192 462.517C422.36 462.743 421.599 463.179 420.984 463.783C418.596 466.565 423.646 467.772 425.436 467.915C428.349 468.011 431.263 467.726 434.102 467.067C439.975 466.04 445.955 466.374 451.768 464.941C452.006 464.908 452.225 464.794 452.389 464.619C452.487 464.457 452.536 464.271 452.532 464.082C452.85 460.386 452.592 456.664 451.768 453.047Z" fill="#4B4B63"/>
<path d="M425.078 367.293C428.026 396.646 433.434 426.775 436.752 456.093C443.628 456.69 446.122 456.236 452.795 455.101C457.176 423.205 459.026 407.812 455.075 375.45C454.669 372.13 455.075 344.628 454.908 341.093C454.204 320.064 457.009 296.049 444.392 278.291C441.193 273.801 435.976 270.362 430.664 270.78C428.836 270.958 427.069 271.54 425.492 272.484C423.915 273.428 422.567 274.71 421.545 276.237C415.027 285.086 418.668 309.149 419.826 319.658C421.366 333.594 423.681 353.31 425.078 367.293Z" fill="#9393A1"/>
<path d="M427.155 385.552C428.349 380.465 429.805 375.438 431.237 370.41C436.251 352.82 438.328 334.752 440.847 316.672C441.55 312.404 441.921 308.088 441.957 303.763C441.885 299.369 441.3 294.962 440.954 290.627C440.618 284.629 439.808 278.668 438.531 272.798C436.196 271.333 433.464 270.628 430.712 270.78C428.883 270.958 427.117 271.54 425.54 272.484C423.963 273.428 422.615 274.71 421.593 276.237C415.075 285.086 418.716 309.149 419.874 319.658C421.414 333.594 423.729 353.31 425.126 367.293C425.687 373.288 426.391 379.39 427.155 385.552Z" fill="#4B4B63"/>
<path d="M404.762 457.12H404.403C400.493 457.595 396.539 457.575 392.634 457.06C392.136 456.976 391.628 456.976 391.13 457.06C390.704 457.191 390.301 457.388 389.936 457.645C386.266 459.874 382.221 461.416 377.999 462.195C375.612 462.649 372.986 462.899 371.064 464.428C370.169 465.156 369.465 466.482 370.145 467.413C370.403 467.71 370.726 467.943 371.088 468.094C374.753 469.814 380.291 469.145 384.218 468.918C390.581 468.572 396.883 468.918 403.162 467.724C403.42 467.694 403.666 467.599 403.878 467.449C404.139 467.183 404.306 466.839 404.356 466.47C404.766 464.729 405.081 462.967 405.299 461.192C405.382 460.499 405.776 457.979 405.299 457.382C405.235 457.301 405.153 457.235 405.06 457.19C404.967 457.144 404.865 457.12 404.762 457.12Z" fill="#4B4B63"/>
<path d="M420.328 274.804C405.86 274.577 401.432 289.684 399.713 301.303C396.068 325.839 393.518 350.519 392.061 375.342C391.333 387.666 390.366 398.032 389.961 410.403C389.531 423.073 388.838 445.034 389.388 457.585C389.377 457.84 389.448 458.091 389.59 458.302C389.808 458.494 390.088 458.6 390.378 458.6C395.684 459.159 401.03 459.235 406.35 458.827C406.603 458.828 406.851 458.758 407.066 458.624C407.293 458.469 405.251 457.657 405.335 457.43C409.405 444.855 412.199 422.369 413.476 409.233C416.138 381.767 421.832 355.017 432.085 329.641C442.327 305.602 448.08 275.27 420.328 274.804Z" fill="#9393A1"/>
<path d="M426.26 344.461C432.068 330.592 437.055 316.392 441.193 301.936" stroke="#4B4B63" stroke-width="0.75" stroke-miterlimit="10"/>
<path d="M423.168 307.358H423.311C424.64 307.573 425.965 307.764 427.286 307.931C428.265 308.05 429.244 308.158 430.223 308.241L431.19 308.337L433.577 308.504H434.974H436.06C442.307 308.706 448.559 308.266 454.717 307.19C453.798 296.097 451.375 285.409 444.929 276.345C441.742 271.867 436.513 268.415 431.202 268.833C429.374 269.012 427.61 269.594 426.035 270.538C424.459 271.482 423.114 272.763 422.094 274.291C421.591 274.988 421.163 275.737 420.817 276.524C408.247 276.237 402.697 288.908 399.892 299.595C402.744 301.272 405.765 302.645 408.904 303.691C413.542 305.329 418.315 306.555 423.168 307.358Z" fill="#4B4B63"/>
<path d="M429.47 195.917C429.559 194.293 429.443 192.664 429.124 191.069C431.519 191.875 434.101 191.946 436.537 191.272C437.745 190.932 438.919 190.485 440.046 189.934C440.452 189.743 441.24 189.146 441.849 188.74C440.381 194.185 440.488 199.882 443.866 204.563C441.217 206.674 438.044 208.024 434.687 208.468C431.834 208.957 425.018 209.399 426.653 204.611C427.19 203.034 428.348 201.828 428.802 200.204C429.177 198.803 429.401 197.366 429.47 195.917Z" fill="#EEC5C4"/>
<path d="M436.072 191.379C433.773 191.929 431.366 191.821 429.125 191.069C429.444 192.664 429.56 194.293 429.471 195.917C429.404 197.378 429.18 198.827 428.802 200.24L428.659 200.67C428.934 200.67 429.22 200.586 429.495 200.526C432.667 198.318 434.988 195.09 436.072 191.379Z" fill="#EEC5C4"/>
<path d="M425.782 169.669C427.453 167.28 429.447 170.648 432.371 170.72C434.926 170.791 436.907 170.72 439.163 172.057C441.228 173.208 442.794 175.085 443.556 177.323C443.741 177.912 443.897 178.51 444.021 179.115C444.199 181.101 444.199 183.099 444.021 185.086V185.205C442.65 188.53 440.318 191.369 437.325 193.361C435.95 194.336 434.34 194.925 432.661 195.068C430.982 195.21 429.295 194.902 427.775 194.173C426.073 193.29 424.74 191.83 424.015 190.053C423.247 188.068 422.843 185.961 422.822 183.832C422.726 180.631 423.932 172.332 425.782 169.669Z" fill="#EEC5C4"/>
<path d="M429.089 175.27C426.797 175.592 424.923 175.962 422.822 174.732C421.217 173.785 420.021 172.273 419.468 170.493C419.325 169.965 419.23 169.425 419.182 168.881C419.182 168.63 419.182 167.686 419.182 167.519C419.604 167.987 420.177 168.292 420.8 168.381C421.424 168.471 422.059 168.339 422.596 168.009C423.652 167.319 424.585 166.455 425.353 165.453C427.354 163.247 429.949 161.663 432.825 160.892C435.715 160.143 438.777 160.456 441.456 161.775C443.116 162.637 444.524 163.917 445.538 165.489C446.058 166.265 446.46 167.115 446.732 168.009C446.839 168.427 447.161 170.576 446.636 170.767C447.055 170.652 447.499 170.665 447.909 170.806C448.32 170.947 448.68 171.208 448.94 171.556C449.441 172.261 449.753 173.083 449.847 173.944C450.274 176.846 449.907 179.809 448.785 182.518C447.92 184.557 446.952 186.549 445.884 188.489C444.984 190.147 443.613 191.502 441.945 192.382C439.736 193.241 437.347 193.529 434.998 193.218C433.991 193.274 432.992 193.018 432.137 192.483C431.282 191.949 430.613 191.162 430.223 190.233C429.859 189.232 429.657 188.18 429.626 187.116C429.626 186.674 429.388 183.605 429.746 183.414C429.319 183.673 428.844 183.844 428.349 183.915C428.099 183.947 427.845 183.905 427.618 183.795C427.391 183.684 427.202 183.511 427.072 183.294C426.925 182.844 426.946 182.357 427.131 181.921L429.089 175.27Z" fill="#4B4B63"/>
<path d="M447.197 165.274C447.564 166.576 447.583 167.952 447.252 169.264C446.921 170.576 446.252 171.778 445.311 172.75" stroke="#4B4B63" stroke-width="0.75" stroke-miterlimit="10" stroke-linecap="round"/>
<path d="M450.921 171.615C450.427 171.017 449.742 170.607 448.982 170.452C448.222 170.298 447.431 170.409 446.743 170.767" stroke="#4B4B63" stroke-width="0.75" stroke-miterlimit="10" stroke-linecap="round"/>
<path d="M434.508 185.133C434.272 185.766 433.853 186.315 433.305 186.71C432.758 187.105 432.105 187.328 431.431 187.352C430.756 187.376 430.089 187.199 429.515 186.844C428.94 186.489 428.484 185.972 428.204 185.357C427.923 184.743 427.831 184.059 427.94 183.392C428.048 182.726 428.351 182.106 428.811 181.612C429.271 181.117 429.867 180.77 430.524 180.615C431.181 180.46 431.87 180.503 432.502 180.739C432.922 180.896 433.308 181.134 433.636 181.439C433.964 181.745 434.229 182.112 434.415 182.521C434.601 182.929 434.705 183.369 434.721 183.818C434.737 184.266 434.665 184.713 434.508 185.133Z" fill="#EEC5C4"/>
<path d="M432.444 182.805C432.225 182.681 431.978 182.616 431.727 182.616C431.476 182.616 431.23 182.681 431.011 182.805C430.803 182.93 430.629 183.104 430.504 183.312C430.379 183.521 430.307 183.756 430.295 183.999C430.481 183.927 430.684 183.911 430.878 183.955C431.073 183.998 431.25 184.099 431.387 184.244C431.524 184.389 431.615 184.571 431.648 184.768C431.681 184.965 431.655 185.167 431.572 185.348" stroke="#4B4B63" stroke-width="0.75" stroke-linecap="round" stroke-linejoin="round"/>
<path d="M387.131 223.837C387.233 223.298 387.472 222.796 387.825 222.377C388.179 221.959 388.635 221.639 389.148 221.448C390.199 221.09 391.977 221.09 392.335 220.027C392.502 219.502 392.681 219.299 392.252 218.941C391.81 218.598 391.27 218.406 390.712 218.391C389.85 218.353 388.994 218.556 388.241 218.978C387.488 219.4 386.868 220.024 386.45 220.78C386.2 221.245 385.842 221.854 385.34 221.711C385.225 221.66 385.121 221.586 385.034 221.494C384.948 221.402 384.882 221.293 384.839 221.174C384.242 219.788 385.066 218.224 385.866 216.934C386.426 215.861 387.247 214.945 388.253 214.271C389.481 213.724 390.84 213.542 392.168 213.746C394.854 213.937 397.683 214.14 399.963 215.74C400.56 216.158 401.157 216.648 401.694 217.078C403.278 218.08 404.999 218.848 406.803 219.359C406.253 221.281 405.692 223.204 405.143 225.138C405.118 225.239 405.064 225.33 404.988 225.401C404.884 225.437 404.77 225.437 404.666 225.401C401.395 224.601 397.623 223.932 394.341 223.419C391.93 223.201 389.5 223.342 387.131 223.837Z" fill="#EEC5C4"/>
<path d="M405.108 215.083C402.094 218.895 400.517 223.647 400.656 228.506L406.958 231.026C407.687 227.694 408.403 224.362 409.131 221.03C409.346 220.027 410.241 217.902 409.668 217.078C409.095 216.254 406.135 215.561 405.108 215.083Z" fill="white"/>
<path d="M426.785 222.977C425.044 221.906 423.234 220.952 421.366 220.123C418.119 218.666 414.717 217.472 411.458 216.349C410.216 215.868 408.944 215.469 407.65 215.155C404.069 218.941 402.876 225.353 403.293 230.679C407.03 233.951 412.497 235.898 416.615 238.465C418.874 240.004 421.271 241.327 423.777 242.418C426.292 243.514 429.098 243.753 431.763 243.099C432.457 242.943 433.11 242.642 433.68 242.216C434.25 241.79 434.723 241.249 435.069 240.627C435.396 239.8 435.535 238.911 435.475 238.024C435.35 235 434.494 232.051 432.98 229.431C431.467 226.81 429.341 224.596 426.785 222.977Z" fill="#4B4B63"/>
<path d="M365.24 243.983C364.53 242.736 364.101 241.35 363.982 239.921C363.862 238.492 364.055 237.054 364.547 235.707C364.695 235.198 364.954 234.729 365.305 234.333C365.656 233.936 366.09 233.622 366.576 233.414C367.201 233.283 367.85 233.342 368.439 233.585C369.029 233.828 369.532 234.243 369.883 234.775C370.56 235.851 371.102 237.006 371.494 238.215C372.019 239.494 372.709 240.698 373.548 241.797C374.541 242.805 375.286 244.032 375.72 245.38C375.814 245.941 375.773 246.516 375.601 247.058C375.429 247.6 375.13 248.093 374.729 248.497C371.685 251.47 366.696 246.61 365.24 243.983Z" fill="#EEC5C4"/>
<path d="M399.009 242.167L380.901 250.957L356.932 229.199L375.052 220.409L399.009 242.167Z" fill="#EEC5C4"/>
<path d="M396.048 241.26L380.494 248.807L359.784 230.011L375.35 222.463L396.048 241.26Z" fill="white"/>
<path d="M377.713 226.44L364.786 232.71L363.521 231.563L376.448 225.294L377.713 226.44Z" fill="#D6EBFF"/>
<path d="M384.314 232.435L371.386 238.704L370.121 237.558L383.049 231.288L384.314 232.435Z" fill="#D6EBFF"/>
<path d="M386.498 234.429L373.571 240.699L372.317 239.552L385.245 233.283L386.498 234.429Z" fill="#D6EBFF"/>
<path d="M388.695 236.411L375.767 242.681L374.502 241.535L387.429 235.265L388.695 236.411Z" fill="#D6EBFF"/>
<path d="M390.879 238.394L377.952 244.663L376.687 243.529L389.614 237.259L390.879 238.394Z" fill="#D6EBFF"/>
<path d="M393.064 240.388L380.136 246.658L378.871 245.511L391.81 239.242L393.064 240.388Z" fill="#D6EBFF"/>
<path d="M374.574 224.231L363.7 229.509L359.08 225.306L369.954 220.039L374.574 224.231Z" fill="#4B4B63"/>
<path d="M367.114 241.988C366.933 242.202 366.77 242.43 366.624 242.669C365.252 244.866 367.901 246.908 369.596 248.102C373.416 250.789 378.095 252.091 382.548 253.381C385.055 254.109 392.312 252.318 390.307 248.377C388.934 245.69 384.887 244.138 382.225 243.421C379.456 242.908 377.093 241.749 376.054 238.943C375.601 237.749 375.41 236.364 375.004 235.098C374.929 234.778 374.768 234.485 374.538 234.25C374.421 234.136 374.27 234.065 374.107 234.047C373.945 234.03 373.781 234.068 373.643 234.154C373.507 234.279 373.411 234.441 373.368 234.62C372.593 236.782 373.977 238.382 371.315 239.66C370.432 240.078 369.465 240.316 368.606 240.782C368.043 241.096 367.538 241.504 367.114 241.988Z" fill="#EEC5C4"/>
<path d="M380.459 239.648C377.871 243.759 376.815 248.651 377.475 253.464L384.016 255.291L385.091 245.129C385.198 244.114 385.854 241.893 385.21 241.14C384.565 240.388 381.521 239.97 380.459 239.648Z" fill="white"/>
<path d="M425.269 200.192C426.675 199.178 428.37 198.642 430.103 198.663L443.377 197.469C444.213 200.431 445.052 203.392 445.896 206.354C445.896 206.235 431.572 206.796 430.175 206.76C428.778 206.724 424.075 207.178 423.479 205.829C422.882 204.479 424.207 201.231 425.269 200.192Z" fill="white"/>
<path d="M454.359 274.004C454.359 269.287 454.633 264.582 454.932 259.877C455.325 253.751 455.791 247.625 455.863 241.475C456.057 233.837 455.55 226.198 454.347 218.654C454.024 216.779 453.63 214.928 453.153 213.113C453.058 212.731 452.962 212.337 452.855 211.919C451.434 208.539 448.76 204.049 445.191 202.055C444.599 202.019 444.005 202.019 443.413 202.055C439.306 202.326 435.224 202.779 431.166 203.416C428.372 203.846 426.391 204.204 424.338 206.342C419.098 211.799 414.18 224.028 412.807 231.551C411.506 238.716 412.019 239.146 411.267 246.383C410.384 255.005 409.13 263.579 407.507 272.105C406.134 279.271 404.093 287.08 398.137 291.32C408.02 295.464 418.023 299.679 428.611 301.303C439.199 302.927 450.599 301.852 459.647 296.037C455.361 289.517 454.335 281.826 454.359 274.004Z" fill="#9393A1"/>
<path d="M429.913 225.437C429.547 224.623 428.98 223.916 428.265 223.383C427.446 222.894 426.495 222.673 425.544 222.75C421.402 222.941 418.119 226.333 415.911 229.832C413.702 233.33 411.984 237.307 408.832 239.994C403.33 244.699 390.068 240.866 383.908 239.492C379.217 244.078 378.716 249.392 381.151 255.578C389.411 259.161 406.791 267.818 415.768 263.531C418.839 261.904 421.403 259.462 423.18 256.474C424.284 254.761 425.288 252.987 426.188 251.16C428.392 247.222 430.066 243.01 431.166 238.633C432.275 234.221 431.832 229.561 429.913 225.437Z" fill="#9393A1"/>
<path d="M433.588 210.522C432.192 209.144 430.373 208.277 428.424 208.06C426.475 207.843 424.51 208.29 422.845 209.327C420.9 210.522 419.909 213.065 418.906 215.06C417.66 217.533 416.598 220.096 415.731 222.726C414.848 225.413 414.167 228.16 413.344 230.87C411.983 235.301 410.216 239.624 409.202 244.15C408.187 248.676 408.008 253.536 409.655 257.847C412.043 264.009 420.196 260.737 423.812 257.31C426.916 254.36 428.408 250.144 429.781 246.072C431.153 242 432.574 237.916 433.959 233.832C435.425 229.837 436.356 225.664 436.728 221.425C436.967 217.305 436.25 213.352 433.588 210.522Z" fill="#9393A1"/>
<path d="M411.625 236.113C413.565 227.061 416.947 218.38 421.64 210.402" stroke="#4B4B63" stroke-width="0.75" stroke-miterlimit="10"/>
<path d="M436.382 228.387L431.047 242.717C429.77 246.156 428.564 250.551 426.141 253.381C423.718 256.211 421.473 259.352 418.513 261.621C415.698 264.02 412.072 265.25 408.379 265.06" stroke="#4B4B63" stroke-width="0.75" stroke-miterlimit="10"/>
<path d="M438.328 229.652C436.714 230.574 435.387 231.926 434.496 233.557" stroke="#4B4B63" stroke-width="0.75" stroke-miterlimit="10"/>
<path d="M382.559 227.563L380.423 228.757L381.509 226.583L394.365 213.173C394.432 213.104 394.511 213.05 394.6 213.012C394.688 212.975 394.782 212.956 394.878 212.956C394.974 212.956 395.069 212.975 395.157 213.012C395.245 213.05 395.325 213.104 395.391 213.173C395.525 213.313 395.599 213.499 395.599 213.692C395.599 213.886 395.525 214.072 395.391 214.212L382.559 227.563Z" fill="#4B4B63"/>
</g>
<defs>
<clipPath id="clip0_120_1110">
<rect width="516" height="480" fill="white"/>
</clipPath>
</defs>
</svg>
