<svg width="161" height="160" viewBox="0 0 161 160" fill="none" xmlns="http://www.w3.org/2000/svg">
<path opacity="0.15" d="M99.5863 20.3043L20.8046 99.0861C9.59067 110.3 9.59067 128.481 20.8046 139.695C32.0185 150.909 50.1998 150.909 61.4137 139.695L140.195 60.9135C151.409 49.6996 151.409 31.5182 140.195 20.3043C128.982 9.09043 110.8 9.09043 99.5863 20.3043Z" fill="#055FE1"/>
<path d="M27.0918 26.0156H50.0638V117.904H27.0918V26.0156Z" fill="#055FE1"/>
<path d="M98.3047 38.6504H121.277V119.052H98.3047V38.6504Z" fill="#7BB1FF"/>
<path d="M62.6982 65.0681H85.6702V116.755H62.6982V65.0681Z" fill="white"/>
<path d="M133.337 73.1083C131.86 73.1083 130.417 72.6705 129.189 71.8501C127.961 71.0297 127.004 69.8637 126.439 68.4995C125.874 67.1353 125.726 65.6341 126.015 64.1859C126.303 62.7376 127.014 61.4074 128.058 60.3632C129.102 59.3191 130.432 58.608 131.88 58.32C133.329 58.0319 134.83 58.1797 136.194 58.7448C137.558 59.3099 138.724 60.2668 139.545 61.4946C140.365 62.7223 140.803 64.1658 140.803 65.6424C140.8 67.6216 140.012 69.5188 138.613 70.9183C137.213 72.3177 135.316 73.1053 133.337 73.1083ZM133.337 61.6223C132.542 61.6223 131.765 61.8581 131.104 62.2998C130.442 62.7416 129.927 63.3694 129.623 64.104C129.319 64.8386 129.239 65.6469 129.394 66.4267C129.549 67.2065 129.932 67.9228 130.494 68.4851C131.057 69.0473 131.773 69.4302 132.553 69.5853C133.333 69.7404 134.141 69.6608 134.875 69.3565C135.61 69.0522 136.238 68.537 136.68 67.8759C137.121 67.2148 137.357 66.4375 137.357 65.6424C137.357 64.5762 136.934 63.5537 136.18 62.7998C135.426 62.0459 134.403 61.6223 133.337 61.6223Z" fill="#4B4B63"/>
<path d="M64.421 52.4335C62.9444 52.4335 61.5009 51.9956 60.2732 51.1753C59.0454 50.3549 58.0885 49.1889 57.5234 47.8247C56.9583 46.4605 56.8105 44.9593 57.0985 43.5111C57.3866 42.0628 58.0977 40.7325 59.1418 39.6884C60.1859 38.6443 61.5162 37.9332 62.9645 37.6452C64.4127 37.3571 65.9138 37.5049 67.2781 38.07C68.6423 38.6351 69.8083 39.592 70.6287 40.8198C71.449 42.0475 71.8869 43.491 71.8869 44.9676C71.8838 46.9468 71.0963 48.844 69.6968 50.2434C68.2973 51.6429 66.4001 52.4305 64.421 52.4335ZM64.421 40.9475C63.6259 40.9475 62.8486 41.1833 62.1875 41.625C61.5264 42.0668 61.0112 42.6946 60.7069 43.4292C60.4026 44.1638 60.323 44.9721 60.4781 45.7519C60.6332 46.5317 61.0161 47.248 61.5783 47.8103C62.1406 48.3725 62.8569 48.7553 63.6367 48.9105C64.4165 49.0656 65.2248 48.986 65.9594 48.6817C66.694 48.3774 67.3218 47.8622 67.7636 47.2011C68.2053 46.54 68.4411 45.7627 68.4411 44.9676C68.4411 43.9014 68.0175 42.8789 67.2636 42.125C66.5097 41.3711 65.4872 40.9475 64.421 40.9475Z" fill="#7BB1FF"/>
<path d="M76.768 131.112C78.5125 131.112 79.9267 129.698 79.9267 127.954C79.9267 126.209 78.5125 124.795 76.768 124.795C75.0236 124.795 73.6094 126.209 73.6094 127.954C73.6094 129.698 75.0236 131.112 76.768 131.112Z" fill="#7BB1FF"/>
<path d="M42.31 20.8471C44.0545 20.8471 45.4687 19.4329 45.4687 17.6884C45.4687 15.944 44.0545 14.5298 42.31 14.5298C40.5655 14.5298 39.1514 15.944 39.1514 17.6884C39.1514 19.4329 40.5655 20.8471 42.31 20.8471Z" fill="#7BB1FF"/>
<path d="M144.536 125.37C146.28 125.37 147.694 123.955 147.694 122.211C147.694 120.466 146.28 119.052 144.536 119.052C142.791 119.052 141.377 120.466 141.377 122.211C141.377 123.955 142.791 125.37 144.536 125.37Z" fill="#055FE1"/>
<path d="M19.3383 49.5619C21.0828 49.5619 22.497 48.1478 22.497 46.4033C22.497 44.6588 21.0828 43.2446 19.3383 43.2446C17.5939 43.2446 16.1797 44.6588 16.1797 46.4033C16.1797 48.1478 17.5939 49.5619 19.3383 49.5619Z" fill="#055FE1"/>
<path d="M52.3612 119.052H25.9434V23.7185H52.3612V119.052ZM29.3892 115.607H48.9154V27.1643H29.3892V115.607Z" fill="#4B4B63"/>
<path d="M87.9676 119.627H61.5498V63.3452H87.9676V119.627ZM64.9956 116.181H84.5218V66.791H64.9956V116.181Z" fill="#4B4B63"/>
<path d="M123.574 120.201H97.1562V38.6504H123.574V120.201ZM100.602 116.755H120.128V42.0962H100.602V116.755Z" fill="#4B4B63"/>
<path d="M43.9414 30.6101H46.2386V46.6905H43.9414V30.6101Z" fill="white"/>
<path d="M43.9414 48.9875H46.2386V55.8791H43.9414V48.9875Z" fill="white"/>
<path d="M43.9414 58.1765H46.2386V60.4737H43.9414V58.1765Z" fill="white"/>
<path d="M119.588 112.838H121.885V127.414H119.588V112.838Z" fill="white"/>
<path d="M119.588 129.493H121.885V135.742H119.588V129.493Z" fill="white"/>
<path d="M119.588 137.821H121.885V139.9H119.588V137.821Z" fill="white"/>
<path d="M118.784 140.68C135.386 140.68 148.843 127.222 148.843 110.621C148.843 94.0203 135.386 80.5625 118.784 80.5625C102.183 80.5625 88.7256 94.0203 88.7256 110.621C88.7256 127.222 102.183 140.68 118.784 140.68Z" fill="white"/>
<path d="M119.83 135.006C133.297 135.006 144.215 124.089 144.215 110.622C144.215 97.1542 133.297 86.2368 119.83 86.2368C106.363 86.2368 95.4453 97.1542 95.4453 110.622C95.4453 124.089 106.363 135.006 119.83 135.006Z" fill="#B2A3EF"/>
<path d="M118.784 136.73C113.621 136.73 108.573 135.198 104.28 132.33C99.9864 129.461 96.6401 125.383 94.6641 120.613C92.6881 115.842 92.1711 110.593 93.1784 105.528C94.1858 100.464 96.6723 95.8122 100.324 92.1609C103.975 88.5097 108.627 86.0232 113.691 85.0158C118.755 84.0085 124.005 84.5255 128.775 86.5015C133.546 88.4775 137.623 91.8238 140.492 96.1172C143.361 100.411 144.892 105.458 144.892 110.622C144.883 117.543 142.129 124.179 137.235 129.073C132.341 133.967 125.706 136.72 118.784 136.73ZM118.784 87.9485C114.302 87.9485 109.921 89.2776 106.194 91.7677C102.467 94.2578 99.5628 97.7971 97.8476 101.938C96.1324 106.079 95.6836 110.635 96.558 115.031C97.4324 119.427 99.5908 123.465 102.76 126.635C105.929 129.804 109.967 131.962 114.363 132.837C118.759 133.711 123.316 133.262 127.457 131.547C131.598 129.832 135.137 126.927 137.627 123.201C140.117 119.474 141.446 115.092 141.446 110.61C141.434 104.605 139.042 98.849 134.795 94.6035C130.547 90.358 124.79 87.9691 118.784 87.96V87.9485Z" fill="#4B4B63"/>
<path d="M116.579 121.511C116.126 121.509 115.685 121.369 115.315 121.109L106.506 114.941C106.131 114.679 105.876 114.279 105.796 113.828C105.716 113.378 105.819 112.915 106.081 112.54C106.343 112.165 106.743 111.91 107.193 111.83C107.643 111.751 108.106 111.853 108.481 112.115L116.315 117.571L129.099 100.526C129.237 100.345 129.41 100.193 129.608 100.079C129.805 99.9646 130.023 99.8905 130.249 99.8607C130.476 99.8308 130.705 99.8458 130.926 99.9047C131.146 99.9636 131.353 100.065 131.534 100.204C131.715 100.343 131.866 100.516 131.981 100.713C132.095 100.911 132.169 101.129 132.199 101.355C132.229 101.581 132.214 101.811 132.155 102.031C132.096 102.252 131.994 102.458 131.855 102.639L118.348 120.615C118.143 120.892 117.877 121.117 117.57 121.273C117.262 121.428 116.923 121.51 116.579 121.511Z" fill="white"/>
</svg>
