<svg width="161" height="160" viewBox="0 0 161 160" fill="none" xmlns="http://www.w3.org/2000/svg">
<path d="M100.086 20.3046L21.3046 99.0863C10.0907 110.3 10.0907 128.482 21.3046 139.695C32.5185 150.909 50.6998 150.909 61.9137 139.695L140.695 60.9137C151.909 49.6998 151.909 31.5185 140.695 20.3046C129.482 9.09067 111.3 9.09067 100.086 20.3046Z" fill="#C6E3FF"/>
<path d="M44.2461 101.261V56.4653L116.608 57.0396V99.5378" fill="white"/>
<path d="M66.9537 138.407L63.9443 136.707L79.2781 109.623L95.0599 136.443L92.0965 138.188L79.3356 116.514L66.9537 138.407Z" fill="#4B4B63"/>
<path d="M117.193 55.8795C121.634 55.8795 125.233 52.2798 125.233 47.8393C125.233 43.3988 121.634 39.7991 117.193 39.7991H41.3856C36.9451 39.7991 33.3454 43.3988 33.3454 47.8393C33.3454 52.2798 36.9451 55.8795 41.3856 55.8795H117.193Z" fill="#7BB1FF"/>
<path d="M128.094 92.6344C126.617 92.6344 125.174 92.1966 123.946 91.3762C122.718 90.5558 121.761 89.3898 121.196 88.0256C120.631 86.6614 120.483 85.1603 120.771 83.712C121.059 82.2638 121.771 80.9335 122.815 79.8894C123.859 78.8452 125.189 78.1342 126.637 77.8461C128.086 77.558 129.587 77.7059 130.951 78.2709C132.315 78.836 133.481 79.793 134.301 81.0207C135.122 82.2485 135.56 83.6919 135.56 85.1685C135.557 87.1477 134.769 89.0449 133.37 90.4444C131.97 91.8438 130.073 92.6314 128.094 92.6344ZM128.094 81.1484C127.299 81.1484 126.521 81.3842 125.86 81.826C125.199 82.2677 124.684 82.8955 124.38 83.6301C124.075 84.3647 123.996 85.173 124.151 85.9528C124.306 86.7326 124.689 87.449 125.251 88.0112C125.813 88.5734 126.53 88.9563 127.31 89.1114C128.089 89.2665 128.898 89.1869 129.632 88.8826C130.367 88.5784 130.995 88.0631 131.436 87.402C131.878 86.7409 132.114 85.9636 132.114 85.1685C132.114 84.1023 131.69 83.0798 130.936 82.3259C130.183 81.572 129.16 81.1484 128.094 81.1484Z" fill="#7BB1FF"/>
<path d="M27.0167 91.4862C25.5401 91.4862 24.0966 91.0484 22.8689 90.228C21.6411 89.4076 20.6842 88.2416 20.1191 86.8774C19.554 85.5132 19.4062 84.0121 19.6942 82.5638C19.9823 81.1156 20.6934 79.7853 21.7375 78.7412C22.7816 77.697 24.1119 76.986 25.5602 76.6979C27.0084 76.4098 28.5095 76.5577 29.8738 77.1228C31.238 77.6878 32.404 78.6448 33.2244 79.8725C34.0447 81.1003 34.4826 82.5437 34.4826 84.0203C34.4795 85.9995 33.692 87.8967 32.2925 89.2962C30.893 90.6956 28.9958 91.4832 27.0167 91.4862ZM27.0167 80.0002C26.2216 80.0002 25.4443 80.236 24.7832 80.6778C24.1221 81.1195 23.6069 81.7473 23.3026 82.4819C22.9983 83.2165 22.9187 84.0248 23.0738 84.8046C23.2289 85.5845 23.6118 86.3008 24.174 86.863C24.7363 87.4252 25.4526 87.8081 26.2324 87.9632C27.0122 88.1183 27.8205 88.0387 28.5551 87.7344C29.2897 87.4302 29.9175 86.9149 30.3593 86.2538C30.801 85.5927 31.0368 84.8154 31.0368 84.0203C31.0368 82.9542 30.6132 81.9316 29.8593 81.1777C29.1054 80.4238 28.0829 80.0002 27.0167 80.0002Z" fill="#4B4B63"/>
<path d="M132.401 105.843C134.145 105.843 135.559 104.429 135.559 102.685C135.559 100.94 134.145 99.5259 132.401 99.5259C130.656 99.5259 129.242 100.94 129.242 102.685C129.242 104.429 130.656 105.843 132.401 105.843Z" fill="#7BB1FF"/>
<path d="M120.915 30.0358C122.66 30.0358 124.074 28.6216 124.074 26.8772C124.074 25.1327 122.66 23.7185 120.915 23.7185C119.171 23.7185 117.757 25.1327 117.757 26.8772C117.757 28.6216 119.171 30.0358 120.915 30.0358Z" fill="#7BB1FF"/>
<path d="M33.6215 74.8315C35.366 74.8315 36.7802 73.4173 36.7802 71.6728C36.7802 69.9283 35.366 68.5142 33.6215 68.5142C31.8771 68.5142 30.4629 69.9283 30.4629 71.6728C30.4629 73.4173 31.8771 74.8315 33.6215 74.8315Z" fill="#7BB1FF"/>
<path d="M117.182 58.1768H41.3744C38.7851 58.1768 36.3018 57.1482 34.4709 55.3173C32.6399 53.4863 31.6113 51.0031 31.6113 48.4137C31.6113 45.8244 32.6399 43.3411 34.4709 41.5102C36.3018 39.6792 38.7851 38.6506 41.3744 38.6506H117.182C119.771 38.6506 122.255 39.6792 124.086 41.5102C125.917 43.3411 126.945 45.8244 126.945 48.4137C126.945 51.0031 125.917 53.4863 124.086 55.3173C122.255 57.1482 119.771 58.1768 117.182 58.1768ZM41.3744 42.0964C39.6999 42.0995 38.0948 42.766 36.9108 43.9501C35.7267 45.1341 35.0602 46.7392 35.0571 48.4137C35.0602 50.0883 35.7267 51.6933 36.9108 52.8774C38.0948 54.0614 39.6999 54.728 41.3744 54.731H117.182C118.857 54.731 120.464 54.0655 121.649 52.8807C122.834 51.696 123.499 50.0892 123.499 48.4137C123.499 46.7383 122.834 45.1315 121.649 43.9467C120.464 42.762 118.857 42.0964 117.182 42.0964H41.3744Z" fill="#4B4B63"/>
<path d="M117.998 115.618C122.438 115.618 126.038 112.019 126.038 107.578C126.038 103.138 122.438 99.5381 117.998 99.5381H42.1903C37.7498 99.5381 34.1501 103.138 34.1501 107.578C34.1501 112.019 37.7498 115.618 42.1903 115.618H117.998Z" fill="#7BB1FF"/>
<path d="M116.791 117.904H40.9838C38.3945 117.904 35.9112 116.875 34.0802 115.044C32.2493 113.213 31.2207 110.73 31.2207 108.141C31.2207 105.551 32.2493 103.068 34.0802 101.237C35.9112 99.4063 38.3945 98.3777 40.9838 98.3777H116.791C119.381 98.3777 121.864 99.4063 123.695 101.237C125.526 103.068 126.555 105.551 126.555 108.141C126.555 110.73 125.526 113.213 123.695 115.044C121.864 116.875 119.381 117.904 116.791 117.904ZM40.9838 101.823C39.3093 101.827 37.7042 102.493 36.5202 103.677C35.3361 104.861 34.6695 106.466 34.6665 108.141C34.6695 109.815 35.3361 111.42 36.5202 112.604C37.7042 113.789 39.3093 114.455 40.9838 114.458H116.791C118.467 114.458 120.074 113.793 121.258 112.608C122.443 111.423 123.109 109.816 123.109 108.141C123.109 106.465 122.443 104.858 121.258 103.674C120.074 102.489 118.467 101.823 116.791 101.823H40.9838Z" fill="#4B4B63"/>
<path d="M101.102 45.5425H117.182V47.8397H101.102V45.5425Z" fill="white"/>
<path d="M91.9131 45.5425H98.8047V47.8397H91.9131V45.5425Z" fill="white"/>
<path d="M87.3184 45.5425H89.6156V47.8397H87.3184V45.5425Z" fill="white"/>
<path d="M41.375 56.4541H44.8208V101.249H41.375V56.4541Z" fill="#4B4B63"/>
<path d="M113.736 57.0283H117.182V99.5265H113.736V57.0283Z" fill="#4B4B63"/>
<path opacity="0.3" d="M63.0986 86.8538L84.9205 63.8744L87.4192 66.2472L65.5973 89.2266L63.0986 86.8538Z" fill="#7BB1FF"/>
<path opacity="0.3" d="M72.2715 86.8755L86.0534 71.9454L88.5854 74.2826L74.8034 89.2127L72.2715 86.8755Z" fill="#7BB1FF"/>
<path d="M39.6865 50.8137H41.9837V65.3895H39.6865V50.8137Z" fill="white"/>
<path d="M39.6865 67.4683H41.9837V73.7166H39.6865V67.4683Z" fill="white"/>
<path d="M39.6865 75.7959H41.9837V77.8749H39.6865V75.7959Z" fill="white"/>
<path d="M38.8821 78.656C55.4832 78.656 68.941 65.1982 68.941 48.5972C68.941 31.9961 55.4832 18.5383 38.8821 18.5383C22.2811 18.5383 8.82324 31.9961 8.82324 48.5972C8.82324 65.1982 22.2811 78.656 38.8821 78.656Z" fill="white"/>
<path d="M39.9277 72.9822C53.3951 72.9822 64.3125 62.0648 64.3125 48.5974C64.3125 35.1301 53.3951 24.2126 39.9277 24.2126C26.4604 24.2126 15.543 35.1301 15.543 48.5974C15.543 62.0648 26.4604 72.9822 39.9277 72.9822Z" fill="#B2A3EF"/>
<path d="M38.8823 74.7053C33.7192 74.7031 28.6727 73.17 24.3808 70.2998C20.0889 67.4297 16.7444 63.3514 14.7702 58.5807C12.7959 53.8099 12.2805 48.5609 13.2892 43.4973C14.2979 38.4336 16.7853 33.7828 20.437 30.1327C24.0886 26.4826 28.7406 23.9973 33.8047 22.9908C38.8688 21.9844 44.1176 22.5021 48.8874 24.4784C53.6573 26.4548 57.7341 29.8011 60.6024 34.0942C63.4706 38.3874 65.0015 43.4346 65.0015 48.5977C64.9924 55.521 62.2372 62.1581 57.3406 67.0526C52.444 71.9471 45.8057 74.6993 38.8823 74.7053ZM38.8823 25.9243C34.4012 25.9266 30.0214 27.2573 26.2964 29.7483C22.5714 32.2393 19.6686 35.7787 17.9548 39.9192C16.241 44.0596 15.7932 48.6152 16.6679 53.0101C17.5427 57.405 19.7008 61.4419 22.8695 64.6105C26.0381 67.7792 30.075 69.9373 34.4699 70.8121C38.8648 71.6868 43.4204 71.239 47.5608 69.5252C51.7013 67.8114 55.2407 64.9086 57.7317 61.1836C60.2227 57.4586 61.5534 53.0788 61.5557 48.5977C61.5466 42.5882 59.1545 36.8276 54.9041 32.5793C50.6536 28.331 44.8918 25.9419 38.8823 25.9358V25.9243Z" fill="#4B4B63"/>
<path d="M36.6765 59.4861C36.2241 59.4848 35.783 59.3445 35.413 59.0841L26.6033 52.9161C26.2286 52.6541 25.9733 52.254 25.8936 51.8038C25.8139 51.3536 25.9163 50.8902 26.1783 50.5155C26.4403 50.1408 26.8404 49.8855 27.2905 49.8058C27.7407 49.7261 28.2042 49.8285 28.5788 50.0905L36.3893 55.5464L49.1847 38.5241C49.3205 38.3431 49.4906 38.1906 49.6852 38.0753C49.8799 37.9601 50.0954 37.8843 50.3194 37.8523C50.5434 37.8203 50.7715 37.8327 50.9906 37.8889C51.2098 37.945 51.4158 38.0438 51.5968 38.1795C51.7778 38.3153 51.9303 38.4854 52.0456 38.6801C52.1608 38.8747 52.2366 39.0902 52.2686 39.3142C52.3006 39.5382 52.2882 39.7663 52.232 39.9855C52.1759 40.2046 52.0771 40.4106 51.9414 40.5916L38.4453 58.5902C38.2409 58.8672 37.9744 59.0925 37.6673 59.2481C37.3601 59.4037 37.0208 59.4852 36.6765 59.4861Z" fill="white"/>
</svg>
