<svg width="161" height="160" viewBox="0 0 161 160" fill="none" xmlns="http://www.w3.org/2000/svg">
<g clip-path="url(#clip0_69_1561)">
<path d="M100.086 20.3048L21.3046 99.0865C10.0907 110.3 10.0907 128.482 21.3046 139.696C32.5185 150.91 50.6998 150.91 61.9137 139.696L140.695 60.914C151.909 49.7001 151.909 31.5187 140.695 20.3048C129.482 9.09092 111.3 9.09092 100.086 20.3048Z" fill="#EFF7FF"/>
<path d="M113.001 80.3956H127.536C128.707 80.3956 129.787 81.3691 130.365 82.9418L144.249 120.802C145.465 124.148 143.911 128.295 141.42 128.295H84.5832C82.0948 128.295 80.5282 124.148 81.7541 120.802L95.6377 82.9387C96.2157 81.366 97.2956 80.3926 98.4668 80.3926H113.001" fill="#D6EBFF"/>
<path opacity="0.3" d="M141.423 128.298H84.5836C82.0922 128.298 80.5286 124.151 81.7545 120.805L95.6381 82.9416C96.2161 81.3689 97.296 80.3955 98.4672 80.3955H102.458L89.7671 115.022C88.5503 118.369 90.1047 122.515 92.5961 122.515H144.638C144.936 125.405 143.501 128.298 141.423 128.298Z" fill="#055FE1"/>
<path d="M108.059 85.7314H117.945V89.3818H108.059V85.7314Z" fill="#4B4B63"/>
<path opacity="0.6" d="M139.862 106.612C132.981 99.1836 127.372 90.6715 123.262 81.418H128.737C129.908 81.418 130.988 82.3884 131.566 83.9641L139.862 106.612Z" fill="#D6EBFF"/>
<path d="M141.422 130.123H84.5828C83.1439 130.123 81.845 129.378 80.8838 128.021C79.4236 125.931 79.0859 122.78 80.0411 120.179L93.9247 82.3154C94.7704 80.0065 96.5104 78.5737 98.4664 78.5737H127.539C129.495 78.5737 131.235 80.0065 132.08 82.3154L145.964 120.179C146.919 122.783 146.572 125.934 145.121 128.021C144.172 129.375 142.858 130.123 141.422 130.123ZM98.4664 82.2211C98.2078 82.2211 97.6937 82.6409 97.353 83.5687L83.4694 121.435C82.861 123.117 83.2078 124.973 83.8801 125.931C83.9927 126.096 84.2908 126.473 84.5858 126.473H141.422C141.726 126.473 142.012 126.093 142.128 125.931C142.797 124.97 143.153 123.117 142.536 121.435L128.652 83.5717C128.311 82.6409 127.794 82.2241 127.539 82.2241L98.4664 82.2211Z" fill="#4B4B63"/>
<path d="M91.3457 92.9316H134.657V96.582H91.3457V92.9316Z" fill="#4B4B63"/>
<path d="M47.9636 80.3955H62.4982C63.6694 80.3955 64.7493 81.3689 65.3273 82.9416L79.2109 120.802C80.4277 124.148 78.8732 128.295 76.3818 128.295H19.5455C17.0541 128.298 15.4905 124.148 16.7164 120.802L30.5879 82.9416C31.1658 81.3689 32.2457 80.3955 33.4169 80.3955H47.9515" fill="#D6EBFF"/>
<path opacity="0.3" d="M76.3818 128.298H19.5455C17.0541 128.298 15.4905 124.148 16.7164 120.802L30.5879 82.9416C31.1658 81.3689 32.2457 80.3955 33.4169 80.3955H37.4201L24.729 115.022C23.5122 118.369 25.0667 122.515 27.558 122.515H79.5972C79.8984 125.405 78.4625 128.298 76.3818 128.298Z" fill="#055FE1"/>
<path d="M43.0205 85.7314H52.9069V89.3818H43.0205V85.7314Z" fill="#4B4B63"/>
<path opacity="0.6" d="M74.8247 106.612C67.9437 99.1836 62.3351 90.6715 58.2246 81.418H63.7002C64.8713 81.418 65.9512 82.3884 66.5292 83.9641L74.8247 106.612Z" fill="#D6EBFF"/>
<path d="M76.3821 130.123H19.5457C18.1068 130.123 16.8079 129.378 15.8466 128.021C14.3865 125.931 14.0488 122.78 15.004 120.179L28.8876 82.3154C29.7333 80.0065 31.4733 78.5737 33.4293 78.5737H62.4985C64.4545 78.5737 66.1945 80.0065 67.0401 82.3154L80.9237 120.179C81.8789 122.783 81.5321 125.934 80.0811 128.021C79.1351 129.375 77.8209 130.123 76.3821 130.123ZM33.4293 82.2211C33.1707 82.2211 32.6566 82.6409 32.3129 83.5687L18.4202 121.435C17.8118 123.117 18.1586 124.97 18.8278 125.931C18.916 126.059 19.2293 126.473 19.5335 126.473H76.3821C76.6863 126.473 76.9752 126.093 77.0878 125.931C77.757 124.97 78.1129 123.117 77.4954 121.435L63.6149 83.5717C63.2742 82.6409 62.757 82.2241 62.5015 82.2241L33.4293 82.2211Z" fill="#4B4B63"/>
<path d="M26.3076 92.9316H69.6193V96.582H26.3076V92.9316Z" fill="#4B4B63"/>
<path d="M94.5443 103.555C95.1198 101.245 95.0802 99.2458 94.4559 99.0902C93.8315 98.9347 92.8588 100.681 92.2833 102.991C91.7078 105.301 91.7474 107.3 92.3717 107.455C92.9961 107.611 93.9688 105.865 94.5443 103.555Z" fill="white"/>
<path d="M92.4829 111.734C92.7704 110.58 92.4974 109.518 91.873 109.363C91.2487 109.207 90.5094 110.017 90.2218 111.171C89.9343 112.325 90.2073 113.387 90.8317 113.542C91.4561 113.698 92.1953 112.888 92.4829 111.734Z" fill="white"/>
<path d="M79.2875 31.6724H93.822C94.9932 31.6724 96.0731 32.6458 96.6511 34.2185L110.535 72.082C111.751 75.4282 110.197 79.5744 107.706 79.5744H50.8693C48.3809 79.5744 46.8143 75.4282 48.0402 72.082L61.9208 34.2185C62.4988 32.6458 63.5817 31.6724 64.7498 31.6724H79.2844" fill="#D6EBFF"/>
<path opacity="0.3" d="M107.705 79.5744H50.8687C48.3773 79.5744 46.8137 75.4282 48.0397 72.082L61.9202 34.2185C62.4982 32.6458 63.5781 31.6724 64.7493 31.6724H68.7403L56.0522 66.284C54.8355 69.6302 56.3899 73.7764 58.8813 73.7764H110.92C111.222 76.6937 109.786 79.5744 107.705 79.5744Z" fill="#055FE1"/>
<path d="M74.3438 37.0081H84.2302V40.6584H74.3438V37.0081Z" fill="#4B4B63"/>
<path opacity="0.6" d="M106.148 57.8883C99.267 50.4602 93.6584 41.9481 89.5479 32.6946H95.0234C96.1946 32.6946 97.2745 33.665 97.8525 35.2407L106.148 57.8883Z" fill="#D6EBFF"/>
<path d="M107.705 81.3966H50.8689C49.4301 81.3966 48.1312 80.6513 47.1699 79.2946C45.7097 77.2047 45.3721 74.0532 46.3273 71.4523L60.2078 33.5888C61.0565 31.2799 62.7965 29.8472 64.7495 29.8472H93.8217C95.7777 29.8472 97.5116 31.2799 98.3634 33.5888L112.247 71.4523C113.202 74.0532 112.855 77.2078 111.404 79.2946C110.458 80.6482 109.144 81.3966 107.705 81.3966ZM64.7495 33.4975C64.4909 33.4975 63.9768 33.9173 63.6361 34.8451L49.7525 72.7087C49.1441 74.3909 49.4909 76.2435 50.1632 77.2047C50.2758 77.369 50.5739 77.7462 50.8689 77.7462H107.705C108.01 77.7462 108.314 77.3325 108.411 77.2047C109.08 76.2435 109.436 74.3909 108.819 72.7087L94.9381 34.8451C94.5974 33.9143 94.0803 33.4975 93.8217 33.4975H64.7495Z" fill="#4B4B63"/>
<path d="M57.6309 44.2053H100.943V47.8557H57.6309V44.2053Z" fill="#4B4B63"/>
<path d="M83.9023 66.9148C83.9941 64.532 82.6796 62.8879 79.7585 61.6902C77.622 60.7388 76.6997 60.2714 76.7415 59.1864C76.7707 58.3936 77.5969 57.6258 79.2453 57.6925C80.4498 57.7166 81.6302 58.0346 82.6838 58.6189L83.6686 55.6185C82.4972 54.9951 81.1976 54.651 79.8712 54.6129L79.9839 51.6918L77.092 51.5791L76.9668 54.7965C74.463 55.4057 72.9691 57.15 72.8815 59.3868C72.7855 61.8446 74.5507 63.4304 77.3132 64.5487C79.312 65.2748 80.0799 65.9592 80.0423 66.9691C79.9964 68.125 79.0324 68.8135 77.2965 68.7468C75.8362 68.6675 74.4113 68.2671 73.1235 67.5741L72.1387 70.6496C73.4379 71.3114 74.8571 71.7045 76.3117 71.8055L76.199 74.7266L79.0909 74.8393L79.1201 74.1174L79.2119 71.7179C82.2957 71.1671 83.8147 69.2141 83.9023 66.9148Z" fill="#055FE1"/>
<path d="M53.8125 114.558C53.9043 112.175 52.5898 110.531 49.6687 109.333C47.5321 108.382 46.6099 107.914 46.6516 106.829C46.6808 106.036 47.5071 105.269 49.1554 105.335C50.36 105.359 51.5404 105.677 52.594 106.262L53.5788 103.261C52.4074 102.638 51.1078 102.294 49.7814 102.256L49.894 99.3346L47.0022 99.2219L46.877 102.439C44.3732 103.049 42.8793 104.793 42.7916 107.03C42.6956 109.487 44.4608 111.073 47.2233 112.192C49.2222 112.918 49.99 113.602 49.9525 114.612C49.9066 115.768 48.9426 116.456 47.2066 116.39C45.7463 116.31 44.3215 115.91 43.0337 115.217L42.0488 118.292C43.348 118.954 44.7673 119.347 46.2218 119.448L46.1091 122.369L49.001 122.482L49.0302 121.76L49.122 119.361C52.2059 118.81 53.7248 116.857 53.8125 114.558Z" fill="#055FE1"/>
<path d="M119.844 114.558C119.936 112.175 118.621 110.531 115.7 109.333C113.563 108.382 112.641 107.914 112.683 106.829C112.712 106.036 113.538 105.269 115.187 105.335C116.391 105.359 117.572 105.677 118.625 106.262L119.61 103.261C118.439 102.638 117.139 102.294 115.813 102.256L115.925 99.3346L113.033 99.2219L112.908 102.439C110.404 103.049 108.911 104.793 108.823 107.03C108.727 109.487 110.492 111.073 113.255 112.192C115.253 112.918 116.021 113.602 115.984 114.612C115.938 115.768 114.974 116.456 113.238 116.39C111.778 116.31 110.353 115.91 109.065 115.217L108.08 118.292C109.379 118.954 110.799 119.347 112.253 119.448L112.14 122.369L115.032 122.482L115.061 121.76L115.153 119.361C118.237 118.81 119.756 116.857 119.844 114.558Z" fill="#055FE1"/>
<path d="M123.559 82.1177C140.16 82.1177 153.618 68.6599 153.618 52.0589C153.618 35.4578 140.16 22 123.559 22C106.958 22 93.5 35.4578 93.5 52.0589C93.5 68.6599 106.958 82.1177 123.559 82.1177Z" fill="white"/>
<path d="M124.604 76.4439C138.072 76.4439 148.989 65.5264 148.989 52.0591C148.989 38.5917 138.072 27.6743 124.604 27.6743C111.137 27.6743 100.22 38.5917 100.22 52.0591C100.22 65.5264 111.137 76.4439 124.604 76.4439Z" fill="#B2A3EF"/>
<path d="M123.559 78.167C118.395 78.167 113.348 76.6358 109.054 73.7671C104.761 70.8983 101.415 66.8209 99.4385 62.0503C97.4625 57.2798 96.9455 52.0304 97.9528 46.966C98.9602 41.9016 101.447 37.2497 105.098 33.5984C108.749 29.9472 113.401 27.4607 118.466 26.4533C123.53 25.446 128.779 25.963 133.55 27.939C138.32 29.915 142.398 33.2613 145.267 37.5547C148.135 41.8481 149.667 46.8957 149.667 52.0593C149.657 58.9807 146.904 65.616 142.01 70.5102C137.116 75.4044 130.48 78.1579 123.559 78.167ZM123.559 29.386C119.077 29.386 114.695 30.7151 110.969 33.2052C107.242 35.6953 104.337 39.2346 102.622 43.3755C100.907 47.5165 100.458 52.073 101.332 56.469C102.207 60.8649 104.365 64.9029 107.534 68.0722C110.704 71.2416 114.742 73.3999 119.138 74.2743C123.534 75.1487 128.09 74.6999 132.231 72.9847C136.372 71.2695 139.911 68.3648 142.402 64.6381C144.892 60.9114 146.221 56.53 146.221 52.0479C146.209 46.0424 143.817 40.2865 139.569 36.041C135.321 31.7955 129.564 29.4066 123.559 29.3975V29.386Z" fill="#4B4B63"/>
<path d="M121.354 62.9482C120.902 62.947 120.461 62.8066 120.091 62.5462L111.281 56.3782C110.906 56.1162 110.651 55.7161 110.571 55.2659C110.492 54.8157 110.594 54.3523 110.856 53.9776C111.118 53.6029 111.518 53.3477 111.968 53.268C112.418 53.1883 112.882 53.2907 113.257 53.5526L121.09 59.0085L133.874 41.9633C134.013 41.7823 134.186 41.6304 134.383 41.5163C134.581 41.4021 134.799 41.328 135.025 41.2982C135.251 41.2683 135.481 41.2833 135.701 41.3422C135.921 41.4011 136.128 41.5029 136.309 41.6417C136.49 41.7804 136.642 41.9535 136.756 42.151C136.87 42.3484 136.944 42.5665 136.974 42.7926C137.004 43.0187 136.989 43.2485 136.93 43.4688C136.871 43.6891 136.769 43.8957 136.631 44.0767L123.123 62.0523C122.919 62.3293 122.652 62.5547 122.345 62.7102C122.038 62.8658 121.699 62.9473 121.354 62.9482Z" fill="white"/>
<path d="M40.4659 44.9318C38.9893 44.9318 37.5458 44.4939 36.3181 43.6736C35.0903 42.8532 34.1334 41.6872 33.5683 40.323C33.0032 38.9588 32.8554 37.4576 33.1435 36.0094C33.4315 34.5611 34.1426 33.2308 35.1867 32.1867C36.2308 31.1426 37.5611 30.4315 39.0094 30.1435C40.4576 29.8554 41.9588 30.0032 43.323 30.5683C44.6872 31.1334 45.8532 32.0903 46.6736 33.3181C47.4939 34.5458 47.9318 35.9893 47.9318 37.4659C47.9288 39.4451 47.1412 41.3423 45.7417 42.7417C44.3423 44.1412 42.445 44.9288 40.4659 44.9318ZM40.4659 33.4458C39.6708 33.4458 38.8936 33.6816 38.2325 34.1233C37.5714 34.565 37.0561 35.1929 36.7518 35.9275C36.4475 36.6621 36.3679 37.4704 36.523 38.2502C36.6782 39.03 37.061 39.7463 37.6233 40.3085C38.1855 40.8708 38.9018 41.2536 39.6816 41.4088C40.4614 41.5639 41.2697 41.4843 42.0043 41.18C42.7389 40.8757 43.3668 40.3605 43.8085 39.6994C44.2502 39.0383 44.486 38.261 44.486 37.4659C44.486 36.3997 44.0625 35.3772 43.3085 34.6233C42.5546 33.8693 41.5321 33.4458 40.4659 33.4458Z" fill="#7BB1FF"/>
<path d="M44.7729 58.1405C46.5174 58.1405 47.9316 56.7264 47.9316 54.9819C47.9316 53.2374 46.5174 51.8232 44.7729 51.8232C43.0284 51.8232 41.6143 53.2374 41.6143 54.9819C41.6143 56.7264 43.0284 58.1405 44.7729 58.1405Z" fill="#7BB1FF"/>
</g>
<defs>
<clipPath id="clip0_69_1561">
<rect width="160" height="160" fill="white" transform="translate(0.5)"/>
</clipPath>
</defs>
</svg>
