<svg width="24" height="24" viewBox="0 0 24 24" fill="none" xmlns="http://www.w3.org/2000/svg">
<path d="M8.18228 22.7837C2.60176 17.2032 2.61005 8.16349 8.18228 2.59126C8.42712 2.34642 8.80649 2.30629 9.09593 2.48719L11.881 4.22798C12.0279 4.31976 12.1378 4.46023 12.1916 4.62484C12.2454 4.78945 12.2396 4.96773 12.1753 5.12852L10.7828 8.60989C10.7233 8.7586 10.6171 8.88395 10.4801 8.96703C10.3432 9.05011 10.183 9.08641 10.0236 9.07047L7.62549 8.83071C6.72096 11.3341 6.73982 14.0931 7.62549 16.5442L10.0236 16.3044C10.183 16.2885 10.3432 16.3248 10.4802 16.4079C10.6171 16.491 10.7233 16.6163 10.7828 16.765L12.1754 20.2464C12.2397 20.4072 12.2454 20.5855 12.1916 20.7501C12.1379 20.9147 12.0279 21.0552 11.8811 21.147L9.09597 22.8878C8.95434 22.9763 8.78689 23.0142 8.62096 22.9953C8.45502 22.9764 8.30038 22.9018 8.18228 22.7837ZM14.6187 5.10235C15.1271 5.96374 15.1271 7.03629 14.6187 7.89768C14.449 8.18527 14.0555 8.23967 13.8144 8.00858L13.5577 7.76255C13.3896 7.6015 13.3517 7.3491 13.4605 7.14337C13.5652 6.94509 13.62 6.72425 13.62 6.50002C13.62 6.27579 13.5652 6.05495 13.4605 5.85667C13.3517 5.65093 13.3896 5.39853 13.5577 5.23749L13.8144 4.99145C14.0555 4.76036 14.449 4.81476 14.6187 5.10235ZM18.5627 1.18416C21.1468 4.26089 21.1447 8.74159 18.5627 11.8158C18.3704 12.0447 18.0243 12.0627 17.8085 11.8559L17.5594 11.6171C17.3634 11.4293 17.3455 11.1218 17.5194 10.9134C19.6544 8.35508 19.6526 4.6428 17.5194 2.08663C17.3455 1.87823 17.3634 1.57066 17.5594 1.38285L17.8085 1.14407C18.0243 0.937261 18.3704 0.955265 18.5627 1.18416ZM16.5873 3.11522C18.1363 5.10562 18.1388 7.89115 16.5873 9.88477C16.3987 10.1272 16.0417 10.1534 15.8201 9.9408L15.5701 9.70108C15.381 9.5198 15.3553 9.22434 15.5149 9.01655C16.6551 7.53137 16.655 5.46853 15.5149 3.98344C15.3553 3.77565 15.381 3.48024 15.5701 3.29891L15.8201 3.05919C16.0417 2.84662 16.3987 2.87283 16.5873 3.11522Z" fill="#262643"/>
</svg>
