<svg width="237" height="54" viewBox="0 0 237 54" fill="none" xmlns="http://www.w3.org/2000/svg">
<g clip-path="url(#clip0_53_1480)">
<rect width="67.1333" height="54.4324" rx="3.45603" fill="url(#paint0_linear_53_1480)"/>
<path d="M40.6117 38.3162C39.4364 36.3967 38.871 34.1723 38.9887 31.9312C38.8672 29.7064 39.4192 27.4963 40.5739 25.5835C41.1851 24.6993 42.0175 23.9869 42.9898 23.5157C43.9622 23.0445 45.0414 22.8307 46.1222 22.8951C47.2117 22.8355 48.2983 23.0552 49.2769 23.5327C50.2555 24.0102 51.093 24.7294 51.7083 25.6208C52.8822 27.5148 53.4603 29.7113 53.369 31.9312C53.3919 33.3575 53.2011 34.7794 52.8029 36.1505C52.472 37.3348 51.8193 38.4067 50.9157 39.2497H59.9364C60.7927 38.339 61.4142 37.2375 61.7481 36.0385C62.1364 34.7036 62.3271 33.3201 62.3143 31.9312C62.4363 29.6326 62.088 27.3333 61.2902 25.1711C60.4925 23.0089 59.2618 21.0283 57.6718 19.3478C56.1587 17.8618 54.3522 16.7002 52.365 15.9357C50.3778 15.1712 48.2527 14.8201 46.1222 14.9045C44.0295 14.8509 41.9474 15.217 40.0014 15.9806C38.0554 16.7443 36.2858 17.8897 34.7992 19.3478C32.6631 21.4892 31.2068 24.2018 30.6096 27.1517L24.9103 22.0363L41.6308 6.27912H29.4018L14.3043 19.8333V5.495L5.43457 13.4856V39.623H14.3421V31.6325L18.3807 27.8985L31.3645 39.3617C32.4947 42.2913 34.5283 44.7948 37.1771 46.5171C39.8259 48.2395 42.9555 49.0934 46.1222 48.9579H53.369L62.3143 41.0046H46.1222C45.0472 41.0661 43.9743 40.8507 43.0085 40.3795C42.0427 39.9083 41.2169 39.1974 40.6117 38.3162Z" fill="white"/>
<path d="M103.972 29H98.8475L90.7225 20.8611H88.1808V17.2222H90.7225L98.8475 9.08332H103.972L93.7363 19.0417L103.972 29ZM86.7363 29H83.1252V9.08332H86.7363V29Z" fill="#4B4B63"/>
<path d="M124.101 29H107.629C107.37 29 107.129 28.9537 106.907 28.8611C106.685 28.7685 106.49 28.6435 106.324 28.4861C106.166 28.3194 106.041 28.125 105.949 27.9028C105.856 27.6805 105.81 27.4398 105.81 27.1805V9.08332H109.421V25.3889H124.101V29Z" fill="#4B4B63"/>
<path d="M145.869 29H142.258V24.1111H129.564V29H125.952V19.0417C125.952 17.588 126.202 16.25 126.702 15.0278C127.202 13.8055 127.897 12.7546 128.786 11.875C129.675 10.9954 130.726 10.3102 131.939 9.81943C133.152 9.32869 134.476 9.08332 135.911 9.08332H144.05C144.3 9.08332 144.536 9.12962 144.758 9.22221C144.98 9.3148 145.175 9.44443 145.341 9.6111C145.508 9.77776 145.638 9.97221 145.73 10.1944C145.823 10.4167 145.869 10.6528 145.869 10.9028V29ZM129.564 20.5H142.258V12.6944H135.911C135.8 12.6944 135.564 12.7129 135.202 12.75C134.851 12.7778 134.439 12.8565 133.966 12.9861C133.503 13.1157 133.013 13.3148 132.494 13.5833C131.976 13.8518 131.499 14.2222 131.064 14.6944C130.628 15.1667 130.267 15.7592 129.98 16.4722C129.702 17.1759 129.564 18.0324 129.564 19.0417V20.5Z" fill="#4B4B63"/>
<path d="M168.79 23.1389C168.79 23.8518 168.697 24.4954 168.512 25.0694C168.336 25.6342 168.1 26.1342 167.804 26.5694C167.507 27.0046 167.16 27.375 166.762 27.6805C166.364 27.9861 165.952 28.2361 165.526 28.4305C165.1 28.625 164.665 28.7685 164.22 28.8611C163.785 28.9537 163.373 29 162.984 29H149.054V25.3889H162.984C163.679 25.3889 164.216 25.1852 164.595 24.7778C164.984 24.3704 165.179 23.8241 165.179 23.1389C165.179 22.8055 165.128 22.5 165.026 22.2222C164.924 21.9444 164.776 21.7037 164.581 21.5C164.396 21.2963 164.165 21.1389 163.887 21.0278C163.618 20.9167 163.317 20.8611 162.984 20.8611H154.679C154.095 20.8611 153.466 20.7592 152.79 20.5555C152.114 20.3426 151.484 20.0046 150.901 19.5417C150.327 19.0787 149.845 18.4722 149.456 17.7222C149.077 16.9722 148.887 16.0555 148.887 14.9722C148.887 13.8889 149.077 12.9768 149.456 12.2361C149.845 11.4861 150.327 10.8796 150.901 10.4167C151.484 9.94443 152.114 9.60647 152.79 9.40276C153.466 9.1898 154.095 9.08332 154.679 9.08332H166.97V12.6944H154.679C153.993 12.6944 153.456 12.9028 153.067 13.3194C152.688 13.7361 152.498 14.287 152.498 14.9722C152.498 15.6667 152.688 16.2176 153.067 16.625C153.456 17.0231 153.993 17.2222 154.679 17.2222H162.984H163.012C163.401 17.2315 163.813 17.287 164.248 17.3889C164.683 17.4815 165.114 17.6296 165.54 17.8333C165.975 18.037 166.387 18.2963 166.776 18.6111C167.165 18.9167 167.507 19.287 167.804 19.7222C168.109 20.1574 168.35 20.6574 168.526 21.2222C168.702 21.787 168.79 22.4259 168.79 23.1389Z" fill="#4B4B63"/>
<path d="M190.502 23.1389C190.502 23.8518 190.409 24.4954 190.224 25.0694C190.048 25.6342 189.812 26.1342 189.516 26.5694C189.22 27.0046 188.872 27.375 188.474 27.6805C188.076 27.9861 187.664 28.2361 187.238 28.4305C186.812 28.625 186.377 28.7685 185.932 28.8611C185.497 28.9537 185.085 29 184.696 29H170.766V25.3889H184.696C185.391 25.3889 185.928 25.1852 186.307 24.7778C186.696 24.3704 186.891 23.8241 186.891 23.1389C186.891 22.8055 186.84 22.5 186.738 22.2222C186.636 21.9444 186.488 21.7037 186.294 21.5C186.108 21.2963 185.877 21.1389 185.599 21.0278C185.331 20.9167 185.03 20.8611 184.696 20.8611H176.391C175.807 20.8611 175.178 20.7592 174.502 20.5555C173.826 20.3426 173.196 20.0046 172.613 19.5417C172.039 19.0787 171.557 18.4722 171.169 17.7222C170.789 16.9722 170.599 16.0555 170.599 14.9722C170.599 13.8889 170.789 12.9768 171.169 12.2361C171.557 11.4861 172.039 10.8796 172.613 10.4167C173.196 9.94443 173.826 9.60647 174.502 9.40276C175.178 9.1898 175.807 9.08332 176.391 9.08332H188.682V12.6944H176.391C175.706 12.6944 175.169 12.9028 174.78 13.3194C174.4 13.7361 174.21 14.287 174.21 14.9722C174.21 15.6667 174.4 16.2176 174.78 16.625C175.169 17.0231 175.706 17.2222 176.391 17.2222H184.696H184.724C185.113 17.2315 185.525 17.287 185.96 17.3889C186.395 17.4815 186.826 17.6296 187.252 17.8333C187.687 18.037 188.099 18.2963 188.488 18.6111C188.877 18.9167 189.22 19.287 189.516 19.7222C189.821 20.1574 190.062 20.6574 190.238 21.2222C190.414 21.787 190.502 22.4259 190.502 23.1389Z" fill="#4B4B63"/>
<path d="M213.978 20.9444C213.978 22.1574 213.77 23.2731 213.353 24.2917C212.936 25.3102 212.358 26.1898 211.617 26.9305C210.876 27.6713 209.997 28.25 208.978 28.6667C207.969 29.0741 206.867 29.2778 205.672 29.2778H200.784C199.589 29.2778 198.483 29.0741 197.464 28.6667C196.446 28.25 195.566 27.6713 194.825 26.9305C194.085 26.1898 193.501 25.3102 193.075 24.2917C192.659 23.2731 192.45 22.1574 192.45 20.9444V17.1389C192.45 15.9352 192.659 14.8241 193.075 13.8055C193.501 12.7778 194.085 11.8981 194.825 11.1667C195.566 10.4259 196.446 9.84721 197.464 9.43054C198.483 9.01388 199.589 8.80554 200.784 8.80554H205.672C206.867 8.80554 207.969 9.01388 208.978 9.43054C209.997 9.84721 210.876 10.4259 211.617 11.1667C212.358 11.8981 212.936 12.7778 213.353 13.8055C213.77 14.8241 213.978 15.9352 213.978 17.1389V20.9444ZM210.367 17.1389C210.367 16.4259 210.251 15.7824 210.02 15.2083C209.797 14.625 209.478 14.1296 209.061 13.7222C208.654 13.3055 208.159 12.9861 207.575 12.7639C207.001 12.5324 206.367 12.4167 205.672 12.4167H200.784C200.08 12.4167 199.436 12.5324 198.853 12.7639C198.279 12.9861 197.784 13.3055 197.367 13.7222C196.95 14.1296 196.626 14.625 196.395 15.2083C196.172 15.7824 196.061 16.4259 196.061 17.1389V20.9444C196.061 21.6574 196.172 22.3055 196.395 22.8889C196.626 23.463 196.95 23.9583 197.367 24.375C197.784 24.7824 198.279 25.1018 198.853 25.3333C199.436 25.5555 200.08 25.6667 200.784 25.6667H205.645C206.348 25.6667 206.987 25.5555 207.561 25.3333C208.145 25.1018 208.645 24.7824 209.061 24.375C209.478 23.9583 209.797 23.463 210.02 22.8889C210.251 22.3055 210.367 21.6574 210.367 20.9444V17.1389Z" fill="#4B4B63"/>
<path d="M236.635 9.08332L227.204 28.2917C227.056 28.588 226.834 28.8241 226.537 29C226.25 29.1852 225.931 29.2778 225.579 29.2778C225.237 29.2778 224.917 29.1852 224.621 29C224.334 28.8241 224.112 28.588 223.954 28.2917L214.537 9.08332H218.579L225.579 23.4305L232.607 9.08332H236.635Z" fill="#4B4B63"/>
<path d="M86.4752 49.225C85.5252 49.225 84.6852 49 83.9552 48.55C83.2252 48.1 82.6502 47.465 82.2302 46.645C81.8202 45.825 81.6152 44.86 81.6152 43.75C81.6152 42.64 81.8202 41.675 82.2302 40.855C82.6502 40.025 83.2252 39.385 83.9552 38.935C84.6852 38.475 85.5252 38.245 86.4752 38.245C87.4252 38.245 88.2602 38.475 88.9802 38.935C89.7102 39.385 90.2802 40.025 90.6902 40.855C91.1102 41.675 91.3202 42.64 91.3202 43.75C91.3202 44.32 91.2602 44.86 91.1402 45.37C91.0302 45.87 90.8652 46.325 90.6452 46.735L92.3102 48.07L91.4402 49.18L89.8052 47.875C89.3952 48.305 88.9052 48.64 88.3352 48.88C87.7752 49.11 87.1552 49.225 86.4752 49.225ZM86.4752 47.875C87.3652 47.875 88.1002 47.585 88.6802 47.005L87.1352 45.745L87.9902 44.665L89.4752 45.85C89.7552 45.26 89.8952 44.56 89.8952 43.75C89.8952 42.9 89.7502 42.17 89.4602 41.56C89.1802 40.94 88.7802 40.46 88.2602 40.12C87.7502 39.78 87.1552 39.61 86.4752 39.61C85.7952 39.61 85.1952 39.78 84.6752 40.12C84.1652 40.46 83.7652 40.94 83.4752 41.56C83.1852 42.17 83.0402 42.9 83.0402 43.75C83.0402 44.59 83.1852 45.32 83.4752 45.94C83.7652 46.55 84.1652 47.025 84.6752 47.365C85.1952 47.705 85.7952 47.875 86.4752 47.875Z" fill="#4B4B63"/>
<path d="M98.5273 49.18C97.2573 49.18 96.2873 48.83 95.6173 48.13C94.9473 47.42 94.6123 46.37 94.6123 44.98V38.5H96.0073V44.92C96.0073 45.89 96.2223 46.62 96.6523 47.11C97.0923 47.6 97.7173 47.845 98.5273 47.845C99.3373 47.845 99.9573 47.6 100.387 47.11C100.817 46.62 101.032 45.89 101.032 44.92V38.5H102.427V44.98C102.427 46.37 102.092 47.42 101.422 48.13C100.752 48.83 99.7873 49.18 98.5273 49.18Z" fill="#4B4B63"/>
<path d="M105.311 49L109.406 38.5H110.621L114.716 49H113.171L112.166 46.315H107.831L106.826 49H105.311ZM108.296 45.025H111.701L110.021 40.465L108.296 45.025Z" fill="#4B4B63"/>
<path d="M117.735 49V38.5H119.1V47.71H124.725V49H117.735Z" fill="#4B4B63"/>
<path d="M127.881 49V38.5H129.246V49H127.881Z" fill="#4B4B63"/>
<path d="M135.833 49V39.79H132.533V38.5H140.498V39.79H137.213V49H135.833Z" fill="#4B4B63"/>
<path d="M146.509 49V44.53L142.999 38.5H144.589L147.214 43.03L149.809 38.5H151.414L147.904 44.53V49H146.509Z" fill="#4B4B63"/>
</g>
<defs>
<linearGradient id="paint0_linear_53_1480" x1="33.5667" y1="0" x2="33.5666" y2="67.3925" gradientUnits="userSpaceOnUse">
<stop stop-color="#64A1FF"/>
<stop offset="1" stop-color="#3952D6"/>
</linearGradient>
<clipPath id="clip0_53_1480">
<rect width="237" height="54" fill="white"/>
</clipPath>
</defs>
</svg>
