<svg width="237" height="54" viewBox="0 0 237 54" fill="none" xmlns="http://www.w3.org/2000/svg">
<rect width="67.1333" height="54.4324" rx="3.45603" fill="url(#paint0_linear_401_642)"/>
<path d="M40.6117 38.3163C39.4364 36.3968 38.871 34.1724 38.9887 31.9313C38.8672 29.7065 39.4192 27.4965 40.5739 25.5836C41.1851 24.6994 42.0175 23.987 42.9898 23.5158C43.9622 23.0447 45.0414 22.8308 46.1222 22.8952C47.2117 22.8357 48.2983 23.0553 49.2769 23.5328C50.2555 24.0103 51.093 24.7295 51.7083 25.621C52.8822 27.5149 53.4603 29.7115 53.369 31.9313C53.3919 33.3577 53.2011 34.7795 52.8029 36.1506C52.472 37.3349 51.8193 38.4068 50.9157 39.2498H59.9364C60.7927 38.3392 61.4142 37.2376 61.7481 36.0386C62.1364 34.7037 62.3271 33.3203 62.3143 31.9313C62.4363 29.6327 62.088 27.3335 61.2902 25.1712C60.4925 23.009 59.2618 21.0284 57.6718 19.348C56.1587 17.8619 54.3522 16.7003 52.365 15.9358C50.3778 15.1713 48.2527 14.8203 46.1222 14.9046C44.0295 14.8511 41.9474 15.2171 40.0014 15.9808C38.0554 16.7444 36.2858 17.8898 34.7992 19.348C32.6631 21.4893 31.2068 24.202 30.6096 27.1519L24.9103 22.0364L41.6308 6.27924H29.4018L14.3043 19.8334V5.49512L5.43457 13.4857V39.6232H14.3421V31.6326L18.3807 27.8987L31.3645 39.3618C32.4947 42.2915 34.5283 44.7949 37.1771 46.5172C39.8259 48.2396 42.9555 49.0935 46.1222 48.958H53.369L62.3143 41.0047H46.1222C45.0472 41.0662 43.9743 40.8508 43.0085 40.3796C42.0427 39.9084 41.2169 39.1975 40.6117 38.3163Z" fill="white"/>
<path d="M103.972 29.0001H98.8475L90.7225 20.8612H88.1808V17.2223H90.7225L98.8475 9.08344H103.972L93.7363 19.0418L103.972 29.0001ZM86.7363 29.0001H83.1252V9.08344H86.7363V29.0001Z" fill="white"/>
<path d="M124.101 29.0001H107.629C107.37 29.0001 107.129 28.9538 106.907 28.8612C106.685 28.7686 106.49 28.6436 106.324 28.4862C106.166 28.3196 106.041 28.1251 105.949 27.9029C105.856 27.6807 105.81 27.4399 105.81 27.1807V9.08344H109.421V25.389H124.101V29.0001Z" fill="white"/>
<path d="M145.869 29.0001H142.258V24.1112H129.564V29.0001H125.952V19.0418C125.952 17.5881 126.202 16.2501 126.702 15.0279C127.202 13.8057 127.897 12.7547 128.786 11.8751C129.675 10.9955 130.726 10.3103 131.939 9.81955C133.152 9.32881 134.476 9.08344 135.911 9.08344H144.05C144.3 9.08344 144.536 9.12974 144.758 9.22233C144.98 9.31492 145.175 9.44455 145.341 9.61122C145.508 9.77789 145.638 9.97233 145.73 10.1946C145.823 10.4168 145.869 10.6529 145.869 10.9029V29.0001ZM129.564 20.5001H142.258V12.6946H135.911C135.8 12.6946 135.564 12.7131 135.202 12.7501C134.851 12.7779 134.439 12.8566 133.966 12.9862C133.503 13.1158 133.013 13.3149 132.494 13.5834C131.976 13.852 131.499 14.2223 131.064 14.6946C130.628 15.1668 130.267 15.7594 129.98 16.4723C129.702 17.176 129.564 18.0325 129.564 19.0418V20.5001Z" fill="white"/>
<path d="M168.79 23.139C168.79 23.852 168.697 24.4955 168.512 25.0696C168.336 25.6344 168.1 26.1344 167.804 26.5696C167.507 27.0047 167.16 27.3751 166.762 27.6807C166.364 27.9862 165.952 28.2362 165.526 28.4307C165.1 28.6251 164.665 28.7686 164.22 28.8612C163.785 28.9538 163.373 29.0001 162.984 29.0001H149.054V25.389H162.984C163.679 25.389 164.216 25.1853 164.595 24.7779C164.984 24.3705 165.179 23.8242 165.179 23.139C165.179 22.8057 165.128 22.5001 165.026 22.2223C164.924 21.9446 164.776 21.7038 164.581 21.5001C164.396 21.2964 164.165 21.139 163.887 21.0279C163.618 20.9168 163.317 20.8612 162.984 20.8612H154.679C154.095 20.8612 153.466 20.7594 152.79 20.5557C152.114 20.3427 151.484 20.0047 150.901 19.5418C150.327 19.0788 149.845 18.4723 149.456 17.7223C149.077 16.9723 148.887 16.0557 148.887 14.9723C148.887 13.889 149.077 12.977 149.456 12.2362C149.845 11.4862 150.327 10.8797 150.901 10.4168C151.484 9.94455 152.114 9.60659 152.79 9.40289C153.466 9.18992 154.095 9.08344 154.679 9.08344H166.97V12.6946H154.679C153.993 12.6946 153.456 12.9029 153.067 13.3196C152.688 13.7362 152.498 14.2871 152.498 14.9723C152.498 15.6668 152.688 16.2177 153.067 16.6251C153.456 17.0233 153.993 17.2223 154.679 17.2223H162.984H163.012C163.401 17.2316 163.813 17.2871 164.248 17.389C164.683 17.4816 165.114 17.6297 165.54 17.8334C165.975 18.0371 166.387 18.2964 166.776 18.6112C167.165 18.9168 167.507 19.2871 167.804 19.7223C168.109 20.1575 168.35 20.6575 168.526 21.2223C168.702 21.7871 168.79 22.426 168.79 23.139Z" fill="white"/>
<path d="M190.502 23.139C190.502 23.852 190.409 24.4955 190.224 25.0696C190.048 25.6344 189.812 26.1344 189.516 26.5696C189.22 27.0047 188.872 27.3751 188.474 27.6807C188.076 27.9862 187.664 28.2362 187.238 28.4307C186.812 28.6251 186.377 28.7686 185.932 28.8612C185.497 28.9538 185.085 29.0001 184.696 29.0001H170.766V25.389H184.696C185.391 25.389 185.928 25.1853 186.307 24.7779C186.696 24.3705 186.891 23.8242 186.891 23.139C186.891 22.8057 186.84 22.5001 186.738 22.2223C186.636 21.9446 186.488 21.7038 186.294 21.5001C186.108 21.2964 185.877 21.139 185.599 21.0279C185.331 20.9168 185.03 20.8612 184.696 20.8612H176.391C175.807 20.8612 175.178 20.7594 174.502 20.5557C173.826 20.3427 173.196 20.0047 172.613 19.5418C172.039 19.0788 171.557 18.4723 171.169 17.7223C170.789 16.9723 170.599 16.0557 170.599 14.9723C170.599 13.889 170.789 12.977 171.169 12.2362C171.557 11.4862 172.039 10.8797 172.613 10.4168C173.196 9.94455 173.826 9.60659 174.502 9.40289C175.178 9.18992 175.807 9.08344 176.391 9.08344H188.682V12.6946H176.391C175.706 12.6946 175.169 12.9029 174.78 13.3196C174.4 13.7362 174.21 14.2871 174.21 14.9723C174.21 15.6668 174.4 16.2177 174.78 16.6251C175.169 17.0233 175.706 17.2223 176.391 17.2223H184.696H184.724C185.113 17.2316 185.525 17.2871 185.96 17.389C186.395 17.4816 186.826 17.6297 187.252 17.8334C187.687 18.0371 188.099 18.2964 188.488 18.6112C188.877 18.9168 189.22 19.2871 189.516 19.7223C189.821 20.1575 190.062 20.6575 190.238 21.2223C190.414 21.7871 190.502 22.426 190.502 23.139Z" fill="white"/>
<path d="M213.978 20.9446C213.978 22.1575 213.77 23.2733 213.353 24.2918C212.936 25.3103 212.358 26.1899 211.617 26.9307C210.876 27.6714 209.997 28.2501 208.978 28.6668C207.969 29.0742 206.867 29.2779 205.672 29.2779H200.784C199.589 29.2779 198.483 29.0742 197.464 28.6668C196.446 28.2501 195.566 27.6714 194.825 26.9307C194.085 26.1899 193.501 25.3103 193.075 24.2918C192.659 23.2733 192.45 22.1575 192.45 20.9446V17.139C192.45 15.9353 192.659 14.8242 193.075 13.8057C193.501 12.7779 194.085 11.8983 194.825 11.1668C195.566 10.426 196.446 9.84733 197.464 9.43066C198.483 9.014 199.589 8.80566 200.784 8.80566H205.672C206.867 8.80566 207.969 9.014 208.978 9.43066C209.997 9.84733 210.876 10.426 211.617 11.1668C212.358 11.8983 212.936 12.7779 213.353 13.8057C213.77 14.8242 213.978 15.9353 213.978 17.139V20.9446ZM210.367 17.139C210.367 16.426 210.251 15.7825 210.02 15.2084C209.797 14.6251 209.478 14.1297 209.061 13.7223C208.654 13.3057 208.159 12.9862 207.575 12.764C207.001 12.5325 206.367 12.4168 205.672 12.4168H200.784C200.08 12.4168 199.436 12.5325 198.853 12.764C198.279 12.9862 197.784 13.3057 197.367 13.7223C196.95 14.1297 196.626 14.6251 196.395 15.2084C196.172 15.7825 196.061 16.426 196.061 17.139V20.9446C196.061 21.6575 196.172 22.3057 196.395 22.889C196.626 23.4631 196.95 23.9584 197.367 24.3751C197.784 24.7825 198.279 25.102 198.853 25.3334C199.436 25.5557 200.08 25.6668 200.784 25.6668H205.645C206.348 25.6668 206.987 25.5557 207.561 25.3334C208.145 25.102 208.645 24.7825 209.061 24.3751C209.478 23.9584 209.797 23.4631 210.02 22.889C210.251 22.3057 210.367 21.6575 210.367 20.9446V17.139Z" fill="white"/>
<path d="M236.635 9.08344L227.204 28.2918C227.056 28.5881 226.834 28.8242 226.537 29.0001C226.25 29.1853 225.931 29.2779 225.579 29.2779C225.237 29.2779 224.917 29.1853 224.621 29.0001C224.334 28.8242 224.112 28.5881 223.954 28.2918L214.537 9.08344H218.579L225.579 23.4307L232.607 9.08344H236.635Z" fill="white"/>
<path d="M86.4752 49.2251C85.5252 49.2251 84.6852 49.0001 83.9552 48.5501C83.2252 48.1001 82.6502 47.4651 82.2302 46.6451C81.8202 45.8251 81.6152 44.8601 81.6152 43.7501C81.6152 42.6401 81.8202 41.6751 82.2302 40.8551C82.6502 40.0251 83.2252 39.3851 83.9552 38.9351C84.6852 38.4751 85.5252 38.2451 86.4752 38.2451C87.4252 38.2451 88.2602 38.4751 88.9802 38.9351C89.7102 39.3851 90.2802 40.0251 90.6902 40.8551C91.1102 41.6751 91.3202 42.6401 91.3202 43.7501C91.3202 44.3201 91.2602 44.8601 91.1402 45.3701C91.0302 45.8701 90.8652 46.3251 90.6452 46.7351L92.3102 48.0701L91.4402 49.1801L89.8052 47.8751C89.3952 48.3051 88.9052 48.6401 88.3352 48.8801C87.7752 49.1101 87.1552 49.2251 86.4752 49.2251ZM86.4752 47.8751C87.3652 47.8751 88.1002 47.5851 88.6802 47.0051L87.1352 45.7451L87.9902 44.6651L89.4752 45.8501C89.7552 45.2601 89.8952 44.5601 89.8952 43.7501C89.8952 42.9001 89.7502 42.1701 89.4602 41.5601C89.1802 40.9401 88.7802 40.4601 88.2602 40.1201C87.7502 39.7801 87.1552 39.6101 86.4752 39.6101C85.7952 39.6101 85.1952 39.7801 84.6752 40.1201C84.1652 40.4601 83.7652 40.9401 83.4752 41.5601C83.1852 42.1701 83.0402 42.9001 83.0402 43.7501C83.0402 44.5901 83.1852 45.3201 83.4752 45.9401C83.7652 46.5501 84.1652 47.0251 84.6752 47.3651C85.1952 47.7051 85.7952 47.8751 86.4752 47.8751Z" fill="white"/>
<path d="M98.5273 49.1801C97.2573 49.1801 96.2873 48.8301 95.6173 48.1301C94.9473 47.4201 94.6123 46.3701 94.6123 44.9801V38.5001H96.0073V44.9201C96.0073 45.8901 96.2223 46.6201 96.6523 47.1101C97.0923 47.6001 97.7173 47.8451 98.5273 47.8451C99.3373 47.8451 99.9573 47.6001 100.387 47.1101C100.817 46.6201 101.032 45.8901 101.032 44.9201V38.5001H102.427V44.9801C102.427 46.3701 102.092 47.4201 101.422 48.1301C100.752 48.8301 99.7873 49.1801 98.5273 49.1801Z" fill="white"/>
<path d="M105.311 49.0001L109.406 38.5001H110.621L114.716 49.0001H113.171L112.166 46.3151H107.831L106.826 49.0001H105.311ZM108.296 45.0251H111.701L110.021 40.4651L108.296 45.0251Z" fill="white"/>
<path d="M117.735 49.0001V38.5001H119.1V47.7101H124.725V49.0001H117.735Z" fill="white"/>
<path d="M127.881 49.0001V38.5001H129.246V49.0001H127.881Z" fill="white"/>
<path d="M135.833 49.0001V39.7901H132.533V38.5001H140.498V39.7901H137.213V49.0001H135.833Z" fill="white"/>
<path d="M146.509 49.0001V44.5301L142.999 38.5001H144.589L147.214 43.0301L149.809 38.5001H151.414L147.904 44.5301V49.0001H146.509Z" fill="white"/>
<defs>
<linearGradient id="paint0_linear_401_642" x1="33.5667" y1="0" x2="33.5666" y2="67.3925" gradientUnits="userSpaceOnUse">
<stop stop-color="#64A1FF"/>
<stop offset="1" stop-color="#3952D6"/>
</linearGradient>
</defs>
</svg>
