<svg width="120" height="120" viewBox="0 0 120 120" fill="none" xmlns="http://www.w3.org/2000/svg">
<path d="M107.296 52.0495H60.6133V11.55C61.2891 11.5179 61.9784 11.5018 62.6812 11.5018C73.8282 11.5027 84.575 15.6571 92.8242 23.1542C101.073 30.6514 106.233 40.9533 107.296 52.0495Z" fill="white"/>
<path d="M100.069 64.2138C100.071 72.4402 97.8092 80.5085 93.5304 87.5346C89.2516 94.5607 83.1214 100.273 75.8114 104.047L75.7734 104.064C70.4951 106.79 64.7277 108.439 58.8065 108.917C52.8852 109.394 46.9282 108.689 41.2816 106.844C35.635 104.998 30.4116 102.049 25.9148 98.1672C21.4181 94.2854 17.7378 89.5485 15.0879 84.2318C12.438 78.9151 10.8712 73.1248 10.4788 67.1973C10.0863 61.2698 10.876 55.3234 12.8019 49.7038C14.7277 44.0842 17.7514 38.9034 21.6971 34.4626C25.6428 30.0218 30.4318 26.4096 35.7858 23.8359L35.8238 23.8182C41.5876 21.0413 47.8815 19.5374 54.2781 19.4086V59.3987H99.8131C99.9842 60.998 100.07 62.6053 100.069 64.2138Z" fill="#7BB1FF"/>
<path d="M100.613 64.7611C100.624 71.4873 99.1128 78.1288 96.1936 84.1885C96.1887 84.2016 96.1828 84.2144 96.1758 84.2265C93.2867 90.215 89.1017 95.4858 83.9239 99.657C78.7461 103.828 72.7053 106.795 66.2391 108.344C59.7729 109.892 53.0432 109.982 46.5378 108.608C40.0323 107.234 33.9139 104.431 28.626 100.4L28.9377 100.496C29.9514 100.811 30.987 101.088 32.0446 101.33C38.4713 102.808 45.1448 102.851 51.5899 101.455C58.035 100.06 64.0932 97.2605 69.333 93.2565C74.5727 89.2526 78.8652 84.1426 81.9047 78.2904C84.9443 72.4383 86.6561 65.9879 86.9183 59.3987H100.294C100.507 61.1782 100.613 62.9689 100.613 64.7611Z" fill="#7BB1FF"/>
<path d="M56.3454 110.005C45.9594 110.005 35.8742 106.517 27.708 100.099C19.5419 93.6817 13.7681 84.7071 11.3132 74.6153C8.8583 64.5235 9.8645 53.8996 14.1704 44.4482C18.4762 34.9967 25.8322 27.2656 35.0579 22.4953L35.1618 22.4446C41.0651 19.3928 47.5622 17.6632 54.2015 17.3761L55.7905 17.3052V57.8782H102.344L102.473 59.2568C102.61 60.719 102.681 62.2016 102.681 63.6664C102.705 71.0336 100.95 78.2978 97.5672 84.8424C97.552 84.8728 97.5368 84.9082 97.5165 84.9463C92.8855 93.8512 85.5102 101.028 76.4824 105.415L76.4368 105.436C70.1727 108.462 63.3024 110.024 56.3454 110.005ZM36.4467 25.2069C26.3502 30.438 18.7164 39.4303 15.1937 50.242C11.671 61.0538 12.5422 72.8172 17.6192 82.9921C22.6961 93.1669 31.5714 100.937 42.3283 104.623C53.0852 108.31 64.8606 107.618 75.1114 102.696L75.1545 102.676C83.5808 98.5795 90.4665 91.8822 94.7948 83.5727L94.8328 83.4992C98.0067 77.3742 99.6525 70.5725 99.6301 63.674C99.6301 62.7616 99.6022 61.8417 99.5439 60.9268H52.757V20.5186C47.089 20.9716 41.5686 22.5527 36.5202 25.1689L36.4467 25.2069Z" fill="#4B4B63"/>
<path d="M107.043 51.0359H88.3429C87.6105 39.2771 83.6723 26.0763 78.9941 14.4696L79.3312 14.5988C89.4492 18.5907 97.7781 26.1137 102.775 35.7748C105.099 40.5656 106.545 45.7346 107.043 51.0359Z" fill="#F2F2F2"/>
<path d="M109.473 54.5837H59.5996V11.1141L61.0467 11.0457C61.7334 11.0127 62.4658 10.995 63.1881 10.995C74.7128 10.9974 85.8231 15.2937 94.351 23.0457C102.879 30.7977 108.213 41.449 109.311 52.9213L109.473 54.5837ZM62.6407 51.5426H106.1C104.696 41.1569 99.5742 31.6326 91.6833 24.7357C83.7924 17.8388 73.6682 14.0373 63.1881 14.0361H62.6407V51.5426Z" fill="#4B4B63"/>
<path d="M76.3387 45.1984C76.0301 45.1984 75.7803 45.0897 75.5892 44.8721C75.3982 44.6546 75.3027 44.4215 75.3027 44.1729C75.3027 44.0331 75.3321 43.901 75.3909 43.7767L83.3263 26.786C83.4733 26.4597 83.7378 26.2965 84.1199 26.2965C84.3697 26.2965 84.6122 26.3975 84.8473 26.5995C85.0971 26.786 85.222 27.0423 85.222 27.3686C85.222 27.5085 85.1927 27.6406 85.1339 27.7649L77.1984 44.6857C77.1396 44.841 77.0294 44.9653 76.8677 45.0586C76.7061 45.1518 76.5297 45.1984 76.3387 45.1984ZM75.2366 36.6215C74.3401 36.6215 73.5907 36.3962 72.9882 35.9456C72.4004 35.4794 72.1064 34.7025 72.1064 33.6149V30.2354C72.1064 29.1322 72.4004 28.3553 72.9882 27.9047C73.5907 27.4541 74.3401 27.2288 75.2366 27.2288C75.8391 27.2288 76.3754 27.3298 76.8457 27.5318C77.3159 27.7182 77.6907 28.029 77.9699 28.4641C78.2491 28.8991 78.3887 29.4896 78.3887 30.2354V33.6149C78.3887 34.3452 78.2491 34.9356 77.9699 35.3862C77.6907 35.8213 77.3159 36.1398 76.8457 36.3418C76.3754 36.5283 75.8391 36.6215 75.2366 36.6215ZM75.2366 34.8735C75.6186 34.8735 75.9199 34.7725 76.1403 34.5705C76.3754 34.3529 76.493 34.0344 76.493 33.6149V30.2354C76.493 29.8003 76.3828 29.4818 76.1624 29.2798C75.9419 29.0778 75.6333 28.9768 75.2366 28.9768C74.8545 28.9768 74.5532 29.0778 74.3328 29.2798C74.1124 29.4818 74.0021 29.8003 74.0021 30.2354V33.6149C74.0021 34.0344 74.1124 34.3529 74.3328 34.5705C74.5532 34.7725 74.8545 34.8735 75.2366 34.8735ZM85.1559 44.3361C84.2742 44.3361 83.5321 44.1108 82.9296 43.6602C82.3271 43.2096 82.0258 42.4327 82.0258 41.3295V37.95C82.0258 36.8623 82.3271 36.0932 82.9296 35.6426C83.5321 35.1765 84.2742 34.9434 85.1559 34.9434C85.7584 34.9434 86.2948 35.0444 86.7651 35.2464C87.2353 35.4328 87.61 35.7514 87.8892 36.202C88.1685 36.637 88.3081 37.2197 88.3081 37.95V41.3295C88.3081 42.0598 88.1685 42.6502 87.8892 43.1008C87.61 43.5359 87.2353 43.8544 86.7651 44.0564C86.2948 44.2428 85.7584 44.3361 85.1559 44.3361ZM85.178 42.588C85.56 42.588 85.8613 42.487 86.0817 42.2851C86.3022 42.0831 86.4124 41.7645 86.4124 41.3295V37.95C86.4124 37.5304 86.3022 37.2197 86.0817 37.0177C85.8613 36.8002 85.56 36.6914 85.178 36.6914C84.7812 36.6914 84.4726 36.8002 84.2522 37.0177C84.0464 37.2197 83.9435 37.5304 83.9435 37.95V41.3295C83.9435 41.7645 84.0464 42.0831 84.2522 42.2851C84.4726 42.487 84.7812 42.588 85.178 42.588Z" fill="#4B4B63"/>
<path d="M35.6582 31.5575C38.4104 29.6944 41.3732 28.1632 44.485 26.9959C45.3922 26.6563 44.9918 25.1865 44.0795 25.5286C40.8407 26.7361 37.7563 28.3226 34.8904 30.2549C34.0845 30.7998 34.8448 32.1176 35.6506 31.5677L35.6582 31.5575Z" fill="white"/>
<path d="M19.2012 53.1495C19.8652 50.9624 20.9093 48.8565 22.0016 46.857C24.6346 42.0369 28.1138 37.7301 32.2728 34.1427C33.0153 33.5041 31.9357 32.4321 31.1983 33.0682C25.2935 38.1519 20.0299 45.192 17.7364 52.7465C17.4526 53.6842 18.9199 54.0871 19.2038 53.152L19.2012 53.1495Z" fill="white"/>
</svg>
