<svg width="120" height="120" viewBox="0 0 120 120" fill="none" xmlns="http://www.w3.org/2000/svg">
<path d="M108.06 47.3453C108.06 47.3453 102.786 43.7885 93.9398 41.7327C97.8934 39.1026 100.896 35.2698 102.502 30.8013C104.109 26.3328 104.234 21.4658 102.861 16.9204C101.487 12.3749 98.6864 8.39228 94.8738 5.56164C91.0612 2.73099 86.4388 1.20264 81.6902 1.20264C76.9417 1.20264 72.3192 2.73099 68.5066 5.56164C64.694 8.39228 61.8937 12.3749 60.5199 16.9204C59.1461 21.4658 59.2717 26.3328 60.8783 30.8013C62.4849 35.2698 65.487 39.1026 69.4406 41.7327C65.1725 42.7535 61.9713 43.945 59.5741 45.1365C58.3825 33.9077 49.0246 25.062 37.4579 25.062C32.7128 25.0582 28.0926 26.5823 24.2812 29.4089C20.4698 32.2354 17.6698 36.214 16.2956 40.7558C14.9215 45.2975 15.0462 50.1611 16.6514 54.6264C18.2567 59.0918 21.257 62.9216 25.2083 65.549C16.3626 67.5906 11.0879 71.1616 11.0879 71.1616C7.85474 73.0324 5.13379 77.4571 5.13379 81.1988V103.315C5.13942 105.118 5.85809 106.845 7.13289 108.12C8.4077 109.395 10.1351 110.114 11.9379 110.119H62.9779C64.7808 110.114 66.5081 109.395 67.783 108.12C69.0578 106.845 69.7764 105.118 69.7821 103.315V86.3028H107.214C109.017 86.2972 110.744 85.5786 112.019 84.3037C113.294 83.0289 114.012 81.3015 114.018 79.4987V57.3826C114.018 53.6373 111.482 49.0454 108.06 47.3453Z" fill="#7BB1FF"/>
<path d="M113.125 57.3826V79.4988C113.12 81.3016 112.401 83.029 111.126 84.3038C109.851 85.5786 108.124 86.2973 106.321 86.3029H68.893V103.319C68.8865 105.122 68.1665 106.85 66.8904 108.125C65.6142 109.4 63.8856 110.118 62.0818 110.123H11.0454C9.24223 110.118 7.51429 109.4 6.23928 108.125C4.96428 106.85 4.24591 105.122 4.24121 103.319V94.0176C7.08665 95.1237 10.1704 95.7035 13.2008 96.2548C24.7319 98.3284 38.1339 99.6195 46.7307 91.663C50.7747 87.9248 53.2396 82.4829 57.9772 79.6802C62.7149 76.8774 68.5267 77.3362 73.9544 76.6533C87.2034 74.9923 98.795 66.1039 106.122 54.9569C107.362 53.0687 108.501 51.1157 109.533 49.106C111.688 51.2863 113.125 54.5692 113.125 57.3826Z" fill="#7BB1FF"/>
<path d="M62.9782 113.15H11.9382C9.56852 113.147 7.29669 112.204 5.62106 110.529C3.94543 108.853 3.00282 106.581 3 104.211L3 82.0917C3 77.7275 6.05173 72.5559 9.95709 70.244C10.5262 69.867 14.3355 67.4448 20.5955 65.485C17.1278 62.1264 14.7419 57.809 13.7432 53.0859C12.7446 48.3629 13.1788 43.4492 14.9902 38.9744C16.8016 34.4996 19.9076 30.6675 23.9105 27.9691C27.9134 25.2706 32.6307 23.8286 37.4582 23.8279C43.0058 23.8369 48.3844 25.7376 52.706 29.2159C57.0276 32.6943 60.0338 37.5424 61.2283 42.9599C62.3498 42.5093 63.5532 42.0837 64.8384 41.683C61.3656 38.3248 58.975 34.0059 57.973 29.2801C56.971 24.5542 57.4033 19.6368 59.2145 15.1583C61.0257 10.6798 64.1332 6.84431 68.1387 4.14358C72.1441 1.44286 76.8649 0 81.6958 0C86.5267 0 91.2475 1.44286 95.253 4.14358C99.2584 6.84431 102.366 10.6798 104.177 15.1583C105.988 19.6368 106.421 24.5542 105.419 29.2801C104.417 34.0059 102.026 38.3248 98.5533 41.683C104.639 43.5894 108.409 45.9511 109.138 46.4064C113.079 48.4515 116.152 53.6409 116.152 58.2896V80.3809C116.152 82.7524 115.211 85.027 113.535 86.7049C111.859 88.3829 109.586 89.3269 107.214 89.3298H71.9164V104.211C71.9136 106.581 70.971 108.853 69.2954 110.529C67.6197 112.204 65.3479 113.147 62.9782 113.15ZM37.4582 28.096C32.1625 28.1026 27.0854 30.2085 23.3398 33.9521C19.5942 37.6958 17.4856 42.7717 17.4762 48.0674C17.4633 51.3536 18.2695 54.5912 19.822 57.4875C21.3746 60.3839 23.6244 62.8477 26.3681 64.6563L30.5403 67.3986L25.6781 68.5225C17.3872 70.4219 12.333 73.7901 12.2832 73.8221L12.1587 73.9004C9.50893 75.4369 7.26815 79.1858 7.26815 82.0917V104.211C7.27003 105.449 7.76266 106.636 8.63806 107.512C9.51346 108.387 10.7002 108.88 11.9382 108.881H62.9782C64.2162 108.88 65.403 108.387 66.2784 107.512C67.1538 106.636 67.6464 105.449 67.6483 104.211V85.0616H107.214C108.454 85.0597 109.642 84.5656 110.518 83.6879C111.394 82.8102 111.885 81.6207 111.884 80.3809V58.2754C111.884 55.2166 109.654 51.4179 107.111 50.1481L106.986 50.0841L106.873 50.0059C106.794 49.9561 101.747 46.6127 93.467 44.7027L88.6049 43.5787L92.777 40.8364C95.521 39.0281 97.771 36.5643 99.3235 33.6679C100.876 30.7715 101.682 27.5338 101.669 24.2476C101.669 21.6235 101.152 19.0251 100.148 16.6007C99.1438 14.1764 97.6719 11.9736 95.8164 10.1181C93.9609 8.26259 91.7581 6.79073 89.3338 5.78653C86.9094 4.78234 84.311 4.26549 81.6869 4.26549C79.0629 4.26549 76.4645 4.78234 74.0401 5.78653C71.6158 6.79073 69.413 8.26259 67.5575 10.1181C65.702 11.9736 64.2301 14.1764 63.2259 16.6007C62.2217 19.0251 61.7049 21.6235 61.7049 24.2476C61.6917 27.5338 62.4978 30.7715 64.0503 33.6679C65.6029 36.5643 67.8529 39.0281 70.5969 40.8364L74.7192 43.5432L69.9246 44.6956C66.6768 45.4205 63.5201 46.5061 60.5134 47.9322L57.7746 49.3087L57.451 46.2499C56.9554 41.2864 54.6371 36.683 50.9442 33.3298C47.2514 29.9766 42.4463 28.1118 37.4582 28.096Z" fill="#4B4B63"/>
<path d="M33.8904 34.452C35.8308 33.7778 37.888 33.5056 39.9369 33.6517C41.3063 33.7513 41.3027 31.6172 39.9369 31.5176C37.6965 31.3622 35.4477 31.6598 33.3249 32.3926C32.0302 32.8301 32.585 34.8824 33.8939 34.452H33.8904Z" fill="white"/>
<path d="M30.2985 60.0182C28.58 58.766 27.147 57.1631 26.0942 55.3157C25.0414 53.4683 24.3929 51.4184 24.1915 49.3016C23.7362 44.66 25.568 40.4096 28.9896 37.3259C30.0104 36.4011 28.4952 34.8966 27.4815 35.8178C19.5641 42.9919 20.5991 55.7074 29.2208 61.8607C30.3412 62.6609 31.4082 60.7936 30.2878 60.0182H30.2985Z" fill="white"/>
<path d="M62.8713 119.627C62.8713 119.627 93.7549 104.187 93.7549 81.0212V50.1483L62.8713 42.4265L31.9912 50.1483V81.0319C31.9912 104.187 62.8713 119.627 62.8713 119.627Z" fill="#EEC5C4"/>
<path d="M93.7549 66.353V79.2606C93.7549 102.426 62.8713 117.866 62.8713 117.866C62.8713 117.866 31.9912 102.433 31.9912 79.2642V66.353C31.9912 89.5184 62.8713 104.958 62.8713 104.958C62.8713 104.958 93.7549 89.5184 93.7549 66.353Z" fill="#EEC5C4"/>
<path d="M62.8717 120L61.9184 119.506C56.2222 116.496 50.8931 112.838 46.0373 108.604C35.4594 99.3564 29.8682 89.1129 29.8682 79.008V46.4598L62.8859 38.2045L95.9036 46.4598V79.008C95.9036 89.1129 90.3123 99.3458 79.7344 108.604C74.8687 112.84 69.5287 116.498 63.8213 119.506L62.8717 120ZM34.1256 49.7925V79.008C34.1256 98.3747 57.7819 112.403 62.8752 115.195C67.9614 112.399 91.6248 98.3463 91.6248 79.008V49.7925L62.8752 42.6042L34.1256 49.7925Z" fill="#4B4B63"/>
<path d="M62.4667 87.0263C61.5778 87.0263 60.8 86.832 60.1333 86.4433C59.4667 86.0547 59.1333 85.4285 59.1333 84.5648C59.1333 81.7146 59.0667 78.6269 58.9333 75.3016C58.8 71.9764 58.6444 68.6511 58.4667 65.3259C58.3333 62.0007 58.2667 58.913 58.2667 56.0628C58.2667 54.9399 58.6667 54.0762 59.4667 53.4717C60.2667 52.8239 61.2667 52.5 62.4667 52.5C63.5778 52.5 64.5333 52.8239 65.3333 53.4717C66.1778 54.0762 66.6 54.9399 66.6 56.0628C66.6 58.913 66.5333 62.0007 66.4 65.3259C66.2667 68.6511 66.1111 71.9764 65.9333 75.3016C65.8 78.6269 65.7333 81.7146 65.7333 84.5648C65.7333 85.4285 65.3556 86.0547 64.6 86.4433C63.8444 86.832 63.1333 87.0263 62.4667 87.0263ZM62.5333 100.5C61.2444 100.5 60.1556 100.068 59.2667 99.2045C58.4222 98.2976 58 97.2611 58 96.0951C58 94.886 58.4222 93.8495 59.2667 92.9858C60.1556 92.1221 61.2444 91.6903 62.5333 91.6903C63.7333 91.6903 64.7778 92.1221 65.6667 92.9858C66.5556 93.8495 67 94.886 67 96.0951C67 97.2611 66.5556 98.2976 65.6667 99.2045C64.7778 100.068 63.7333 100.5 62.5333 100.5Z" fill="white"/>
</svg>
