<svg width="120" height="120" viewBox="0 0 120 120" fill="none" xmlns="http://www.w3.org/2000/svg">
<path d="M48.8549 35.2707H103.729C104.854 35.2707 105.933 35.7264 106.729 36.5375C107.525 37.3486 107.972 38.4486 107.972 39.5957V84.7126C107.972 85.8597 107.525 86.9597 106.729 87.7708C105.933 88.5819 104.854 89.0376 103.729 89.0376H48.8549C48.2841 89.0376 47.719 88.923 47.1917 88.7004C46.6644 88.4777 46.1853 88.1514 45.7817 87.74C45.3782 87.3287 45.058 86.8403 44.8396 86.3028C44.6212 85.7653 44.5088 85.1892 44.5088 84.6074V39.7009C44.5088 38.5259 44.9667 37.3991 45.7817 36.5683C46.5968 35.7374 47.7022 35.2707 48.8549 35.2707Z" fill="white"/>
<path d="M107.572 38.6362V84.3972C107.572 86.6189 108.642 88.341 106.476 88.341H48.1455C47.2232 88.3466 46.3272 88.0281 45.6084 87.4391C44.8896 86.85 44.392 86.0264 44.1992 85.1071C44.4913 85.2315 44.7999 85.3113 45.1149 85.3437H100.569C101.083 85.3438 101.591 85.2396 102.065 85.0373C102.538 84.835 102.968 84.5387 103.328 84.1655C103.688 83.7922 103.972 83.3497 104.162 82.8636C104.353 82.3775 104.447 81.8576 104.438 81.3342V35.5074C104.465 35.2496 104.465 34.9896 104.438 34.7318C105.326 34.9069 106.125 35.3932 106.697 36.1064C107.27 36.8196 107.579 37.7147 107.572 38.6362Z" fill="#D9D9DD"/>
<path opacity="0.8" d="M63.8018 16.8666L35.6362 35.5207C35.2281 35.7909 34.7717 35.9765 34.2932 36.0669C33.8147 36.1573 33.3234 36.1507 32.8474 36.0476C32.3714 35.9444 31.9199 35.7467 31.5189 35.4657C31.1178 35.1847 30.775 34.826 30.5099 34.4099C30.2449 33.9939 30.0628 33.5287 29.9742 33.0409C29.8855 32.5531 29.8919 32.0523 29.9931 31.5671C30.0943 31.0819 30.2883 30.6217 30.5639 30.2129C30.8396 29.804 31.1915 29.4546 31.5997 29.1844L59.7524 10.5303C60.5757 10.0424 61.5515 9.89552 62.4781 10.1201C63.4047 10.3446 64.2112 10.9234 64.7311 11.7369C65.2509 12.5503 65.4444 13.5362 65.2714 14.4909C65.0985 15.4456 64.5724 16.2961 63.8018 16.8666Z" fill="#D6EBFF"/>
<path opacity="0.8" d="M26.1575 41.8043L7.32886 54.2798C6.50548 54.7677 5.5297 54.9146 4.60313 54.6901C3.67657 54.4655 2.87003 53.8867 2.35017 53.0733C1.83031 52.2598 1.63687 51.2739 1.8098 50.3192C1.98274 49.3645 2.50885 48.514 3.27941 47.9435L22.121 35.468C22.9453 34.9223 23.9484 34.7328 24.9098 34.9412C25.8712 35.1495 26.712 35.7386 27.2473 36.5788C27.7825 37.4191 27.9684 38.4417 27.7641 39.4216C27.5597 40.4016 26.9818 41.2587 26.1575 41.8043Z" fill="#7BB1FF"/>
<path d="M50.5699 12.4756L22.4172 31.1429C22.0082 31.4139 21.5509 31.6002 21.0712 31.691C20.5916 31.7819 20.0991 31.7756 19.6219 31.6724C19.1447 31.5693 18.6921 31.3713 18.2899 31.0899C17.8878 30.8084 17.5439 30.449 17.278 30.0321C17.0121 29.6151 16.8294 29.1489 16.7403 28.66C16.6511 28.1711 16.6573 27.6691 16.7585 27.1827C16.9629 26.2002 17.5418 25.3408 18.3678 24.7934L46.5334 6.1393C46.9415 5.86912 47.3979 5.68354 47.8764 5.59315C48.3549 5.50276 48.8462 5.50932 49.3222 5.61247C49.7982 5.71562 50.2497 5.91334 50.6507 6.19433C51.0518 6.47532 51.3946 6.83408 51.6597 7.25013C51.9247 7.66618 52.1068 8.13137 52.1954 8.61914C52.2841 9.10691 52.2777 9.60771 52.1765 10.0929C52.0753 10.5782 51.8813 11.0383 51.6057 11.4472C51.33 11.856 50.9781 12.2055 50.5699 12.4756Z" fill="#D6EBFF"/>
<path d="M59.0685 6.84925L58.9009 6.95441C58.4934 7.25613 58.03 7.47021 57.5388 7.58365C57.0476 7.6971 56.5389 7.70752 56.0436 7.6143C55.5484 7.52108 55.0769 7.32616 54.6578 7.04139C54.2388 6.75662 53.8809 6.38795 53.606 5.95779C53.3311 5.52764 53.1449 5.04498 53.0587 4.53917C52.9725 4.03337 52.9881 3.51497 53.1046 3.01551C53.2211 2.51605 53.436 2.04596 53.7363 1.63381C54.0366 1.22167 54.416 0.876081 54.8514 0.618066L55.0191 0.512899C55.8424 0.024982 56.8182 -0.121874 57.7448 0.102675C58.6713 0.327224 59.4779 0.906018 59.9977 1.71946C60.5176 2.5329 60.711 3.51883 60.5381 4.47352C60.3652 5.4282 59.8391 6.27869 59.0685 6.84925Z" fill="#7BB1FF"/>
<path opacity="0.5" d="M62.3699 30.972L34.2043 49.6261C33.7953 49.8971 33.338 50.0834 32.8583 50.1743C32.3787 50.2651 31.8863 50.2588 31.409 50.1556C30.9318 50.0525 30.4792 49.8545 30.077 49.5731C29.6749 49.2916 29.331 48.9322 29.0651 48.5153C28.7992 48.0984 28.6165 47.6321 28.5274 47.1432C28.4382 46.6543 28.4445 46.1523 28.5456 45.6659C28.6468 45.1794 28.841 44.718 29.1171 44.3081C29.3933 43.8981 29.7459 43.5476 30.1549 43.2766L58.3205 24.6094C59.1465 24.062 60.152 23.8715 61.1158 24.0798C62.0796 24.2881 62.9227 24.8782 63.4597 25.7202C63.9967 26.5622 64.1835 27.5871 63.9792 28.5696C63.7748 29.552 63.1959 30.4115 62.3699 30.9589V30.972Z" fill="#D6EBFF"/>
<path opacity="0.5" d="M24.7256 55.9099L5.89694 68.3854C5.48946 68.6871 5.02604 68.9012 4.53486 69.0147C4.04367 69.1281 3.53499 69.1385 3.03973 69.0453C2.54446 68.9521 2.07297 68.7572 1.65392 68.4724C1.23487 68.1876 0.877017 67.819 0.602111 67.3888C0.327206 66.9586 0.140995 66.476 0.0547999 65.9702C-0.031395 65.4644 -0.0157738 64.946 0.100715 64.4465C0.217205 63.9471 0.432128 63.477 0.732417 63.0648C1.03271 62.6527 1.41209 62.3071 1.84749 62.0491L20.689 49.5736C21.5133 49.0279 22.5165 48.8384 23.4779 49.0468C24.4393 49.2551 25.2801 49.8442 25.8153 50.6844C26.3506 51.5247 26.5365 52.5472 26.3322 53.5272C26.1278 54.5072 25.5499 55.3643 24.7256 55.9099Z" fill="#D6EBFF"/>
<path opacity="0.5" d="M70.9074 25.3324L70.7397 25.4507C70.3322 25.7524 69.8688 25.9665 69.3776 26.0799C68.8864 26.1934 68.3778 26.2038 67.8825 26.1106C67.3872 26.0174 66.9157 25.8225 66.4967 25.5377C66.0776 25.2529 65.7198 24.8842 65.4449 24.4541C65.17 24.0239 64.9838 23.5413 64.8976 23.0355C64.8114 22.5297 64.827 22.0113 64.9435 21.5118C65.06 21.0123 65.2749 20.5423 65.5752 20.1301C65.8755 19.718 66.2549 19.3724 66.6903 19.1144L66.8708 18.996C67.279 18.7259 67.7353 18.5403 68.2138 18.4499C68.6923 18.3595 69.1836 18.3661 69.6597 18.4692C70.1357 18.5724 70.5871 18.7701 70.9882 19.0511C71.3892 19.3321 71.7321 19.6908 71.9971 20.1069C72.2622 20.5229 72.4442 20.9881 72.5329 21.4759C72.6216 21.9637 72.6151 22.4645 72.5139 22.9497C72.4127 23.4349 72.2188 23.8951 71.9431 24.3039C71.6675 24.7127 71.3155 25.0622 70.9074 25.3324Z" fill="#7BB1FF"/>
<path d="M46.5203 35.3891H104.309C105.41 35.3891 106.466 35.8351 107.245 36.6289C108.024 37.4228 108.461 38.4994 108.461 39.6221V84.9625C108.461 86.0851 108.024 87.1618 107.245 87.9556C106.466 88.7495 105.41 89.1955 104.309 89.1955H46.5203C46.1167 89.1955 45.7296 89.032 45.4443 88.7411C45.1589 88.4502 44.9985 88.0556 44.9985 87.6442V36.9798C44.9934 36.7728 45.0289 36.5668 45.1031 36.374C45.1772 36.1812 45.2885 36.0055 45.4303 35.8573C45.5722 35.709 45.7417 35.5912 45.9289 35.5108C46.1161 35.4304 46.3172 35.389 46.5203 35.3891V35.3891Z" stroke="#4B4B63" stroke-width="3.39604" stroke-miterlimit="10"/>
<path d="M91.6445 45.6298H108.448" stroke="#4B4B63" stroke-width="3.39604" stroke-miterlimit="10" stroke-linecap="round"/>
<path d="M44.999 45.6298H65.5816" stroke="#4B4B63" stroke-width="3.39604" stroke-miterlimit="10" stroke-linecap="round"/>
<path d="M80.6443 47.7593H77.7813C76.6329 47.7319 75.5407 47.2475 74.7382 46.4097C73.9356 45.572 73.4865 44.4475 73.4868 43.2766C73.4869 42.677 73.6123 42.0843 73.8547 41.538C74.0971 40.9917 74.4509 40.5044 74.8925 40.1084L76.7367 38.268C77.1719 37.8323 77.5175 37.3127 77.7535 36.7394C77.9894 36.1661 78.1109 35.5506 78.1109 34.9289C78.1109 34.3072 77.9894 33.6917 77.7535 33.1184C77.5175 32.5451 77.1719 32.0254 76.7367 31.5898L72.5454 27.3568C71.6584 26.4968 70.481 26.0172 69.2568 26.0172C68.0326 26.0172 66.8553 26.4968 65.9683 27.3568L64.2015 29.1578C63.8012 29.6203 63.309 29.9907 62.7576 30.2445C62.2062 30.4983 61.6082 30.6298 61.0032 30.6302C59.8544 30.6375 58.7484 30.1864 57.9217 29.3732C57.0951 28.56 56.6134 27.4494 56.5797 26.2789V23.3473C56.5867 22.0895 56.1076 20.8794 55.2459 19.9789C54.3843 19.0785 53.2095 18.5601 51.9757 18.5359H46.2755C45.043 18.5601 43.8695 19.0789 43.0099 19.9797C42.1503 20.8806 41.674 22.0907 41.6844 23.3473V26.2657C41.6508 27.4328 41.1705 28.54 40.3462 29.3508C39.522 30.1615 38.4193 30.6112 37.2739 30.6039C36.6849 30.6048 36.1024 30.4788 35.5645 30.2341C35.0267 29.9894 34.5456 29.6316 34.153 29.1841L32.3346 27.3568C31.448 26.4908 30.2609 26.0181 29.0331 26.0422C27.8155 26.0321 26.6415 26.5032 25.7575 27.3568L21.5275 31.5635C20.6612 32.4504 20.1748 33.651 20.1748 34.9026C20.1748 36.1541 20.6612 37.3547 21.5275 38.2417L23.2943 40.0295C23.7474 40.436 24.1114 40.9352 24.3625 41.4947C24.6136 42.0542 24.7461 42.6613 24.7516 43.2766C24.7552 44.4463 24.309 45.5708 23.5085 46.4089C22.708 47.247 21.6171 47.7318 20.47 47.7593H17.607C16.9917 47.7506 16.3809 47.866 15.8096 48.0988C15.2382 48.3316 14.7177 48.6772 14.2778 49.1158C13.838 49.5544 13.4875 50.0773 13.2466 50.6544C13.0057 51.2316 12.8791 51.8515 12.874 52.4787V58.3024C12.9045 59.5553 13.4186 60.7455 14.3048 61.6143C15.1909 62.4832 16.3776 62.9606 17.607 62.9429H20.47C21.6172 62.9771 22.7062 63.4658 23.5057 64.3053C24.3051 65.1448 24.752 66.2689 24.7516 67.4388C24.7476 68.0524 24.6156 68.6581 24.3643 69.2156C24.1131 69.7732 23.7483 70.2699 23.2943 70.6727L21.5275 72.4606C20.662 73.3452 20.176 74.5437 20.176 75.7931C20.176 77.0425 20.662 78.2409 21.5275 79.1256L25.7704 83.3191C26.2066 83.7481 26.7217 84.0851 27.286 84.3107C27.8504 84.5363 28.4529 84.6461 29.0589 84.6337C30.2797 84.6405 31.4566 84.17 32.3475 83.3191L34.1659 81.4787C34.5545 81.0419 35.0282 80.6924 35.5566 80.4525C36.085 80.2126 36.6567 80.0875 37.2352 80.0852C38.384 80.0778 39.49 80.529 40.3167 81.3422C41.1433 82.1553 41.625 83.266 41.6587 84.4365V87.3418C41.6483 88.6006 42.1263 89.8127 42.9887 90.7139C43.851 91.6151 45.0278 92.1324 46.2626 92.1532H51.9757C53.2083 92.129 54.3818 91.6102 55.2414 90.7093C56.101 89.8085 56.5772 88.5984 56.5668 87.3418V84.4234C56.5893 83.5335 56.8727 82.6709 57.3805 81.9468C57.8883 81.2226 58.5972 80.67 59.4159 80.3603C60.2345 80.0505 61.1254 79.9978 61.9738 80.2088C62.8221 80.4199 63.589 80.885 64.1757 81.5444L65.9425 83.3454C66.8295 84.2054 68.0068 84.685 69.231 84.685C70.4552 84.685 71.6326 84.2054 72.5196 83.3454L76.7109 79.0861C77.5772 78.1992 78.0635 76.9986 78.0635 75.747C78.0635 74.4955 77.5772 73.2949 76.7109 72.408L74.8667 70.5544C74.4295 70.1591 74.0801 69.6731 73.8421 69.129C73.6041 68.5848 73.483 67.9951 73.4868 67.3994C73.4831 66.2297 73.9294 65.1051 74.7299 64.267C75.5304 63.4289 76.6212 62.9441 77.7684 62.9166H80.6314C81.2222 62.9172 81.8069 62.7957 82.3503 62.5595C82.8938 62.3233 83.3846 61.9773 83.7932 61.5424C84.2018 61.1075 84.5197 60.5926 84.7277 60.029C84.9357 59.4653 85.0294 58.8646 85.0033 58.2629V52.4787C85.0461 51.8711 84.9648 51.261 84.7645 50.687C84.5642 50.113 84.2493 49.5877 83.8396 49.1441C83.4299 48.7005 82.9344 48.3485 82.3844 48.1101C81.8344 47.8717 81.2419 47.7523 80.6443 47.7593ZM49.1256 70.6596C46.151 70.6622 43.2425 69.7654 40.7679 68.0827C38.2934 66.4 36.364 64.007 35.2239 61.2063C34.0838 58.4057 33.7842 55.3233 34.363 52.3491C34.9417 49.3748 36.3729 46.6424 38.4753 44.4974C40.5778 42.3524 43.2571 40.8912 46.1744 40.2987C49.0917 39.7062 52.1158 40.009 54.8642 41.1688C57.6126 42.3285 59.9619 44.2932 61.6148 46.8142C63.2676 49.3351 64.1499 52.2992 64.1499 55.3314C64.1499 59.3944 62.5674 63.2912 59.7502 66.1654C56.9329 69.0396 53.1115 70.6561 49.1256 70.6596Z" fill="#7BB1FF"/>
<path d="M63.7891 54.1353C63.7899 58.1487 62.2464 62.0023 59.4902 64.8684C56.734 67.7345 52.9851 69.3843 49.0486 69.4634C46.0626 69.5235 43.1267 68.6758 40.6152 67.0284C38.1036 65.3811 36.1302 63.0087 34.9464 60.2136C33.7627 57.4186 33.4223 54.3275 33.9685 51.3345C34.5148 48.3415 35.9231 45.5821 38.0137 43.4081C40.1044 41.234 42.7829 39.7439 45.7076 39.1275C48.6323 38.5111 51.6708 38.7965 54.4358 39.9473C57.2008 41.098 59.567 43.062 61.2328 45.5888C62.8986 48.1156 63.7885 51.0909 63.7891 54.1353Z" fill="white"/>
<path d="M63.5562 55.7391C63.5565 56.3501 63.5177 56.9605 63.4402 57.5664C63.0397 53.8981 61.3265 50.5092 58.6284 48.0479C55.9302 45.5866 52.4365 44.2258 48.8157 44.2258C45.1949 44.2258 41.7012 45.5866 39.0031 48.0479C36.3049 50.5092 34.5917 53.8981 34.1913 57.5664C34.1137 56.9605 34.0749 56.3501 34.0752 55.7391C34.0752 51.754 35.6282 47.9321 38.3926 45.1142C41.157 42.2963 44.9063 40.7133 48.8157 40.7133C52.7251 40.7133 56.4745 42.2963 59.2388 45.1142C62.0032 47.9321 63.5562 51.754 63.5562 55.7391Z" fill="white"/>
<path d="M34.1787 53.307C34.1784 52.696 34.2172 52.0856 34.2948 51.4797C34.6952 55.148 36.4084 58.5369 39.1066 60.9982C41.8047 63.4595 45.2984 64.8203 48.9192 64.8203C52.54 64.8203 56.0337 63.4595 58.7319 60.9982C61.43 58.5369 63.1432 55.148 63.5437 51.4797C63.6213 52.0856 63.66 52.696 63.6597 53.307C63.6597 57.2921 62.1067 61.114 59.3423 63.9319C56.578 66.7498 52.8287 68.3328 48.9192 68.3328C45.0098 68.3328 41.2605 66.7498 38.4961 63.9319C35.7317 61.114 34.1787 57.2921 34.1787 53.307Z" fill="#D9D9DD"/>
<path d="M80.6443 46.6553H77.7813C76.6319 46.6312 75.5377 46.1478 74.7345 45.3094C73.9312 44.4709 73.4832 43.3444 73.4868 42.1725C73.4854 41.5746 73.6102 40.9834 73.8527 40.439C74.0953 39.8946 74.4499 39.4098 74.8925 39.0175L76.7367 37.1771C77.1691 36.7385 77.5123 36.2172 77.7464 35.643C77.9806 35.0689 78.1011 34.4532 78.1011 33.8314C78.1011 33.2096 77.9806 32.594 77.7464 32.0198C77.5123 31.4457 77.1691 30.9243 76.7367 30.4858L72.5454 26.2528C71.6584 25.3928 70.481 24.9132 69.2568 24.9132C68.0326 24.9132 66.8553 25.3928 65.9682 26.2528L64.2015 28.0538C63.8022 28.5175 63.3103 28.8889 62.7586 29.1428C62.207 29.3968 61.6084 29.5275 61.0032 29.5261C59.8544 29.5335 58.7484 29.0824 57.9217 28.2692C57.0951 27.456 56.6134 26.3454 56.5797 25.1748V22.2433C56.5867 20.9867 56.1071 19.778 55.2451 18.8796C54.3831 17.9813 53.2083 17.4658 51.9757 17.445H46.2755C45.0453 17.4658 43.8731 17.9821 43.0152 18.8813C42.1574 19.7804 41.6835 20.9891 41.6973 22.2433V25.1617C41.6637 26.3322 41.182 27.4428 40.3553 28.256C39.5287 29.0692 38.4227 29.5204 37.2739 29.513C36.6855 29.5098 36.1043 29.382 35.567 29.1376C35.0297 28.8932 34.5482 28.5375 34.153 28.0932L32.3346 26.2528C31.8983 25.8238 31.3833 25.4868 30.8189 25.2612C30.2546 25.0356 29.6521 24.9258 29.046 24.9382C27.8242 24.926 26.6454 25.3972 25.7575 26.2528L21.5275 30.4726C20.662 31.3573 20.176 32.5557 20.176 33.8051C20.176 35.0545 20.662 36.253 21.5275 37.1376L23.2943 38.9386C23.7458 39.3436 24.1088 39.8407 24.3598 40.3978C24.6109 40.9549 24.7443 41.5595 24.7516 42.1725C24.7586 43.3432 24.3134 44.4697 23.5122 45.3086C22.711 46.1474 21.6182 46.6311 20.47 46.6553H17.607C16.3732 46.6377 15.1827 47.1187 14.2958 47.9932C13.4089 48.8677 12.8978 50.0645 12.874 51.3221V57.1458C12.9045 58.3999 13.4182 59.5914 14.3039 60.4623C15.1897 61.3333 16.3764 61.8136 17.607 61.7994H20.47C21.6171 61.8269 22.708 62.3118 23.5085 63.1499C24.309 63.9879 24.7552 65.1125 24.7516 66.2822C24.7533 66.9044 24.6241 67.5197 24.3727 68.0866C24.1213 68.6535 23.7535 69.1589 23.2943 69.5687L21.5275 71.3565C20.662 72.2412 20.176 73.4396 20.176 74.689C20.176 75.9384 20.662 77.1369 21.5275 78.0215L25.7704 82.2282C26.6538 83.091 27.8356 83.5634 29.0589 83.5428C30.2797 83.5496 31.4566 83.0791 32.3475 82.2282L34.1659 80.3878C34.5575 79.939 35.0383 79.5803 35.5764 79.3355C36.1145 79.0907 36.6975 78.9654 37.2868 78.968C38.4356 78.9607 39.5416 79.4118 40.3682 80.225C41.1949 81.0382 41.6766 82.1488 41.7102 83.3193V86.2246C41.6999 87.4835 42.1779 88.6955 43.0403 89.5967C43.9026 90.4979 45.0794 91.0153 46.3142 91.036H52.0273C53.2587 91.0118 54.4309 90.4926 55.2884 89.5914C56.1459 88.6901 56.6193 87.48 56.6055 86.2246V83.3193C56.6253 82.4266 56.9077 81.5605 57.4162 80.8333C57.9247 80.1062 58.6357 79.5515 59.4572 79.2412C60.2786 78.9309 61.1725 78.8793 62.0231 79.0932C62.8736 79.307 63.6415 79.7763 64.2272 80.4404L65.994 82.2414C66.8811 83.1014 68.0584 83.581 69.2826 83.581C70.5068 83.581 71.6842 83.1014 72.5712 82.2414L76.7109 77.9821C77.5772 77.0952 78.0635 75.8946 78.0635 74.643C78.0635 73.3915 77.5772 72.1909 76.7109 71.304L74.8667 69.4635C74.4304 69.0646 74.0819 68.5761 73.844 68.03C73.6062 67.484 73.4845 66.8928 73.4868 66.2953C73.483 65.1301 73.9257 64.0094 74.7207 63.172C75.5156 62.3346 76.6 61.8468 77.7426 61.8126H80.6056C81.1964 61.8132 81.7811 61.6917 82.3246 61.4555C82.868 61.2193 83.3588 60.8733 83.7674 60.4384C84.176 60.0034 84.4939 59.4886 84.7019 58.9249C84.9098 58.3613 85.0036 57.7605 84.9775 57.1589V51.3221C85.0127 50.7209 84.9267 50.1188 84.7246 49.5529C84.5225 48.9869 84.2087 48.4693 83.8026 48.0319C83.3965 47.5945 82.9067 47.2467 82.3634 47.0099C81.8202 46.7731 81.2351 46.6524 80.6443 46.6553V46.6553Z" stroke="#4B4B63" stroke-width="3.39604" stroke-miterlimit="10"/>
<path d="M63.789 54.2669C63.7079 57.1909 62.7847 60.026 61.1343 62.4191C59.484 64.8121 57.1794 66.6574 54.5077 67.7249C51.836 68.7925 48.9152 69.0353 46.1091 68.4229C43.303 67.8106 40.7357 66.3703 38.7268 64.2814C36.718 62.1925 35.3564 59.5472 34.8117 56.6752C34.2671 53.8032 34.5634 50.8313 35.6637 48.1297C36.764 45.428 38.6197 43.1161 40.9998 41.4818C43.3798 39.8475 46.1789 38.9631 49.0484 38.9387C52.9849 39.0179 56.7339 40.6677 59.4901 43.5338C62.2462 46.3998 63.7897 50.2535 63.789 54.2669V54.2669Z" stroke="#4B4B63" stroke-width="3.39604" stroke-miterlimit="10" stroke-linecap="round"/>
<path d="M67.0387 62.5356C66.6808 63.5102 66.2497 64.4552 65.749 65.362" stroke="white" stroke-width="1.69802" stroke-miterlimit="10" stroke-linecap="round"/>
<path opacity="0.3" d="M68.8824 53.7934C68.83 54.9026 68.692 56.0059 68.4697 57.093" stroke="white" stroke-width="1.69802" stroke-miterlimit="10" stroke-linecap="round"/>
<path d="M59.6621 35.113C62.0157 36.4169 64.0673 38.2207 65.6781 40.4025C67.2889 42.5842 68.4214 45.0931 68.9991 47.7594" stroke="white" stroke-width="1.69802" stroke-miterlimit="10" stroke-linecap="round"/>
<path opacity="0.7" d="M39.3633 36.7039C41.4108 35.1165 43.7555 33.9733 46.2529 33.3448C48.7503 32.7163 51.3476 32.6157 53.8846 33.0493" stroke="white" stroke-width="1.69802" stroke-miterlimit="10" stroke-linecap="round"/>
<path d="M62.6502 120C61.3392 120 60.1233 119.761 59.0026 119.284C57.8819 118.784 56.9832 117.992 56.3065 116.906C55.651 115.799 55.3232 114.334 55.3232 112.51V103.49C55.3232 101.666 55.651 100.212 56.3065 99.1262C56.9832 98.019 57.8819 97.2266 59.0026 96.749C60.1233 96.2497 61.3497 96 62.6819 96C64.1621 96 65.4626 96.2605 66.5833 96.7815C67.7252 97.2809 68.6133 97.9864 69.2476 98.8982C69.9031 99.81 70.2309 100.906 70.2309 102.187C70.2309 103.034 70.0617 103.598 69.7234 103.881C69.3851 104.141 68.867 104.271 68.1692 104.271C67.5983 104.271 67.1119 104.174 66.7102 103.978C66.3295 103.761 66.1287 103.414 66.1075 102.936C66.1075 102.676 66.0652 102.372 65.9806 102.024C65.9172 101.655 65.7798 101.297 65.5683 100.95C65.3568 100.602 65.0291 100.309 64.585 100.071C64.1621 99.8317 63.57 99.7123 62.8088 99.7123C61.7304 99.7123 60.9057 100.027 60.3348 100.657C59.7638 101.265 59.4784 102.209 59.4784 103.49V112.51C59.4784 113.813 59.7638 114.768 60.3348 115.376C60.9268 115.984 61.7727 116.288 62.8722 116.288C63.5912 116.288 64.1621 116.168 64.585 115.929C65.0079 115.691 65.3145 115.398 65.5049 115.05C65.7163 114.681 65.8538 114.301 65.9172 113.91C66.0018 113.52 66.0652 113.151 66.1075 112.803C66.1498 112.282 66.3613 111.935 66.7419 111.761C67.1225 111.566 67.5877 111.468 68.1375 111.468C68.8564 111.468 69.3851 111.609 69.7234 111.891C70.0617 112.174 70.2309 112.727 70.2309 113.552C70.2309 114.855 69.9031 115.995 69.2476 116.972C68.6133 117.948 67.7252 118.697 66.5833 119.218C65.4414 119.739 64.1304 120 62.6502 120Z" fill="#4B4B63"/>
<path d="M85.2902 119.967C85.0153 119.967 84.7404 119.881 84.4655 119.707C84.2118 119.533 84.0109 119.284 83.8629 118.958L79.3589 109.97H76.6945V118.437C76.6945 118.893 76.4831 119.24 76.0602 119.479C75.6372 119.696 75.1615 119.805 74.6328 119.805C74.1253 119.805 73.6496 119.696 73.2055 119.479C72.7826 119.24 72.5711 118.893 72.5711 118.437V97.3351C72.5711 96.9661 72.6874 96.6513 72.92 96.3908C73.1738 96.1303 73.5015 96 73.9033 96H80.1836C81.5792 96 82.8373 96.2062 83.958 96.6187C85.0999 97.0312 86.0092 97.7368 86.6858 98.7354C87.3625 99.7123 87.7008 101.069 87.7008 102.806C87.7008 104.065 87.5211 105.14 87.1616 106.03C86.8021 106.898 86.3052 107.604 85.6708 108.147C85.0576 108.668 84.3492 109.058 83.5457 109.319L87.7325 117.232C87.7748 117.319 87.8066 117.417 87.8277 117.525C87.8488 117.612 87.8594 117.688 87.8594 117.753C87.8594 118.1 87.7325 118.448 87.4788 118.795C87.225 119.142 86.8973 119.425 86.4955 119.642C86.1149 119.859 85.7131 119.967 85.2902 119.967ZM76.6945 106.649H80.1836C81.2197 106.649 82.0444 106.388 82.6576 105.867C83.2708 105.346 83.5774 104.456 83.5774 103.197C83.5774 101.894 83.2708 100.993 82.6576 100.494C82.0444 99.9729 81.2197 99.7123 80.1836 99.7123H76.6945V106.649Z" fill="#4B4B63"/>
<path d="M92.1845 119.805C91.677 119.805 91.2013 119.696 90.7572 119.479C90.3343 119.24 90.1228 118.893 90.1228 118.437V98.1167C90.1228 97.3351 90.3343 96.7924 90.7572 96.4885C91.2013 96.1628 91.677 96 92.1845 96C92.692 96 93.1149 96.0543 93.4533 96.1628C93.8127 96.2714 94.1405 96.4885 94.4365 96.8141C94.7537 97.1398 95.0815 97.6174 95.4198 98.2469L99.3212 105.541L103.191 98.2469C103.571 97.6174 103.899 97.1398 104.174 96.8141C104.47 96.4885 104.798 96.2714 105.157 96.1628C105.517 96.0543 105.94 96 106.426 96C106.955 96 107.431 96.1628 107.853 96.4885C108.276 96.7924 108.488 97.3351 108.488 98.1167V118.437C108.488 118.893 108.266 119.24 107.822 119.479C107.399 119.696 106.934 119.805 106.426 119.805C105.919 119.805 105.443 119.696 104.999 119.479C104.576 119.24 104.364 118.893 104.364 118.437V104.467L100.685 111.24C100.495 111.544 100.273 111.772 100.019 111.924C99.7652 112.054 99.5115 112.119 99.2577 112.119C99.0251 112.119 98.782 112.054 98.5282 111.924C98.2956 111.794 98.0842 111.566 97.8938 111.24L94.2462 104.239V118.437C94.2462 118.893 94.0348 119.24 93.6119 119.479C93.1889 119.696 92.7132 119.805 92.1845 119.805Z" fill="#4B4B63"/>
</svg>
