<svg width="122" height="121" viewBox="0 0 122 121" fill="none" xmlns="http://www.w3.org/2000/svg">
<path opacity="0.5" d="M115.703 17.7675H16.4747C13.1092 17.7675 10.3809 20.4958 10.3809 23.8614V104.406C10.3809 107.772 13.1092 110.5 16.4747 110.5H115.703C119.068 110.5 121.797 107.772 121.797 104.406V23.8614C121.797 20.4958 119.068 17.7675 115.703 17.7675Z" fill="#D9D9DD"/>
<path d="M109.708 32.339C109.697 32.3297 109.69 32.3175 109.686 32.3041L109.63 28.4826C109.634 28.4703 109.642 28.4591 109.652 28.4504C109.665 28.4387 109.682 28.4322 109.7 28.4322C109.718 28.4322 109.735 28.4387 109.748 28.4504C109.759 28.4598 109.766 28.4719 109.77 28.4854L109.826 32.3068C109.822 32.3192 109.814 32.3303 109.805 32.339L110.014 32.5768L109.805 32.339C109.791 32.3508 109.774 32.3573 109.756 32.3573C109.739 32.3573 109.721 32.3508 109.708 32.339L109.495 32.5809L109.708 32.339Z" fill="white" stroke="#4B4B63" stroke-width="0.644758"/>
<path d="M106.625 21.1525H109.061V21.2193V21.286H106.61C106.603 21.282 106.597 21.2769 106.592 21.2707C106.58 21.2574 106.573 21.2402 106.573 21.2224C106.573 21.2046 106.58 21.1875 106.592 21.1741C106.601 21.1639 106.612 21.1565 106.625 21.1525ZM109.845 21.2255L109.772 21.1525H109.775C109.793 21.1532 109.811 21.1608 109.824 21.1739C109.837 21.1869 109.845 21.2044 109.845 21.2228V21.2255ZM109.845 21.9308V24.0839C109.841 24.0968 109.834 24.1085 109.824 24.1175C109.81 24.1293 109.793 24.1357 109.775 24.1357C109.758 24.1357 109.74 24.1293 109.727 24.1175C109.717 24.1085 109.709 24.0968 109.706 24.0839V21.9308H109.772H109.845Z" fill="white" stroke="#4B4B63" stroke-width="0.644758"/>
<path d="M2.85059 11.4917H114.266V104.224H2.85059V11.4917Z" fill="#7BB1FF"/>
<path d="M3 11.5H115V15.5H3V11.5Z" fill="white"/>
<path d="M2.52344 87.9131H114.956V104.243H2.52344V87.9131Z" fill="#055FE1"/>
<path d="M35.341 34.7602H7.41274L10.8428 29.6123H31.911L35.341 34.7602Z" fill="#055FE1" stroke="#4B4B63" stroke-width="0.644758"/>
<path d="M115.421 41.1201V103.044C115.413 103.533 115.215 103.999 114.87 104.344C114.524 104.69 114.058 104.888 113.569 104.896H3.30842C2.81992 104.888 2.35369 104.69 2.00822 104.344C1.66276 103.999 1.46511 103.533 1.45703 103.044V12.3514C1.46511 11.8629 1.66276 11.3967 2.00822 11.0512C2.35369 10.7057 2.81992 10.5081 3.30842 10.5H19.8203" stroke="#4B4B63" stroke-width="2.57903" stroke-miterlimit="10" stroke-linecap="round"/>
<path d="M45.9658 10.5H113.538C114.032 10.4999 114.506 10.694 114.859 11.0403C115.211 11.3866 115.413 11.8575 115.421 12.3514V32.9614" stroke="#4B4B63" stroke-width="2.57903" stroke-miterlimit="10" stroke-linecap="round"/>
<path d="M27.3516 10.5H40.5309" stroke="#4B4B63" stroke-width="2.57903" stroke-miterlimit="10" stroke-linecap="round"/>
<path d="M32.0995 21.7714C32.0995 23.0561 31.0581 24.0975 29.7734 24.0975C28.4888 24.0975 27.4474 23.0561 27.4474 21.7714C27.4474 20.4868 28.4888 19.4454 29.7734 19.4454C31.0581 19.4454 32.0995 20.4868 32.0995 21.7714Z" fill="#055FE1" stroke="#4B4B63" stroke-width="0.644758"/>
<path d="M23.5018 21.7714C23.5018 23.0561 22.4604 24.0975 21.1758 24.0975C19.8911 24.0975 18.8497 23.0561 18.8497 21.7714C18.8497 20.4868 19.8911 19.4454 21.1758 19.4454C22.4604 19.4454 23.5018 20.4868 23.5018 21.7714Z" fill="#055FE1" stroke="#4B4B63" stroke-width="0.644758"/>
<path d="M14.91 21.7714C14.91 23.0561 13.8686 24.0975 12.584 24.0975C11.2993 24.0975 10.2579 23.0561 10.2579 21.7714C10.2579 20.4868 11.2993 19.4454 12.584 19.4454C13.8686 19.4454 14.91 20.4868 14.91 21.7714Z" fill="#EEC5C4" stroke="#4B4B63" stroke-width="0.644758"/>
<path opacity="0.15" d="M30.07 21.1291L30.0658 21.1291C29.4264 21.1356 28.8062 21.3491 28.2983 21.7377C27.9896 21.9738 27.7325 22.2668 27.5393 22.5985C27.4959 22.4622 27.4651 22.3217 27.4474 22.1787C27.4025 21.816 27.4438 21.4477 27.5678 21.1038C27.6918 20.76 27.8952 20.4502 28.1613 20.1996C28.4275 19.949 28.749 19.7647 29.0997 19.6615C29.4504 19.5584 29.8205 19.5394 30.1799 19.606C30.5393 19.6727 30.878 19.8231 31.1684 20.0451C31.4588 20.2671 31.6929 20.5544 31.8515 20.8838C32.0077 21.2081 32.0865 21.5642 32.0817 21.9239C31.9041 21.7586 31.7061 21.615 31.4919 21.497C31.0563 21.257 30.5673 21.1305 30.07 21.1291Z" fill="white" stroke="#4B4B63" stroke-width="0.644758"/>
<path opacity="0.15" d="M21.5654 21.129L21.5643 21.129C20.9212 21.1309 20.2962 21.3423 19.7841 21.7312C19.4763 21.9648 19.2194 22.2549 19.0254 22.5835C18.9875 22.454 18.9608 22.3209 18.9458 22.1858C18.906 21.8255 18.9509 21.4609 19.0771 21.121C19.2032 20.7811 19.407 20.4754 19.6722 20.2283C19.9375 19.9812 20.2568 19.7995 20.6047 19.6977C20.9527 19.5959 21.3196 19.5769 21.6762 19.6421C22.0328 19.7073 22.3692 19.855 22.6586 20.0733C22.948 20.2916 23.1824 20.5745 23.343 20.8995C23.5005 21.2181 23.5828 21.5684 23.5838 21.9235C23.4055 21.7575 23.2066 21.6134 22.9913 21.4952C22.5543 21.2551 22.0639 21.1292 21.5654 21.129Z" fill="white" stroke="#4B4B63" stroke-width="0.644758"/>
<path opacity="0.15" d="M12.9494 21.129L12.9483 21.129C12.304 21.1293 11.6774 21.34 11.1638 21.729C10.8548 21.9631 10.5969 22.2539 10.4024 22.5836C10.3644 22.454 10.3377 22.3209 10.3228 22.1858C10.283 21.8255 10.3279 21.4609 10.454 21.121C10.5801 20.7811 10.7839 20.4754 11.0492 20.2283C11.3144 19.9812 11.6338 19.7995 11.9817 19.6977C12.3296 19.5959 12.6965 19.5769 13.0531 19.6421C13.4098 19.7073 13.7462 19.855 14.0356 20.0733C14.325 20.2916 14.5594 20.5745 14.72 20.8995C14.8774 21.2181 14.9598 21.5684 14.9608 21.9235C14.7833 21.7583 14.5854 21.6148 14.3713 21.4968C13.9357 21.2569 13.4467 21.1304 12.9494 21.129Z" fill="white" stroke="#4B4B63" stroke-width="0.644758"/>
<path d="M105.762 35.1703H8.60545C7.61415 35.1703 6.81055 35.9739 6.81055 36.9652V94.6469C6.81055 95.6382 7.61415 96.4418 8.60545 96.4418H105.762C106.754 96.4418 107.557 95.6382 107.557 94.6469V36.9652C107.557 35.9739 106.754 35.1703 105.762 35.1703Z" fill="white" stroke="#4B4B63" stroke-width="2.57903" stroke-miterlimit="10" stroke-linecap="round"/>
<path d="M61.1529 66.6442C61.1654 65.385 61.5928 64.1651 62.3689 63.1735C63.145 62.1818 64.2264 61.4738 65.4456 61.1591C64.9025 59.0109 64.0573 56.9507 62.9353 55.0401C61.8495 55.6704 60.5874 55.9287 59.3413 55.7757C58.0951 55.6228 56.933 55.067 56.0318 54.1928C55.1257 53.3105 54.5479 52.1454 54.3938 50.8901C54.2398 49.6348 54.5187 48.3646 55.1846 47.2893C53.2739 46.1673 51.2137 45.3221 49.0656 44.779C48.7664 46.0089 48.0627 47.1027 47.0675 47.8849C46.0723 48.6671 44.8431 49.0923 43.5773 49.0923C42.3115 49.0923 41.0824 48.6671 40.0871 47.8849C39.0919 47.1027 38.3882 46.0089 38.0891 44.779C35.9409 45.3221 33.8807 46.1673 31.9701 47.2893C32.6003 48.3752 32.8587 49.6372 32.7057 50.8834C32.5528 52.1295 31.997 53.2916 31.1228 54.1928C30.2405 55.0989 29.0754 55.6768 27.8201 55.8308C26.5648 55.9849 25.2946 55.7059 24.2193 55.0401C23.0973 56.9507 22.2521 59.0109 21.709 61.1591C22.9389 61.4582 24.0327 62.1619 24.8149 63.1571C25.5971 64.1524 26.0223 65.3815 26.0223 66.6473C26.0223 67.9131 25.5971 69.1423 24.8149 70.1375C24.0327 71.1327 22.9389 71.8364 21.709 72.1356C22.2521 74.2837 23.0973 76.3439 24.2193 78.2546C25.3052 77.6243 26.5672 77.366 27.8134 77.5189C29.0595 77.6719 30.2216 78.2277 31.1228 79.1018C32.0289 79.9841 32.6068 81.1492 32.7608 82.4045C32.9149 83.6598 32.6359 84.9301 31.9701 86.0053C33.8807 87.1273 35.9409 87.9725 38.0891 88.5157C38.3882 87.2857 39.0919 86.1919 40.0871 85.4097C41.0824 84.6276 42.3115 84.2024 43.5773 84.2024C44.8431 84.2024 46.0723 84.6276 47.0675 85.4097C48.0627 86.1919 48.7664 87.2857 49.0656 88.5157C51.2137 87.9725 53.2739 87.1273 55.1846 86.0053C54.5543 84.9195 54.296 83.6574 54.4489 82.4113C54.6018 81.1651 55.1577 80.003 56.0318 79.1018C56.9141 78.1957 58.0792 77.6179 59.3345 77.4638C60.5898 77.3098 61.8601 77.5887 62.9353 78.2546C64.0573 76.3439 64.9025 74.2837 65.4456 72.1356C64.2254 71.8206 63.1432 71.1116 62.367 70.1187C61.5908 69.1258 61.1641 67.9044 61.1529 66.6442ZM43.5805 75.0853C41.9115 75.0828 40.2807 74.5856 38.8943 73.6566C37.5078 72.7276 36.4278 71.4084 35.7909 69.8658C35.1539 68.3231 34.9885 66.6263 35.3157 64.9897C35.6428 63.3532 36.4477 61.8503 37.6287 60.671C38.8097 59.4918 40.3138 58.6891 41.9508 58.3644C43.5879 58.0397 45.2845 58.2076 46.8262 58.8469C48.3678 59.4861 49.6854 60.568 50.6124 61.9559C51.5393 63.3437 52.0341 64.9752 52.0341 66.6442C52.0291 68.8874 51.1341 71.0369 49.5455 72.6207C47.957 74.2045 45.8048 75.0932 43.5616 75.0915L43.5805 75.0853Z" fill="#B2A3EF"/>
<path d="M87.1351 58.4791C87.143 57.5932 87.4431 56.7346 87.989 56.0367C88.5348 55.3388 89.2958 54.8406 90.1538 54.6195C89.7666 53.1072 89.1665 51.6576 88.3714 50.3142C87.608 50.7561 86.7213 50.937 85.8458 50.8294C84.9704 50.7218 84.1538 50.3316 83.5202 49.718C82.8834 49.098 82.4772 48.2793 82.3688 47.3972C82.2604 46.5151 82.4562 45.6224 82.9239 44.8667C81.5806 44.0716 80.131 43.4715 78.6187 43.0844C78.4032 43.9448 77.9063 44.7086 77.207 45.2544C76.5077 45.8001 75.6461 46.0965 74.759 46.0965C73.872 46.0965 73.0104 45.8001 72.3111 45.2544C71.6118 44.7086 71.1149 43.9448 70.8993 43.0844C69.3871 43.4715 67.9375 44.0716 66.5941 44.8667C67.036 45.6301 67.2168 46.5168 67.1092 47.3923C67.0016 48.2678 66.6115 49.0843 65.9979 49.718C65.3779 50.3548 64.5592 50.7609 63.6771 50.8693C62.795 50.9778 61.9023 50.7819 61.1466 50.3142C60.3515 51.6576 59.7514 53.1072 59.3643 54.6195C60.2247 54.835 60.9885 55.3319 61.5342 56.0312C62.08 56.7305 62.3764 57.5921 62.3764 58.4791C62.3764 59.3662 62.08 60.2278 61.5342 60.9271C60.9885 61.6264 60.2247 62.1233 59.3643 62.3388C59.7514 63.8511 60.3515 65.3007 61.1466 66.6441C61.91 66.2022 62.7967 66.0213 63.6722 66.1289C64.5477 66.2365 65.3642 66.6267 65.9979 67.2403C66.6347 67.8603 67.0408 68.6789 67.1492 69.561C67.2576 70.4431 67.0618 71.3358 66.5941 72.0915C67.9375 72.8866 69.3871 73.4868 70.8993 73.8739C71.1149 73.0134 71.6118 72.2497 72.3111 71.7039C73.0104 71.1582 73.872 70.8618 74.759 70.8618C75.6461 70.8618 76.5077 71.1582 77.207 71.7039C77.9063 72.2497 78.4032 73.0134 78.6187 73.8739C80.131 73.4868 81.5806 72.8866 82.9239 72.0915C82.4821 71.3281 82.3012 70.4414 82.4088 69.566C82.5164 68.6905 82.9066 67.874 83.5202 67.2403C84.1401 66.6035 84.9588 66.1973 85.8409 66.0889C86.723 65.9805 87.6157 66.1764 88.3714 66.6441C89.1665 65.3007 89.7666 63.8511 90.1538 62.3388C89.2958 62.1177 88.5348 61.6195 87.989 60.9216C87.4431 60.2237 87.143 59.3651 87.1351 58.4791ZM74.759 64.4161C73.5848 64.4161 72.4369 64.0679 71.4606 63.4156C70.4843 62.7632 69.7233 61.836 69.2739 60.7511C68.8246 59.6663 68.707 58.4726 68.9361 57.3209C69.1652 56.1692 69.7306 55.1114 70.5609 54.2811C71.3912 53.4507 72.4491 52.8853 73.6008 52.6562C74.7524 52.4271 75.9462 52.5447 77.031 52.9941C78.1158 53.4434 79.0431 54.2044 79.6954 55.1807C80.3478 56.1571 80.696 57.3049 80.696 58.4791C80.691 60.0522 80.0639 61.5594 78.9516 62.6717C77.8393 63.7841 76.3321 64.4112 74.759 64.4161Z" fill="#7BB1FF"/>
</svg>
